<svg width="650" height="464" viewBox="0 0 650 464" fill="none" xmlns="http://www.w3.org/2000/svg">
<rect width="650" height="463.183" fill="white"/>
<path d="M293.823 268.647C282.739 250.256 263.516 244.154 257.2 242.448C255.476 237.684 254.954 232.568 255.68 227.553C257.112 217.701 259.447 201.687 259.675 200.517L211.918 219.133L163.346 235.487C164.268 236.248 176.296 247.04 183.691 253.686C187.457 257.069 190.329 261.333 192.052 266.098V266.098C188.292 271.462 177.429 288.486 180.672 309.722C183.734 329.777 197.686 342.471 206.976 350.947C213.683 357.046 221.182 362.207 229.27 366.291C232.833 368.852 236.901 370.62 241.201 371.478C245.502 372.337 249.935 372.264 254.206 371.267C255.665 370.926 258.472 370.205 261.102 369.393C262.262 369.033 263.736 368.573 265.424 367.979L265.702 367.875L265.981 367.776C267.655 367.149 269.082 366.557 270.204 366.088C272.737 365.024 275.36 363.775 276.697 363.1C280.612 361.124 284.062 358.334 286.814 354.915C289.566 351.496 291.559 347.528 292.657 343.275C296.257 334.949 298.715 326.173 299.966 317.186C301.694 304.728 304.288 286.016 293.823 268.647Z" fill="#D6B49A"/>
<path d="M247.211 372.454C240.703 372.452 234.358 370.41 229.065 366.615C220.958 362.517 213.442 357.34 206.718 351.226C197.423 342.76 183.377 329.967 180.294 309.777C177.307 290.214 186.053 274.038 191.624 266.039C189.912 261.41 187.103 257.267 183.438 253.968C176.241 247.497 164.027 236.53 163.105 235.781C163.053 235.737 163.014 235.681 162.99 235.617C162.967 235.553 162.96 235.485 162.971 235.418C162.983 235.35 163.013 235.288 163.058 235.236C163.102 235.184 163.16 235.145 163.224 235.123L211.8 218.767L259.546 200.163C259.609 200.139 259.678 200.132 259.745 200.143C259.811 200.154 259.874 200.183 259.926 200.226C259.977 200.27 260.017 200.327 260.039 200.391C260.061 200.455 260.066 200.523 260.053 200.59C259.828 201.758 257.456 218.018 256.063 227.609C255.358 232.494 255.848 237.479 257.492 242.132C266.883 244.699 283.938 251.508 294.147 268.451C304.684 285.934 302.072 304.774 300.344 317.241C299.089 326.252 296.625 335.052 293.02 343.402C291.903 347.701 289.883 351.713 287.097 355.168C284.31 358.624 280.82 361.445 276.86 363.442C275.403 364.176 272.821 365.402 270.339 366.44C269.171 366.93 267.79 367.501 266.161 368.113L266.103 368.141L265.545 368.342L265.487 368.359C263.838 368.936 262.414 369.375 261.206 369.756C258.634 370.553 255.87 371.279 254.285 371.639C251.966 372.181 249.592 372.454 247.211 372.454ZM164.101 235.633C166.68 237.893 177.391 247.512 183.947 253.404C187.756 256.832 190.663 261.147 192.412 265.968C192.433 266.025 192.439 266.087 192.431 266.147C192.423 266.208 192.401 266.266 192.366 266.316C186.866 274.165 178.083 290.232 181.049 309.663C184.089 329.589 198.023 342.272 207.234 350.665C213.915 356.739 221.383 361.88 229.437 365.95L229.488 365.981C233.007 368.509 237.024 370.256 241.272 371.103C245.519 371.951 249.897 371.88 254.115 370.895C255.691 370.527 258.434 369.819 260.988 369.027C262.201 368.654 263.635 368.202 265.295 367.621L265.345 367.605L265.796 367.443L265.844 367.42C267.486 366.806 268.884 366.229 270.052 365.737C272.515 364.706 275.076 363.49 276.523 362.762C280.391 360.811 283.8 358.055 286.52 354.679C289.24 351.302 291.209 347.382 292.296 343.181C292.301 343.162 292.308 343.143 292.316 343.125C295.901 334.831 298.351 326.089 299.597 317.137C301.309 304.776 303.904 286.097 293.501 268.844C283.36 252.015 266.341 245.308 257.102 242.815C257.044 242.798 256.991 242.768 256.947 242.726C256.903 242.685 256.869 242.633 256.848 242.577C255.109 237.752 254.583 232.573 255.316 227.497C256.582 218.767 258.662 204.504 259.202 201.115L212.061 219.485L164.101 235.633Z" fill="black"/>
<path d="M214.129 225.27C240.731 215.615 261.1 204.477 259.624 200.393C258.148 196.309 235.386 200.825 208.783 210.48C182.181 220.136 161.812 231.274 163.288 235.358C164.764 239.442 187.526 234.925 214.129 225.27Z" fill="#020202"/>
<path d="M168.177 237.226C165.436 237.226 163.401 236.756 162.938 235.476C161.925 232.684 169.122 228.061 175.331 224.664C183.945 219.958 195.778 214.789 208.661 210.11C221.543 205.431 233.939 201.806 243.558 199.897C250.499 198.521 258.981 197.463 259.987 200.248C260.993 203.032 253.803 207.665 247.594 211.062C238.98 215.769 227.149 220.938 214.264 225.614C201.38 230.29 188.989 233.918 179.367 235.829C175.612 236.573 171.407 237.226 168.177 237.226ZM254.768 199.25C252.455 199.25 248.967 199.6 243.707 200.644C234.121 202.548 221.768 206.163 208.919 210.826C196.07 215.49 184.272 220.643 175.691 225.332C163.592 231.948 163.414 234.573 163.647 235.218C163.88 235.862 165.694 237.756 179.215 235.08C188.799 233.179 201.154 229.561 214.001 224.898C226.848 220.234 238.648 215.083 247.226 210.392C259.323 203.776 259.501 201.154 259.268 200.506C259.131 200.121 258.399 199.25 254.768 199.25V199.25Z" fill="black"/>
<path d="M264.867 377.826L264.844 398.851C264.844 400.423 266.531 401.7 268.613 401.702H268.689C270.772 401.702 272.464 400.433 272.464 398.859L272.487 378.067C272.487 377.933 270.726 377.813 268.588 377.813H264.867" fill="#818181"/>
<path d="M268.688 402.083H268.607C266.327 402.083 264.457 400.631 264.457 398.851L264.48 377.445H268.581C269.62 377.445 270.608 377.471 271.368 377.516C272.412 377.582 272.873 377.631 272.873 378.07L272.85 398.861C272.837 399.321 272.715 399.77 272.495 400.173C272.275 400.576 271.962 400.921 271.583 401.179C270.74 401.784 269.725 402.101 268.688 402.083V402.083ZM265.24 378.22L265.217 398.864C265.217 400.225 266.737 401.331 268.607 401.334H268.688C269.56 401.349 270.414 401.082 271.122 400.572C271.404 400.383 271.638 400.13 271.804 399.833C271.97 399.536 272.064 399.204 272.077 398.864L272.1 378.352C270.938 378.24 269.771 378.193 268.604 378.209H265.24V378.22Z" fill="#191818"/>
<path d="M465.004 377.826L464.981 398.851C464.981 400.423 466.669 401.7 468.751 401.702H468.827C470.909 401.702 472.602 400.433 472.602 398.859L472.625 378.067C472.625 377.933 470.851 377.813 468.726 377.813H465.004" fill="#818181"/>
<path d="M468.824 402.083H468.743C466.463 402.083 464.594 400.631 464.594 398.851L464.617 377.445H468.718C469.767 377.445 470.745 377.471 471.492 377.516C472.536 377.582 472.997 377.631 472.997 378.07L472.974 398.861C472.961 399.321 472.839 399.77 472.619 400.173C472.399 400.576 472.086 400.921 471.707 401.179C470.868 401.782 469.857 402.098 468.824 402.083ZM465.377 378.22L465.354 398.864C465.354 400.225 466.874 401.332 468.743 401.334H468.824C469.697 401.349 470.55 401.082 471.259 400.572C471.541 400.383 471.775 400.13 471.941 399.833C472.107 399.536 472.2 399.204 472.214 398.864L472.237 378.352C471.075 378.24 469.908 378.193 468.741 378.209H465.377V378.22Z" fill="#191818"/>
<path d="M484.385 372.622H213.249C212.526 372.622 211.834 372.91 211.323 373.421C210.812 373.933 210.525 374.627 210.525 375.351V375.351C210.525 376.075 210.812 376.769 211.323 377.281C211.834 377.793 212.526 378.08 213.249 378.08H481.725C482.088 378.08 482.447 378.007 482.781 377.866C483.115 377.725 483.418 377.518 483.672 377.258C483.925 376.998 484.124 376.689 484.257 376.351C484.39 376.013 484.454 375.651 484.446 375.288L484.385 372.622Z" fill="#DCDBDA"/>
<path d="M481.725 378.461H213.249C212.426 378.461 211.636 378.133 211.054 377.55C210.472 376.967 210.146 376.176 210.146 375.351C210.146 374.526 210.472 373.735 211.054 373.152C211.636 372.569 212.426 372.241 213.249 372.241H484.765L484.833 375.288C484.842 375.702 484.768 376.114 484.616 376.499C484.463 376.884 484.236 377.235 483.946 377.53C483.656 377.826 483.311 378.061 482.929 378.22C482.548 378.38 482.138 378.462 481.725 378.461V378.461ZM213.249 373.003C212.627 373.003 212.031 373.25 211.592 373.691C211.152 374.131 210.906 374.728 210.906 375.351C210.906 375.974 211.152 376.571 211.592 377.012C212.031 377.452 212.627 377.699 213.249 377.699H481.725C482.037 377.699 482.346 377.636 482.633 377.515C482.921 377.393 483.181 377.216 483.399 376.992C483.617 376.768 483.789 376.503 483.903 376.212C484.017 375.921 484.073 375.61 484.066 375.298L484.013 373.013L213.249 373.003Z" fill="black"/>
<path d="M199.693 230.711C199.693 230.711 189.909 268.156 191.54 283.842C192.513 293.205 192.209 308.721 191.794 319.739C191.665 323.208 190.189 326.489 187.679 328.882C185.17 331.275 181.827 332.59 178.363 332.547C174.899 332.504 171.59 331.106 169.14 328.651C166.691 326.197 165.296 322.88 165.254 319.409C165.185 313.824 164.55 309.574 165.127 306.411C168.59 287.419 163.285 287.117 166.414 269.788C166.949 267.913 167.503 266.027 168.076 264.13C171.07 254.229 174.351 245.026 177.83 236.05C181.564 235.697 185.734 234.585 190.225 233.58C193.678 232.808 196.838 231.655 199.693 230.711Z" fill="#4EA7F1"/>
<path d="M178.538 332.925C174.95 332.912 171.51 331.49 168.957 328.964C166.404 326.438 164.941 323.009 164.883 319.414C164.86 317.439 164.762 315.606 164.675 313.972C164.518 310.996 164.382 308.425 164.762 306.356C166.535 296.681 166 291.855 165.491 287.189C164.984 282.586 164.513 278.24 166.048 269.733V269.697C166.591 267.804 167.151 265.889 167.713 264.031C170.436 255.021 173.54 246.09 177.477 235.923L177.563 235.705L177.796 235.682C180.699 235.41 183.894 234.666 187.276 233.879C188.216 233.661 189.171 233.438 190.144 233.222C192.788 232.588 195.397 231.814 197.959 230.902C198.505 230.715 199.041 230.536 199.568 230.363L200.229 230.143L200.054 230.82C199.955 231.194 190.303 268.375 191.909 283.817C192.877 293.137 192.588 308.511 192.175 319.765C192.053 323.304 190.561 326.656 188.016 329.112C185.471 331.568 182.072 332.936 178.538 332.925ZM166.793 269.875C165.273 278.253 165.75 282.551 166.246 287.095C166.753 291.814 167.295 296.696 165.509 306.48C165.147 308.473 165.281 311.004 165.435 313.931C165.522 315.563 165.62 317.414 165.643 319.404C165.686 322.775 167.042 325.995 169.421 328.378C171.8 330.761 175.014 332.118 178.377 332.16C181.741 332.202 184.988 330.925 187.425 328.601C189.862 326.278 191.297 323.093 191.423 319.724C191.836 308.493 192.125 293.16 191.17 283.883C189.672 269.469 197.853 236.444 199.162 231.293L198.207 231.6C195.62 232.52 192.986 233.302 190.316 233.94C189.348 234.159 188.394 234.378 187.453 234.598C184.137 235.36 180.998 236.101 178.107 236.395C174.216 246.451 171.146 255.303 168.45 264.229C167.888 266.098 167.33 267.991 166.793 269.875V269.875Z" fill="black"/>
<path d="M204.26 310.645C202 310.645 200.346 307.363 199.7 306.076C195.244 297.234 201.98 281.809 204.595 276.333C207.093 281.969 213.289 297.267 208.836 306.076C208.162 307.383 206.512 310.645 204.26 310.645Z" fill="#4EA7F1"/>
<path d="M204.26 311.026C201.765 311.026 200.075 307.673 199.356 306.241C195.145 297.889 200.622 283.809 204.243 276.163L204.597 275.401L204.934 276.163C208.326 283.812 213.386 297.886 209.165 306.233C208.443 307.673 206.748 311.026 204.26 311.026ZM204.572 277.244C201.025 284.909 196.1 298.099 200.03 305.898C200.633 307.091 202.231 310.265 204.258 310.265C206.285 310.265 207.881 307.091 208.486 305.898C212.425 298.097 207.896 284.911 204.572 277.244Z" fill="black"/>
<path d="M507.256 271.203C479.198 246.875 444.427 252.282 439.414 253.145C391.148 260.865 352.108 278.532 346.132 300.945C344.904 305.574 343.915 310.262 343.168 314.992C331.223 312.961 311.174 311.966 299.497 324.695L299.439 324.761C296.123 328.396 298.448 334.27 303.338 334.781C306.266 335.085 309.785 335.38 313.753 335.573C321.989 335.974 339.616 348.774 350.654 357.281C357.54 365.163 367.259 369.994 377.688 370.718H377.855C380.918 372.777 389.002 377.6 400.192 377.428C406.095 377.325 411.896 375.872 417.153 373.18L457.784 372.622C476.591 378.093 491.693 377.521 500.897 376.366C514.124 374.709 519.089 371.398 521.311 369.568C528.987 363.221 531.781 353.336 533.757 343.438C537.816 323.1 531.28 292.035 507.256 271.203Z" fill="#F8F3ED"/>
<path d="M399.617 377.826C389.385 377.826 381.582 373.673 377.747 371.114H377.663C367.146 370.384 357.344 365.517 350.394 357.573C332.153 343.532 319.816 336.248 313.735 335.967C310.214 335.794 306.703 335.527 303.298 335.172C302.107 335.05 300.974 334.598 300.026 333.866C299.078 333.134 298.353 332.151 297.932 331.029C297.502 329.938 297.39 328.747 297.607 327.594C297.824 326.442 298.361 325.374 299.158 324.515L299.217 324.451C304.443 318.754 311.83 315.221 321.181 313.941C329.258 312.837 337.357 313.654 342.854 314.566C343.593 309.95 344.565 305.374 345.765 300.857C348.643 290.063 359.357 279.809 376.746 271.205C393.183 263.082 414.83 256.702 439.354 252.777C442.959 252.158 452.654 250.871 464.736 252.358C481.256 254.389 495.643 260.642 507.504 270.924C518.661 280.652 526.928 293.271 531.399 307.396C535.346 319.737 536.317 332.567 534.13 343.519C532.283 352.772 529.636 363.201 521.552 369.868C517.415 373.28 510.674 375.531 500.943 376.753C486.89 378.514 472.351 377.26 457.733 373.011L417.247 373.567C411.958 376.255 406.13 377.708 400.2 377.816C400.005 377.826 399.81 377.826 399.617 377.826ZM377.957 370.348L378.066 370.414C381.866 372.952 389.79 377.225 400.187 377.06C406.031 376.952 411.774 375.513 416.981 372.853L417.06 372.813L457.847 372.254L457.903 372.269C472.44 376.496 486.895 377.753 500.862 376.001C510.446 374.8 517.06 372.604 521.081 369.286C528.975 362.777 531.577 352.498 533.398 343.374C537.414 323.255 530.865 292.185 507.02 271.505C479.913 247.992 446.009 252.409 439.493 253.534C415.038 257.446 393.464 263.795 377.096 271.893C359.909 280.398 349.332 290.481 346.51 301.057C345.284 305.673 344.299 310.35 343.558 315.068L343.498 315.449L343.118 315.383C331.971 313.482 311.504 312.2 299.797 324.967L299.738 325.03C299.037 325.786 298.563 326.725 298.372 327.74C298.182 328.755 298.282 329.803 298.662 330.762C299.032 331.749 299.669 332.614 300.501 333.259C301.333 333.904 302.328 334.304 303.374 334.415C306.766 334.768 310.262 335.035 313.761 335.205C320.003 335.51 332.49 342.839 350.875 356.992L350.931 357.042C357.746 364.845 367.364 369.63 377.686 370.353L377.957 370.348Z" fill="black"/>
<path d="M342.895 314.613C340.519 307.619 336.901 294.36 336.592 281.827C336.363 272.517 337.433 263.221 339.772 254.209C333.121 240.514 330.267 225.281 331.508 210.102C331.573 209.365 331.825 208.657 332.241 208.046C332.656 207.434 333.221 206.939 333.881 206.608C334.542 206.278 335.275 206.122 336.013 206.155C336.75 206.189 337.467 206.412 338.094 206.802L371.561 227.647C384.015 224.256 397.098 223.892 409.721 226.585L440.074 201.707C440.549 201.315 441.12 201.058 441.728 200.96C442.336 200.862 442.959 200.928 443.533 201.15C444.107 201.372 444.612 201.743 444.996 202.225C445.381 202.707 445.631 203.282 445.72 203.892C448.189 221.118 446.755 238.679 441.523 255.272C443.849 262.412 444.468 270 443.331 277.425" fill="#F8F3ED"/>
<path d="M342.536 314.736C341.142 310.636 336.567 296.145 336.202 281.837C335.972 272.539 337.034 263.254 339.359 254.25C332.723 240.528 329.878 225.274 331.12 210.077C331.181 209.275 331.448 208.502 331.896 207.835C332.344 207.167 332.958 206.628 333.676 206.269C334.399 205.901 335.204 205.726 336.014 205.762C336.824 205.798 337.61 206.044 338.297 206.475L371.624 227.233C384.031 223.883 397.052 223.52 409.625 226.172L439.836 201.402C440.363 200.968 440.997 200.682 441.671 200.573C442.346 200.465 443.037 200.538 443.674 200.785C444.311 201.031 444.871 201.443 445.297 201.978C445.723 202.513 445.999 203.152 446.098 203.829C448.571 221.071 447.145 238.648 441.923 255.263C444.235 262.426 444.842 270.032 443.697 277.473L442.937 277.356C444.063 269.992 443.448 262.465 441.14 255.382L441.102 255.265L441.14 255.148C446.356 238.609 447.785 221.105 445.323 203.936C445.242 203.393 445.02 202.881 444.677 202.452C444.335 202.024 443.885 201.694 443.374 201.496C442.863 201.298 442.308 201.24 441.767 201.327C441.226 201.414 440.718 201.643 440.294 201.991L409.8 226.995L409.622 226.957C397.058 224.275 384.036 224.637 371.639 228.013L371.48 228.056L337.874 207.122C337.298 206.761 336.637 206.555 335.958 206.524C335.278 206.494 334.602 206.641 333.996 206.949C333.396 207.249 332.883 207.698 332.508 208.255C332.133 208.811 331.908 209.456 331.855 210.125C330.616 225.239 333.458 240.409 340.081 254.044L340.142 254.171L340.106 254.308C337.776 263.286 336.71 272.546 336.939 281.819C337.292 296.021 341.837 310.42 343.222 314.494L342.536 314.736Z" fill="black"/>
<path d="M169.684 359.674H169.611C169.611 359.674 167.457 359.647 165.446 357.712C163.863 356.189 165.231 349.479 170.006 341.698C174.085 349.604 175.093 356.202 173.593 357.712C171.668 359.664 169.684 359.674 169.684 359.674Z" fill="#4EA7F1"/>
<path d="M169.687 360.056H169.611C169.514 360.056 167.282 360.002 165.187 357.989C163.234 356.113 165.256 348.715 169.692 341.488L170.044 340.914L170.353 341.513C174.153 348.893 175.706 356.121 173.874 357.971C171.86 360.002 169.79 360.045 169.692 360.045L169.687 360.056ZM169.98 342.478C165.319 350.284 164.473 356.25 165.707 357.438C167.589 359.248 169.593 359.294 169.613 359.294H169.681C169.719 359.294 171.554 359.238 173.33 357.446C174.505 356.248 173.963 350.434 169.98 342.478V342.478Z" fill="black"/>
<path d="M534.799 330.48C538.551 332.212 544.487 335.662 548.479 342.158C557.706 357.174 550.83 379.162 537.999 390.73C528.686 399.128 517.962 400.448 509.526 401.537C504.581 402.175 481.659 405.036 465.916 390.73C462.732 387.836 455.276 381.055 456.375 372.673C456.945 368.357 459.869 362.597 464.855 360.995C474.408 357.913 480.126 373.732 498.065 375.676C500.649 375.955 511.715 376.839 520.359 369.837C521.775 368.69 524.111 366.537 526.945 361.714C529.859 356.756 534.781 346.479 534.799 330.48Z" fill="#333333"/>
<path d="M499.605 402.571C485.829 402.571 474.003 398.593 465.658 391.012C462.428 388.078 454.863 381.203 455.995 372.622C456.626 367.86 459.831 362.214 464.736 360.625C469.549 359.074 473.296 362.024 478.049 365.753C482.9 369.561 488.942 374.295 498.103 375.291C502.057 375.72 512.118 376.017 520.118 369.533C521.577 368.35 523.84 366.233 526.616 361.513C531.706 352.859 534.404 342.128 534.416 330.481V329.887L534.956 330.141C541.036 332.953 545.708 336.931 548.801 341.963C553.148 349.038 554.24 358.226 551.877 367.832C549.688 376.735 544.72 385.184 538.249 391.02C528.924 399.428 518.307 400.794 509.777 401.893L509.572 401.919C506.267 402.349 502.938 402.567 499.605 402.571V402.571ZM467.299 360.975C466.508 360.977 465.723 361.103 464.971 361.351C460.365 362.836 457.351 368.205 456.753 372.721C455.671 380.906 463.028 387.593 466.169 390.449C476.303 399.649 491.676 403.452 509.49 401.16L509.696 401.132C518.122 400.048 528.607 398.697 537.755 390.446C550.169 379.251 557.323 357.256 548.168 342.359C545.247 337.604 540.882 333.811 535.189 331.08C535.085 342.633 532.357 353.278 527.285 361.899C524.448 366.723 522.117 368.906 520.609 370.127C512.389 376.788 502.085 376.474 498.037 376.047C488.663 375.032 482.522 370.208 477.598 366.355C473.835 363.41 470.73 360.975 467.299 360.975V360.975Z" fill="#191818"/>
<path d="M417.249 373.511C417.163 373.51 417.079 373.481 417.012 373.426C416.944 373.372 416.898 373.296 416.879 373.212C416.86 373.127 416.871 373.039 416.91 372.961C416.948 372.883 417.011 372.821 417.09 372.785C417.262 372.703 434.454 364.549 438.416 349.175C438.426 349.124 438.447 349.076 438.476 349.034C438.505 348.991 438.543 348.955 438.587 348.927C438.631 348.9 438.679 348.882 438.731 348.874C438.782 348.866 438.834 348.868 438.884 348.881C438.934 348.894 438.981 348.917 439.021 348.949C439.062 348.981 439.096 349.02 439.121 349.066C439.146 349.111 439.162 349.161 439.167 349.213C439.172 349.264 439.166 349.316 439.151 349.366C437.033 357.593 431.231 363.714 426.737 367.39C423.866 369.762 420.737 371.801 417.409 373.47C417.36 373.496 417.305 373.51 417.249 373.511V373.511Z" fill="#191818"/>
<path d="M409.733 226.591L440.086 201.712C440.562 201.321 441.133 201.064 441.741 200.966C442.348 200.868 442.971 200.934 443.545 201.156C444.119 201.378 444.624 201.749 445.009 202.231C445.393 202.713 445.643 203.288 445.733 203.898C446.554 209.631 446.779 215.439 446.835 224.461C446.891 233.484 443.724 241.755 441.571 255.336C434.108 242.745 423.006 232.721 409.733 226.591V226.591Z" fill="#333333"/>
<path d="M441.781 256.433L441.243 255.532C433.821 243.006 422.778 233.035 409.576 226.936L409.026 226.683L439.848 201.41C440.375 200.976 441.009 200.69 441.683 200.581C442.358 200.473 443.049 200.545 443.686 200.792C444.323 201.039 444.883 201.451 445.309 201.986C445.735 202.521 446.011 203.16 446.11 203.837C446.966 209.816 447.164 215.926 447.217 224.464C447.253 229.99 446.067 235.324 444.684 241.496C443.792 245.512 442.781 250.064 441.935 255.397L441.781 256.433ZM410.443 226.502C423.224 232.538 433.966 242.184 441.35 254.255C442.163 249.338 443.106 245.101 443.942 241.331C445.358 234.951 446.475 229.907 446.445 224.469C446.391 215.964 446.191 209.879 445.345 203.944C445.264 203.401 445.042 202.889 444.699 202.46C444.357 202.031 443.907 201.701 443.396 201.504C442.885 201.306 442.33 201.248 441.789 201.335C441.248 201.422 440.74 201.651 440.316 201.999L410.443 226.502Z" fill="#191818"/>
<path d="M378.742 371.479C378.649 371.48 378.559 371.447 378.489 371.386C377.78 370.766 376.123 369.06 376.087 366.618C376.057 364.468 377.283 362.972 377.686 362.48C379.738 359.974 382.771 359.746 386.284 359.479C388.265 359.329 390.513 359.159 392.831 358.545C396.912 357.464 400.775 355.105 404.312 351.536C404.384 351.469 404.479 351.432 404.578 351.434C404.676 351.435 404.77 351.475 404.84 351.545C404.909 351.615 404.949 351.709 404.951 351.808C404.953 351.906 404.916 352.002 404.849 352.074C401.219 355.74 397.249 358.167 393.023 359.281C390.639 359.913 388.357 360.086 386.343 360.238C382.864 360.492 380.118 360.71 378.274 362.962C377.914 363.401 376.822 364.739 376.847 366.608C376.878 368.74 378.368 370.258 378.991 370.812C379.066 370.879 379.112 370.973 379.119 371.074C379.126 371.174 379.092 371.274 379.026 371.35C378.991 371.391 378.947 371.423 378.898 371.445C378.849 371.468 378.796 371.479 378.742 371.479Z" fill="#191818"/>
<path d="M389.889 293.67C411.296 293.67 428.65 280.372 428.65 263.968C428.65 247.564 411.296 234.266 389.889 234.266C368.482 234.266 351.128 247.564 351.128 263.968C351.128 280.372 368.482 293.67 389.889 293.67Z" fill="#333333"/>
<path d="M389.889 294.051C368.307 294.051 350.748 280.555 350.748 263.968C350.748 247.38 368.307 233.885 389.889 233.885C411.471 233.885 429.03 247.38 429.03 263.968C429.03 280.555 411.471 294.051 389.889 294.051ZM389.889 234.646C368.735 234.646 351.508 247.799 351.508 263.968C351.508 280.136 368.735 293.289 389.889 293.289C411.043 293.289 428.27 280.136 428.27 263.968C428.27 247.799 411.043 234.646 389.889 234.646Z" fill="#191818"/>
<path d="M365.188 270.06C369.596 270.06 373.168 266.48 373.168 262.063C373.168 257.647 369.596 254.066 365.188 254.066C360.781 254.066 357.208 257.647 357.208 262.063C357.208 266.48 360.781 270.06 365.188 270.06Z" fill="#F8F59C"/>
<path d="M365.188 270.441C363.535 270.441 361.918 269.949 360.544 269.029C359.169 268.108 358.097 266.8 357.465 265.269C356.832 263.738 356.666 262.054 356.989 260.429C357.311 258.804 358.108 257.311 359.277 256.139C360.446 254.968 361.936 254.17 363.557 253.847C365.179 253.523 366.86 253.689 368.388 254.323C369.915 254.957 371.221 256.031 372.14 257.409C373.058 258.786 373.549 260.406 373.549 262.063C373.549 264.285 372.668 266.416 371.1 267.987C369.532 269.558 367.406 270.441 365.188 270.441V270.441ZM365.188 254.447C363.685 254.447 362.216 254.894 360.966 255.731C359.716 256.568 358.742 257.757 358.167 259.149C357.591 260.54 357.441 262.072 357.734 263.549C358.027 265.026 358.751 266.383 359.814 267.448C360.877 268.514 362.231 269.239 363.706 269.533C365.18 269.827 366.708 269.676 368.097 269.099C369.486 268.523 370.673 267.547 371.508 266.294C372.343 265.042 372.789 263.569 372.789 262.063C372.789 260.043 371.988 258.106 370.562 256.678C369.137 255.25 367.204 254.447 365.188 254.447Z" fill="#191818"/>
<path d="M445.624 204.056C445.624 204.056 427.891 228.173 426.117 233.758C424.79 237.934 430.834 235.865 433.971 234.555C434.106 234.499 434.256 234.485 434.4 234.516C434.543 234.546 434.674 234.62 434.775 234.726C434.876 234.833 434.943 234.968 434.966 235.113C434.99 235.258 434.968 235.407 434.906 235.54L432.803 239.99C432.668 240.276 432.62 240.595 432.664 240.908C432.709 241.22 432.844 241.513 433.053 241.75C433.262 241.986 433.536 242.156 433.841 242.237C434.145 242.319 434.467 242.309 434.766 242.209L437.277 241.371C437.409 241.327 437.552 241.321 437.687 241.356C437.823 241.391 437.946 241.463 438.041 241.566C438.136 241.669 438.2 241.797 438.224 241.935C438.249 242.072 438.233 242.214 438.179 242.344L437.269 246.705L441.576 255.337C446.735 238.761 448.12 221.238 445.63 204.056H445.624Z" fill="#F3D2C9"/>
<path d="M441.651 256.352L436.863 246.756L437.823 242.186C437.849 242.124 437.856 242.056 437.844 241.99C437.833 241.923 437.802 241.862 437.756 241.813C437.711 241.763 437.652 241.728 437.587 241.712C437.522 241.695 437.453 241.698 437.39 241.719L434.879 242.559C434.509 242.683 434.111 242.696 433.734 242.595C433.357 242.494 433.019 242.284 432.76 241.992C432.501 241.699 432.335 241.336 432.28 240.949C432.226 240.562 432.287 240.168 432.455 239.815L434.557 235.365C434.588 235.301 434.599 235.229 434.587 235.159C434.576 235.089 434.543 235.024 434.494 234.974C434.446 234.922 434.383 234.886 434.314 234.872C434.245 234.857 434.174 234.865 434.109 234.892C429.855 236.669 427.147 237.071 426.063 236.075C425.506 235.568 425.402 234.74 425.754 233.631C427.527 228.046 444.592 204.804 445.317 203.817L445.867 203.07L445.998 203.987C448.504 221.225 447.119 238.807 441.945 255.438L441.651 256.352ZM437.663 246.654L441.486 254.316C446.308 238.361 447.635 221.551 445.378 205.035C442.368 209.163 428.037 228.962 426.478 233.872C426.225 234.677 426.256 235.233 426.575 235.527C427.375 236.261 430.081 235.766 433.818 234.202C434.025 234.116 434.253 234.096 434.472 234.142C434.691 234.189 434.89 234.301 435.045 234.464C435.199 234.626 435.301 234.832 435.336 235.053C435.372 235.275 435.34 235.502 435.244 235.705L433.141 240.152C433.038 240.37 433.001 240.614 433.035 240.853C433.069 241.091 433.172 241.315 433.331 241.496C433.491 241.676 433.7 241.806 433.932 241.869C434.164 241.931 434.41 241.924 434.639 241.848L437.149 241.011C437.348 240.944 437.561 240.935 437.764 240.985C437.967 241.035 438.152 241.141 438.298 241.292C438.443 241.443 438.543 241.632 438.585 241.838C438.628 242.043 438.611 242.256 438.537 242.452L437.663 246.654Z" fill="black"/>
<path d="M371.395 227.665C360.284 220.762 348.759 213.423 337.648 206.521C335.35 205.094 331.654 206.932 331.621 209.641C331.553 215.431 330.608 221.852 332.381 230.711C333.336 235.494 333.762 237.967 334.727 241.247C336.023 245.656 337.696 249.946 339.728 254.067C341.035 251.487 342.56 249.024 344.288 246.705C345.745 244.748 351.017 237.967 360.502 232.488C363.952 230.499 367.604 228.882 371.395 227.665V227.665Z" fill="#333333"/>
<path d="M339.724 254.917L339.389 254.235C337.349 250.094 335.668 245.785 334.363 241.356C333.55 238.591 333.096 236.347 332.438 232.953C332.306 232.283 332.164 231.564 332.009 230.785C330.639 223.931 330.885 218.516 331.1 213.748C331.166 212.316 331.227 210.956 331.242 209.635C331.257 208.315 332.091 207.026 333.471 206.267C334.941 205.457 336.618 205.431 337.849 206.198C343.405 209.646 349.155 213.266 354.719 216.766C360.282 220.267 366.038 223.89 371.596 227.343L372.295 227.777L371.513 228.031C367.747 229.239 364.12 230.845 360.692 232.821C352.163 237.748 346.944 243.778 344.593 246.936C342.879 249.238 341.366 251.682 340.068 254.242L339.724 254.917ZM335.82 206.409C335.126 206.415 334.444 206.595 333.839 206.934C332.701 207.559 332.014 208.572 332.002 209.646C331.987 210.986 331.923 212.344 331.86 213.781C331.645 218.508 331.401 223.862 332.754 230.638C332.909 231.417 333.051 232.133 333.185 232.806C333.871 236.299 334.287 238.411 335.093 241.14C336.313 245.286 337.867 249.325 339.739 253.219C340.978 250.865 342.397 248.61 343.985 246.476C346.371 243.273 351.663 237.154 360.312 232.158C363.552 230.292 366.967 228.751 370.509 227.558C365.164 224.235 359.654 220.767 354.318 217.404C348.745 213.903 343.007 210.295 337.454 206.835C336.959 206.544 336.393 206.396 335.82 206.409V206.409Z" fill="#191818"/>
<path d="M331.621 209.133C331.621 209.133 350.718 225.873 353.081 230.257C353.221 230.511 353.814 231.684 353.375 232.214C352.539 233.23 348.965 230.671 347.328 231.981C347.162 232.116 347.023 232.281 346.918 232.468C346.733 232.815 346.653 233.207 346.687 233.598C346.721 233.989 346.867 234.362 347.108 234.672C347.655 235.4 348.374 236.568 348.306 237.677C348.306 238.007 348.204 238.329 348.015 238.599C347.526 239.198 346.616 239.203 346.365 239.203C344.706 239.203 343.809 237.601 343.769 237.528C343.552 237.352 343.281 237.26 343.003 237.266C342.724 237.272 342.457 237.376 342.249 237.561C342.117 237.7 342.033 237.878 342.011 238.068C341.952 238.508 342.024 238.955 342.218 239.353C342.768 240.467 342.125 244.062 341.75 245.682C341.183 248.098 340.243 250.411 338.963 252.536C336.683 247.545 333.605 239.589 332.123 229.942C331.318 224.674 331.022 219.34 331.239 214.015C331.335 212.027 331.494 210.351 331.621 209.133Z" fill="#F3D2C9"/>
<path d="M338.968 252.924H338.948C338.879 252.921 338.812 252.898 338.755 252.858C338.697 252.819 338.652 252.764 338.624 252.701C335.301 245.49 332.987 237.853 331.748 230.008C330.939 224.718 330.641 219.362 330.859 214.014C330.935 212.377 331.062 210.714 331.239 209.1C331.245 209.03 331.27 208.963 331.312 208.906C331.354 208.85 331.41 208.806 331.475 208.78C331.54 208.753 331.611 208.746 331.681 208.757C331.75 208.769 331.814 208.8 331.867 208.846C332.647 209.531 351.042 225.682 353.401 230.076C353.654 230.564 354.217 231.777 353.654 232.458C353.092 233.138 352.066 232.798 350.852 232.44C349.639 232.082 348.289 231.678 347.559 232.277C347.43 232.382 347.323 232.51 347.242 232.656C347.096 232.936 347.033 233.253 347.062 233.568C347.09 233.884 347.209 234.184 347.404 234.433C348.02 235.253 348.74 236.487 348.671 237.687C348.667 238.098 348.535 238.498 348.294 238.83C347.893 239.32 347.24 239.571 346.353 239.574C344.648 239.574 343.675 238.116 343.468 237.769C343.323 237.674 343.153 237.629 342.981 237.639C342.809 237.649 342.645 237.714 342.512 237.824C342.44 237.91 342.395 238.015 342.383 238.127C342.338 238.488 342.398 238.855 342.558 239.183C343.275 240.635 342.239 245.245 342.117 245.765C341.543 248.22 340.588 250.57 339.287 252.729C339.255 252.786 339.209 252.834 339.153 252.868C339.097 252.903 339.034 252.922 338.968 252.924ZM331.923 209.904C331.786 211.278 331.687 212.666 331.624 214.04C331.407 219.34 331.701 224.648 332.503 229.891C333.689 237.427 335.878 244.77 339.011 251.724C340.087 249.81 340.886 247.754 341.385 245.616C341.834 243.679 342.338 240.46 341.892 239.541C341.655 239.07 341.567 238.539 341.638 238.017C341.673 237.743 341.795 237.487 341.988 237.289C342.265 237.041 342.622 236.9 342.994 236.893C343.365 236.885 343.727 237.01 344.015 237.246C344.05 237.274 344.079 237.309 344.098 237.35C344.098 237.365 344.912 238.825 346.356 238.825C347.004 238.825 347.46 238.667 347.711 238.36C347.848 238.152 347.919 237.908 347.916 237.659C347.967 236.687 347.334 235.629 346.794 234.902C346.508 234.534 346.335 234.09 346.297 233.625C346.259 233.159 346.356 232.693 346.579 232.283C346.709 232.054 346.88 231.851 347.085 231.686C348.132 230.848 349.695 231.308 351.073 231.714C351.868 231.947 352.846 232.237 353.079 231.968C353.249 231.762 353.105 231.105 352.742 230.445C350.667 226.578 335.072 212.689 331.923 209.904Z" fill="black"/>
<path d="M365.189 267.775C368.337 267.775 370.889 265.218 370.889 262.064C370.889 258.909 368.337 256.352 365.189 256.352C362.041 256.352 359.489 258.909 359.489 262.064C359.489 265.218 362.041 267.775 365.189 267.775Z" fill="black"/>
<path d="M365.189 268.156C363.986 268.156 362.81 267.799 361.811 267.129C360.811 266.46 360.031 265.508 359.571 264.395C359.111 263.282 358.991 262.057 359.225 260.875C359.46 259.693 360.039 258.607 360.889 257.755C361.74 256.903 362.823 256.323 364.002 256.088C365.182 255.853 366.404 255.973 367.515 256.434C368.626 256.896 369.576 257.677 370.244 258.679C370.912 259.68 371.269 260.858 371.269 262.063C371.269 263.679 370.628 265.229 369.488 266.372C368.348 267.514 366.801 268.156 365.189 268.156ZM365.189 256.732C364.136 256.732 363.108 257.045 362.233 257.631C361.358 258.217 360.676 259.049 360.273 260.023C359.871 260.997 359.765 262.069 359.971 263.104C360.176 264.138 360.683 265.088 361.427 265.833C362.171 266.579 363.119 267.087 364.151 267.292C365.183 267.498 366.252 267.392 367.224 266.989C368.197 266.585 369.027 265.902 369.612 265.025C370.197 264.149 370.509 263.118 370.509 262.063C370.509 260.65 369.948 259.294 368.95 258.294C367.953 257.294 366.599 256.732 365.189 256.732Z" fill="#191818"/>
<path d="M416.363 270.06C420.77 270.06 424.343 266.48 424.343 262.063C424.343 257.647 420.77 254.066 416.363 254.066C411.956 254.066 408.383 257.647 408.383 262.063C408.383 266.48 411.956 270.06 416.363 270.06Z" fill="#F8F59C"/>
<path d="M416.363 270.441C414.71 270.441 413.093 269.949 411.718 269.029C410.344 268.108 409.272 266.8 408.639 265.269C408.007 263.738 407.841 262.054 408.164 260.429C408.486 258.804 409.282 257.311 410.452 256.139C411.621 254.968 413.11 254.17 414.732 253.847C416.354 253.523 418.035 253.689 419.562 254.323C421.09 254.957 422.396 256.031 423.314 257.409C424.233 258.786 424.723 260.406 424.723 262.063C424.723 264.285 423.842 266.416 422.275 267.987C420.707 269.558 418.58 270.441 416.363 270.441V270.441ZM416.363 254.447C414.86 254.447 413.391 254.894 412.141 255.731C410.891 256.568 409.917 257.757 409.341 259.149C408.766 260.54 408.616 262.072 408.909 263.549C409.202 265.026 409.926 266.383 410.989 267.448C412.052 268.514 413.406 269.239 414.88 269.533C416.355 269.827 417.883 269.676 419.272 269.099C420.66 268.523 421.847 267.547 422.682 266.294C423.518 265.042 423.963 263.569 423.963 262.063C423.963 260.043 423.163 258.106 421.737 256.678C420.312 255.25 418.379 254.447 416.363 254.447Z" fill="#191818"/>
<path d="M416.363 267.775C419.511 267.775 422.063 265.218 422.063 262.064C422.063 258.909 419.511 256.352 416.363 256.352C413.215 256.352 410.663 258.909 410.663 262.064C410.663 265.218 413.215 267.775 416.363 267.775Z" fill="black"/>
<path d="M416.363 268.156C415.161 268.156 413.985 267.799 412.985 267.129C411.986 266.46 411.206 265.508 410.746 264.395C410.286 263.282 410.165 262.057 410.4 260.875C410.635 259.693 411.214 258.607 412.064 257.755C412.914 256.903 413.998 256.323 415.177 256.088C416.357 255.853 417.579 255.973 418.69 256.434C419.801 256.896 420.751 257.677 421.419 258.679C422.087 259.68 422.443 260.858 422.443 262.063C422.443 263.679 421.803 265.229 420.663 266.372C419.522 267.514 417.976 268.156 416.363 268.156ZM416.363 256.732C415.311 256.732 414.283 257.045 413.408 257.631C412.533 258.217 411.851 259.049 411.448 260.023C411.046 260.997 410.94 262.069 411.145 263.104C411.351 264.138 411.857 265.088 412.601 265.833C413.345 266.579 414.293 267.087 415.325 267.292C416.357 267.498 417.427 267.392 418.399 266.989C419.371 266.585 420.202 265.902 420.787 265.025C421.371 264.149 421.683 263.118 421.683 262.063C421.683 260.65 421.123 259.294 420.125 258.294C419.128 257.294 417.774 256.732 416.363 256.732Z" fill="#191818"/>
<path d="M388.055 263.62L390.649 263.967L393.028 263.627C393.13 263.612 393.235 263.627 393.33 263.67C393.424 263.714 393.505 263.783 393.561 263.87C393.617 263.958 393.647 264.06 393.647 264.164C393.648 264.268 393.618 264.37 393.562 264.457L391.259 268.083C391.191 268.185 391.099 268.27 390.991 268.329C390.883 268.388 390.762 268.42 390.639 268.422C390.516 268.424 390.394 268.396 390.284 268.341C390.174 268.285 390.079 268.203 390.008 268.103L387.533 264.465C387.474 264.378 387.442 264.276 387.441 264.171C387.439 264.066 387.467 263.963 387.522 263.874C387.577 263.785 387.656 263.713 387.751 263.668C387.845 263.623 387.951 263.606 388.055 263.62V263.62Z" fill="#F3D2C9"/>
<path d="M390.626 268.812C390.441 268.811 390.259 268.764 390.097 268.675C389.934 268.587 389.796 268.459 389.694 268.304L387.219 264.669C387.119 264.521 387.063 264.348 387.059 264.169C387.055 263.991 387.102 263.815 387.196 263.663C387.289 263.511 387.425 263.389 387.586 263.313C387.747 263.236 387.927 263.208 388.103 263.232L390.637 263.572L392.965 263.237C393.139 263.213 393.317 263.239 393.477 263.312C393.637 263.386 393.773 263.504 393.869 263.652C393.964 263.8 394.015 263.973 394.016 264.149C394.017 264.326 393.968 264.499 393.874 264.648L391.571 268.274C391.471 268.432 391.334 268.563 391.17 268.655C391.007 268.747 390.824 268.796 390.637 268.799L390.626 268.812ZM387.979 263.988C387.952 263.988 387.925 263.995 387.901 264.009C387.878 264.023 387.858 264.043 387.845 264.067C387.827 264.093 387.817 264.124 387.817 264.156C387.817 264.188 387.827 264.219 387.845 264.245L390.32 267.88C390.355 267.93 390.402 267.971 390.456 267.999C390.51 268.027 390.57 268.042 390.632 268.043C390.693 268.042 390.753 268.026 390.807 267.996C390.861 267.966 390.906 267.922 390.938 267.87L393.238 264.245C393.257 264.219 393.267 264.189 393.267 264.157C393.267 264.126 393.257 264.095 393.238 264.07C393.222 264.043 393.198 264.021 393.17 264.008C393.141 263.995 393.11 263.991 393.079 263.996L390.649 264.344L388.002 263.991L387.979 263.988Z" fill="black"/>
<path d="M386.864 272.767C386.611 272.767 386.335 272.752 386.051 272.724C385.95 272.714 385.857 272.664 385.793 272.586C385.729 272.507 385.699 272.406 385.709 272.305C385.719 272.204 385.769 272.111 385.847 272.047C385.925 271.983 386.026 271.952 386.127 271.963C387.612 272.11 388.701 271.831 389.36 271.13C390.325 270.114 390.084 268.502 390.082 268.485C390.066 268.384 390.091 268.281 390.152 268.198C390.212 268.116 390.303 268.061 390.403 268.045C390.504 268.03 390.607 268.055 390.689 268.116C390.771 268.176 390.826 268.267 390.842 268.368C390.842 268.447 391.141 270.361 389.922 271.653C389.218 272.397 388.194 272.767 386.864 272.767Z" fill="black"/>
<path d="M394.272 273.02C392.942 273.02 391.921 272.649 391.232 271.911C390.013 270.619 390.3 268.704 390.312 268.626C390.328 268.525 390.383 268.434 390.465 268.374C390.547 268.313 390.65 268.288 390.751 268.303C390.851 268.319 390.942 268.374 391.002 268.456C391.063 268.538 391.088 268.641 391.072 268.742C391.072 268.77 390.839 270.38 391.797 271.393C392.458 272.091 393.542 272.368 395.027 272.22C395.128 272.21 395.228 272.241 395.307 272.305C395.385 272.369 395.435 272.462 395.445 272.563C395.455 272.664 395.425 272.765 395.361 272.844C395.296 272.922 395.204 272.972 395.103 272.982C394.804 273.005 394.533 273.02 394.272 273.02Z" fill="black"/>
<path d="M443.597 264.729L461.457 259.271Z" fill="#F8F3ED"/>
<path d="M443.597 265.11C443.506 265.109 443.419 265.076 443.351 265.017C443.282 264.957 443.237 264.876 443.224 264.786C443.211 264.696 443.229 264.605 443.277 264.528C443.325 264.451 443.399 264.394 443.485 264.366L461.345 258.908C461.439 258.887 461.537 258.901 461.621 258.949C461.704 258.997 461.766 259.075 461.794 259.167C461.822 259.259 461.815 259.359 461.773 259.445C461.731 259.532 461.658 259.599 461.568 259.634L443.708 265.092C443.672 265.104 443.634 265.11 443.597 265.11V265.11Z" fill="black"/>
<path d="M444.23 268.664L461.077 271.33Z" fill="#F8F3ED"/>
<path d="M461.077 271.711H461.019L444.172 269.045C444.071 269.03 443.981 268.975 443.92 268.893C443.86 268.81 443.835 268.707 443.85 268.606C443.866 268.505 443.92 268.414 444.003 268.354C444.085 268.294 444.188 268.268 444.288 268.284L461.136 270.949C461.236 270.957 461.33 271.005 461.396 271.082C461.462 271.158 461.494 271.258 461.486 271.359C461.479 271.46 461.431 271.554 461.355 271.62C461.278 271.686 461.178 271.719 461.077 271.711Z" fill="black"/>
<path d="M337.068 268.664L321.741 272.091Z" fill="#F8F3ED"/>
<path d="M321.741 272.472C321.64 272.483 321.539 272.453 321.46 272.39C321.38 272.326 321.33 272.234 321.319 272.133C321.308 272.032 321.337 271.931 321.4 271.851C321.464 271.772 321.556 271.721 321.657 271.71L336.984 268.283C337.079 268.268 337.177 268.29 337.257 268.344C337.337 268.398 337.393 268.481 337.414 268.575C337.435 268.67 337.42 268.768 337.371 268.852C337.322 268.935 337.244 268.997 337.151 269.024L321.824 272.452C321.797 272.462 321.769 272.469 321.741 272.472V272.472Z" fill="black"/>
<path d="M337.702 264.475L320.854 261.81Z" fill="#F8F3ED"/>
<path d="M337.701 264.856H337.643L320.796 262.191C320.746 262.183 320.698 262.166 320.655 262.14C320.612 262.113 320.574 262.079 320.544 262.038C320.514 261.997 320.493 261.951 320.481 261.902C320.469 261.853 320.467 261.802 320.474 261.752C320.482 261.702 320.499 261.654 320.525 261.61C320.552 261.567 320.586 261.529 320.627 261.5C320.667 261.47 320.714 261.448 320.763 261.436C320.812 261.424 320.863 261.422 320.912 261.429L337.76 264.095C337.86 264.103 337.954 264.15 338.02 264.227C338.086 264.304 338.118 264.404 338.11 264.505C338.103 264.606 338.055 264.7 337.979 264.765C337.902 264.831 337.802 264.864 337.701 264.856V264.856Z" fill="black"/>
<path d="M148.024 113.045C159.315 118.216 172.167 129.828 187.471 144.646C210.979 167.408 225.675 204.16 230.286 218.013C228.824 218.694 222.627 207.178 221.165 207.859C216.284 194.47 206.657 172.609 185.951 151.247C169.028 133.786 154.284 120.867 142.377 115.198L148.024 113.045Z" fill="#8BB174"/>
<path d="M230.141 218.431C229.239 218.431 227.967 216.771 225.416 213.161C224.023 211.191 221.92 208.216 221.307 208.216L220.932 208.388L220.813 207.992C212.858 186.16 201.367 167.699 185.683 151.515C166.935 132.162 153.113 120.733 142.22 115.544L141.414 115.164L148.041 112.625L148.188 112.691C159.003 117.646 171.341 128.487 187.74 144.366C197.959 154.267 207.568 167.76 216.306 184.489C224.332 199.881 229.009 212.978 230.645 217.89L230.754 218.213L230.445 218.355C230.351 218.403 230.247 218.429 230.141 218.431V218.431ZM221.421 207.456C222.318 207.588 223.587 209.256 226.034 212.719C227.174 214.336 228.788 216.621 229.672 217.383C227.139 209.955 212.483 169.402 187.208 144.914C170.938 129.169 158.694 118.4 148.011 113.46L143.334 115.237C154.187 120.632 167.85 132.023 186.225 150.979C201.919 167.178 213.438 185.649 221.421 207.456Z" fill="black"/>
<path d="M210.791 226.31C191.872 210.316 165.377 190.898 156.541 187.496C133.796 178.738 113.605 174.917 100.53 174.788C101.935 173.342 103.343 171.899 104.753 170.457C117.167 170.401 135.055 173.856 155.168 180.865C163.234 183.681 194.111 203.835 216.223 224.187L210.791 226.31Z" fill="#8BB174"/>
<path d="M210.72 226.746L210.545 226.601C192.17 211.057 165.415 191.314 156.404 187.851C136.17 180.065 115.269 175.313 100.525 175.168H99.6357L104.591 170.091H105.042C117.962 170.091 136.253 173.884 155.279 180.522C163.216 183.292 193.787 203.05 216.463 223.933L216.911 224.347L210.72 226.746ZM101.419 174.419C116.189 174.734 136.75 179.469 156.69 187.14C165.745 190.626 192.459 210.313 210.877 225.873L215.513 224.055C193.323 203.746 162.677 183.888 155.041 181.225C136.096 174.625 117.901 170.837 105.055 170.837H104.925L101.419 174.419Z" fill="black"/>
<path d="M230.549 218.475C226.05 212.407 215.46 193.814 209.289 187.815C196.965 175.86 182.701 166.093 167.108 158.931L161.456 161.073C178.748 169.336 194.428 180.627 207.759 194.413C212.243 199.057 221.551 216.187 225.092 220.815L230.549 218.475Z" fill="#8BB174"/>
<path d="M224.971 221.288L224.791 221.054C223.37 219.193 221.098 215.451 218.458 211.12C214.561 204.71 210.148 197.445 207.478 194.68C194.188 180.918 178.543 169.654 161.287 161.424L160.491 161.025L167.121 158.512L167.268 158.578C182.906 165.752 197.207 175.548 209.555 187.544C213.642 191.514 219.674 200.999 224.52 208.615C227.097 212.676 229.334 216.167 230.854 218.236L231.142 218.622L224.971 221.288ZM162.422 161.121C179.443 169.358 194.88 180.541 208.023 194.154C210.751 196.98 215.19 204.284 219.104 210.729C221.513 214.692 223.793 218.444 225.209 220.358L229.949 218.327C228.417 216.205 226.299 212.872 223.869 209.049C219.043 201.458 213.039 192.012 209.016 188.102C196.77 176.204 182.593 166.479 167.093 159.344L162.422 161.121Z" fill="black"/>
<path d="M396.73 357.644L405.343 376.937C401.044 377.426 396.7 377.341 392.423 376.683C392.423 376.683 385.028 375.823 380.113 372.114C376.698 369.545 376.536 367.735 376.493 367.194C376.295 364.721 377.922 362.972 378.553 362.371L378.743 362.198C381.023 360.203 385.076 359.931 385.33 359.913C387.924 359.753 391.508 359.08 396.73 357.644Z" fill="#333333"/>
<path d="M399.802 377.631C397.312 377.632 394.825 377.441 392.364 377.06C392.073 377.027 384.825 376.148 379.885 372.432C377.516 370.655 376.247 368.903 376.115 367.237C375.915 364.755 377.382 362.96 378.291 362.109L378.492 361.927C380.741 359.952 384.572 359.599 385.301 359.548C388.042 359.363 391.746 358.619 396.628 357.263L396.942 357.177L405.903 377.232L405.396 377.291C403.539 377.508 401.672 377.621 399.802 377.631V377.631ZM396.509 358.098C391.731 359.398 388.078 360.129 385.347 360.309C384.916 360.337 381.093 360.647 378.986 362.5C378.907 362.569 378.836 362.635 378.813 362.658C378.008 363.419 376.69 365.011 376.865 367.177C376.979 368.613 378.147 370.177 380.333 371.822C385.106 375.412 392.385 376.298 392.458 376.306C396.534 376.932 400.673 377.036 404.775 376.615L396.509 358.098Z" fill="#191818"/>
<path d="M319.152 336.758L326.808 313.979C321.607 313.902 316.443 314.851 311.607 316.771C308.127 318.228 304.882 320.196 301.98 322.61C301.727 322.826 298.18 325.88 298.054 328.822C298.054 328.982 298.054 329.132 298.054 329.142C298.112 331.623 299.911 333.204 300.602 333.712L300.81 333.864C302.931 335.367 305.517 335.2 309.33 335.293C311.481 335.347 312.555 335.375 313.89 335.547C315.678 335.784 317.44 336.19 319.152 336.758V336.758Z" fill="#333333"/>
<path d="M319.151 337.142C319.111 337.142 319.071 337.135 319.032 337.122C317.343 336.563 315.604 336.166 313.839 335.936C312.522 335.764 311.45 335.738 309.317 335.683C308.838 335.683 308.377 335.662 307.934 335.655C304.8 335.604 302.535 335.566 300.587 334.185L300.369 334.022C299.389 333.261 297.732 331.641 297.671 329.151C297.671 329.151 297.671 328.98 297.671 328.803C297.808 325.721 301.332 322.657 301.724 322.317C304.669 319.88 307.956 317.892 311.48 316.417C316.362 314.482 321.574 313.524 326.823 313.599C326.883 313.599 326.943 313.614 326.996 313.643C327.05 313.671 327.096 313.712 327.13 313.761C327.165 313.811 327.187 313.868 327.196 313.928C327.204 313.988 327.197 314.049 327.177 314.106L319.521 336.886C319.495 336.962 319.445 337.029 319.378 337.075C319.312 337.121 319.232 337.145 319.151 337.142V337.142ZM326.245 314.355C321.28 314.355 316.359 315.295 311.741 317.125C308.301 318.571 305.093 320.518 302.221 322.903C302.071 323.03 298.55 326.033 298.421 328.838C298.421 328.978 298.421 329.11 298.421 329.128C298.474 331.306 299.941 332.753 300.82 333.421L301.015 333.565C302.773 334.809 304.939 334.835 307.936 334.896C308.382 334.896 308.843 334.911 309.327 334.923C311.485 334.977 312.57 335.005 313.925 335.177C315.613 335.398 317.278 335.766 318.901 336.279L326.27 314.353L326.245 314.355Z" fill="#191818"/>
<path d="M95.9651 97.9363L88.8589 94.0522C87.0871 93.0837 85.6411 91.6111 84.7034 89.8203C83.7656 88.0294 83.378 86.0003 83.5895 83.989L84.1848 78.3506C84.423 76.0906 85.1483 73.9095 86.3105 71.958C87.4727 70.0066 89.0441 68.3315 90.916 67.0485V67.0485C92.0016 66.305 93.2635 65.8613 94.5748 65.7624C95.886 65.6634 97.2 65.9127 98.3845 66.4849C99.0679 66.8038 99.7682 67.0851 100.482 67.3278C108.735 70.2507 116.242 74.9638 122.467 81.1305L111.454 101.143L95.9651 97.9363Z" fill="#9665FF"/>
<path d="M111.649 101.572L95.8333 98.2976L95.7826 98.2697L88.6764 94.3881C86.838 93.3847 85.3383 91.857 84.3673 89.9986C83.3962 88.1402 82.9977 86.0348 83.222 83.9491L83.8174 78.3108C84.0599 75.9957 84.802 73.7612 85.9924 71.7622C87.1827 69.7633 88.7927 68.0477 90.7107 66.7345C91.8529 65.9539 93.1799 65.4883 94.5584 65.3845C95.937 65.2807 97.3186 65.5423 98.5643 66.143C99.2357 66.4552 99.9232 66.7315 100.624 66.9706C108.929 69.9096 116.483 74.6534 122.743 80.8621L122.948 81.0627L111.649 101.572ZM96.0967 97.5741L111.257 100.714L121.996 81.1998C115.852 75.1687 108.466 70.5573 100.355 67.6891C99.6287 67.4452 98.9158 67.1622 98.2197 66.8411C97.0947 66.2979 95.8466 66.0615 94.6013 66.1555C93.3559 66.2495 92.1574 66.6708 91.1262 67.3768C89.2984 68.6274 87.7641 70.2615 86.6298 72.1658C85.4954 74.0702 84.7882 76.199 84.5571 78.4047L83.9618 84.0431C83.754 85.9795 84.1246 87.9341 85.0266 89.6592C85.9286 91.3843 87.3215 92.8022 89.0286 93.7331L96.0967 97.5741Z" fill="black"/>
<path d="M102.662 91.2124L102.487 91.2251C100.26 91.3877 98.1448 92.2662 96.4561 93.7298C94.7673 95.1934 93.5949 97.1641 93.1132 99.3488L92.4343 102.426C91.7312 105.612 92.1952 108.946 93.7417 111.819C95.2881 114.691 97.8139 116.91 100.858 118.071L121.756 126.043L124.973 103.144L110.533 93.322C108.221 91.7498 105.448 91.0063 102.662 91.2124V91.2124Z" fill="#9665FF"/>
<path d="M122.067 126.568L100.724 118.429C97.5942 117.236 94.9974 114.954 93.4072 112.001C91.8171 109.048 91.3396 105.621 92.062 102.344L92.741 99.2702C93.2313 97.0006 94.444 94.952 96.1967 93.4328C97.9494 91.9137 100.147 91.0061 102.459 90.8469L102.634 90.8342C105.503 90.6297 108.358 91.3958 110.741 93.0098L125.379 102.966L122.067 126.568ZM102.69 91.5933L102.515 91.606C100.366 91.7537 98.3232 92.5971 96.6943 94.0092C95.0653 95.4213 93.9384 97.3256 93.4832 99.4352L92.8043 102.509C92.1368 105.606 92.595 108.84 94.0962 111.628C95.5974 114.416 98.043 116.575 100.992 117.716L121.447 125.517L124.563 103.332L110.33 93.642C108.088 92.1225 105.402 91.401 102.702 91.5933H102.69Z" fill="black"/>
<path d="M139.717 77.2036L131.577 66.3914C130.023 64.3252 127.915 62.7449 125.498 61.8354C123.081 60.9259 120.456 60.7249 117.929 61.2557L115.262 61.8168C113.971 62.0861 112.767 62.6708 111.757 63.5189C110.746 64.367 109.961 65.4522 109.47 66.678C108.979 67.9038 108.798 69.2322 108.943 70.545C109.088 71.8578 109.555 73.1144 110.301 74.2029L117.142 83.9259L138.577 91.6967L139.717 77.2036Z" fill="#9665FF"/>
<path d="M138.916 92.2275L116.901 84.246L109.99 74.424C109.21 73.284 108.724 71.9688 108.573 70.5952C108.423 69.2216 108.613 67.832 109.127 66.5498C109.641 65.2675 110.463 64.1322 111.52 63.2446C112.577 62.357 113.836 61.7445 115.186 61.4616L117.856 60.9031C120.448 60.3653 123.139 60.5739 125.618 61.5048C128.097 62.4356 130.262 64.0507 131.863 66.1632L140.089 77.0794L140.076 77.2241L138.916 92.2275ZM117.382 83.6114L138.235 91.1715L139.314 77.3307L131.263 66.6328C129.748 64.6329 127.7 63.1033 125.354 62.221C123.009 61.3387 120.462 61.1396 118.008 61.6469L115.338 62.2079C114.111 62.4652 112.967 63.0218 112.006 63.8284C111.045 64.6351 110.298 65.6668 109.83 66.8321C109.363 67.9975 109.189 69.2604 109.325 70.509C109.461 71.7576 109.903 72.9532 110.611 73.9898L117.382 83.6114Z" fill="black"/>
<path d="M122.103 112.108C131.215 112.108 138.603 104.705 138.603 95.5733C138.603 86.4417 131.215 79.0391 122.103 79.0391C112.99 79.0391 105.603 86.4417 105.603 95.5733C105.603 104.705 112.99 112.108 122.103 112.108Z" fill="#F8F59C"/>
<path d="M122.095 112.481C119.349 112.48 116.645 111.808 114.217 110.522C111.789 109.237 109.711 107.377 108.162 105.105C106.614 102.832 105.642 100.215 105.332 97.4814C105.021 94.7474 105.381 91.9787 106.38 89.4156C107.379 86.8525 108.987 84.5724 111.065 82.7731C113.142 80.9738 115.627 79.7096 118.302 79.0902C120.978 78.4709 123.764 78.515 126.418 79.2189C129.073 79.9228 131.516 81.2651 133.536 83.1294V83.1294C136.036 85.4355 137.783 88.4443 138.549 91.762C139.314 95.0797 139.062 98.5517 137.826 101.724C136.59 104.895 134.427 107.619 131.62 109.539C128.813 111.458 125.493 112.484 122.095 112.481V112.481ZM122.108 79.428C118.351 79.4294 114.714 80.746 111.823 83.15C108.933 85.5541 106.971 88.8945 106.278 92.594C105.585 96.2934 106.203 100.119 108.026 103.41C109.85 106.701 112.763 109.251 116.263 110.618C119.763 111.984 123.629 112.083 127.194 110.896C130.759 109.709 133.797 107.312 135.785 104.118C137.773 100.924 138.585 97.1346 138.08 93.4047C137.575 89.6747 135.786 86.2386 133.021 83.6904V83.6904C130.048 80.9438 126.151 79.4217 122.108 79.428Z" fill="#191818"/>
<path d="M125.872 77.1988L125.066 83.4007C124.745 85.8657 125.332 88.2038 126.713 89.9555L137.774 103.989L144.259 120.945C145.599 118.652 146.746 116.252 147.687 113.768C147.687 113.768 150.134 106.868 149.853 99.1429C149.347 84.8046 139.251 73.3984 137.564 71.5376C136.844 70.6663 135.869 70.0445 134.777 69.7605C132.669 69.2528 130.919 70.3723 130.009 70.9512C126.974 72.8831 126.098 76.196 125.872 77.1988Z" fill="#9665FF"/>
<path d="M144.181 121.803L137.437 104.18L126.414 90.197C124.965 88.359 124.355 85.9295 124.689 83.3426L125.502 77.1077C125.867 75.4753 126.913 72.4645 129.809 70.6214C130.716 70.0451 132.596 68.8443 134.876 69.3825C136.048 69.6826 137.094 70.3486 137.863 71.284C140.637 74.3431 149.749 85.4167 150.243 99.1203C150.522 106.833 148.08 113.817 148.057 113.888C147.103 116.396 145.945 118.821 144.594 121.138L144.181 121.803ZM126.247 77.265L125.441 83.4492C125.135 85.8178 125.695 88.0442 127.01 89.7197L138.108 103.799L138.129 103.852L144.33 120.064C145.482 117.994 146.485 115.844 147.332 113.631C147.355 113.57 149.747 106.716 149.473 99.1609C148.987 85.7061 140.019 74.8178 137.282 71.7993C136.615 70.9856 135.706 70.4051 134.688 70.1416C132.738 69.6745 131.093 70.7204 130.212 71.2814C127.557 72.9595 126.589 75.7444 126.247 77.265Z" fill="black"/>
<path d="M121.476 126.075L108.961 120.28C106.398 119.089 104.404 116.937 103.409 114.287C102.414 111.638 102.497 108.703 103.641 106.114L106.243 100.229C107.696 96.9436 110.337 94.3313 113.635 92.9183C116.933 91.5053 120.642 91.3963 124.017 92.6134L139.01 98.0334C142.002 99.1179 144.53 101.203 146.167 103.937C147.805 106.672 148.451 109.888 147.998 113.044C147.32 116.275 145.788 119.263 143.562 121.696C137.801 127.878 129.601 127.535 128.141 127.464C125.86 127.363 123.609 126.894 121.476 126.075Z" fill="#9665FF"/>
<path d="M129.078 127.87C128.728 127.87 128.411 127.87 128.135 127.852C125.809 127.748 123.516 127.268 121.343 126.431H121.318L108.81 120.625C106.164 119.384 104.106 117.156 103.076 114.416C102.046 111.676 102.124 108.641 103.295 105.959L105.894 100.074C107.395 96.7068 110.108 94.031 113.493 92.5819C116.877 91.1327 120.682 91.0169 124.148 92.2577L139.14 97.6777C142.211 98.799 144.805 100.943 146.488 103.751C148.171 106.56 148.84 109.862 148.384 113.105V113.133C147.692 116.431 146.127 119.482 143.852 121.965C139.029 127.126 132.46 127.87 129.078 127.87ZM121.617 125.737C123.711 126.541 125.92 127.002 128.16 127.103C131.01 127.225 138.193 126.921 143.285 121.457C145.462 119.078 146.961 116.155 147.624 112.996C148.053 109.928 147.419 106.806 145.826 104.15C144.233 101.495 141.779 99.4685 138.874 98.4089L123.882 92.9863C120.597 91.8103 116.991 91.9199 113.784 93.2934C110.577 94.6668 108.005 97.2027 106.584 100.394L103.982 106.281C102.891 108.781 102.819 111.608 103.779 114.16C104.739 116.713 106.656 118.788 109.122 119.944L121.617 125.737Z" fill="black"/>
<path d="M77.7703 147.176L76.7317 143.584C76.0774 141.321 76.2321 138.899 77.1691 136.737C78.1061 134.576 79.7667 132.81 81.8643 131.744V131.744C83.7424 130.792 85.848 130.382 87.9452 130.562C90.0424 130.741 92.0484 131.502 93.7383 132.759C96.9279 133.831 111.358 139.06 118.771 154.209C121.341 159.503 122.745 165.289 122.888 171.174C122.894 171.55 122.8 171.921 122.614 172.247C122.429 172.574 122.16 172.845 121.834 173.031C121.509 173.218 121.139 173.313 120.764 173.308C120.389 173.302 120.023 173.196 119.703 173L77.7703 147.176Z" fill="#9665FF"/>
<path d="M120.795 173.698C120.337 173.696 119.887 173.567 119.498 173.325L77.4436 147.431L76.3644 143.696C75.6873 141.348 75.848 138.836 76.819 136.594C77.79 134.351 79.5105 132.518 81.6845 131.409C83.6137 130.421 85.7794 129.992 87.9386 130.169C90.0979 130.346 92.1651 131.123 93.9081 132.412C99.2283 134.204 112.174 139.87 119.103 154.036C121.707 159.376 123.125 165.218 123.26 171.159C123.276 171.604 123.17 172.045 122.953 172.434C122.735 172.823 122.416 173.144 122.029 173.363C121.654 173.581 121.228 173.697 120.795 173.698V173.698ZM78.0947 146.93L119.896 172.675C120.158 172.838 120.459 172.927 120.767 172.932C121.075 172.938 121.379 172.86 121.647 172.707C121.915 172.554 122.136 172.331 122.288 172.062C122.44 171.793 122.517 171.489 122.51 171.18C122.378 165.346 120.988 159.611 118.436 154.366C111.596 140.409 98.8027 134.852 93.6092 133.1L93.5509 133.08L93.5028 133.044C91.8714 131.828 89.9329 131.093 87.9065 130.924C85.8801 130.754 83.8468 131.156 82.0367 132.084C80.0192 133.111 78.4221 134.811 77.5204 136.89C76.6187 138.97 76.4688 141.299 77.0966 143.478L78.0947 146.93Z" fill="black"/>
<path d="M65.9649 182.414L70.302 185.65C71.5956 186.613 72.9906 187.43 74.4619 188.088C76.2267 188.867 78.0402 189.531 79.8909 190.075C83.8962 191.253 93.7764 194.152 104.764 190.101C113.19 186.993 118.426 181.215 121.157 177.443C121.346 177.191 121.464 176.894 121.5 176.581C121.535 176.268 121.488 175.952 121.361 175.664C121.235 175.375 121.035 175.126 120.781 174.941C120.527 174.756 120.228 174.642 119.916 174.61L72.2122 169.19C70.5259 168.998 68.8215 169.328 67.3273 170.134C65.8331 170.94 64.6205 172.185 63.852 173.701C63.1227 175.17 62.9348 176.85 63.3214 178.444C63.708 180.038 64.6442 181.444 65.9649 182.414V182.414Z" fill="#9665FF"/>
<path d="M92.8875 192.568C87.0607 192.568 82.3664 191.187 79.7899 190.431C77.923 189.883 76.0942 189.213 74.3153 188.425C72.8174 187.757 71.3978 186.925 70.082 185.945L65.7423 182.718C64.3459 181.698 63.3561 180.214 62.9493 178.531C62.5424 176.849 62.7448 175.076 63.5205 173.528C64.3285 171.947 65.5971 170.649 67.158 169.807C68.7189 168.964 70.4984 168.617 72.2607 168.811L119.957 174.226C120.334 174.267 120.695 174.407 121.002 174.631C121.309 174.855 121.551 175.156 121.705 175.504C121.859 175.852 121.919 176.235 121.879 176.613C121.839 176.992 121.7 177.353 121.477 177.661C118.467 181.819 113.15 187.412 104.906 190.453C101.056 191.866 96.987 192.582 92.8875 192.568V192.568ZM66.1907 182.096L70.5354 185.323C71.8047 186.27 73.1752 187.073 74.6218 187.717C76.3699 188.499 78.1674 189.166 80.0027 189.712C84.122 190.923 93.7692 193.754 104.64 189.745C112.701 186.772 117.907 181.294 120.854 177.222C121 177.022 121.091 176.787 121.117 176.54C121.144 176.294 121.104 176.044 121.003 175.818C120.905 175.592 120.75 175.396 120.551 175.251C120.353 175.106 120.12 175.016 119.876 174.99L72.1695 169.568C70.5602 169.391 68.9354 169.71 67.5109 170.481C66.0864 171.251 64.9297 172.438 64.1944 173.884C63.5056 175.268 63.3281 176.853 63.6935 178.356C64.0589 179.859 64.9436 181.184 66.1907 182.096V182.096Z" fill="black"/>
<path d="M62.4838 156.709C63.0254 158.983 64.051 161.114 65.4905 162.954C66.9299 164.794 68.7492 166.301 70.8237 167.371L85.3705 174.873C86.3458 175.256 87.7721 175.789 89.5176 176.351C93.234 177.561 97.0485 178.444 100.918 178.991C107.826 179.813 115.449 177.63 119.776 176.094C120.194 175.946 120.578 175.716 120.907 175.419C121.235 175.122 121.502 174.762 121.692 174.361C121.882 173.96 121.991 173.526 122.013 173.083C122.035 172.639 121.97 172.196 121.821 171.778C119.232 164.597 115.416 160.461 113.266 158.461C109.293 154.767 104.472 152.302 100.619 150.337C98.1795 149.089 95.6774 147.968 93.1226 146.978L80.7344 143.549C76.6365 142.421 72.2607 142.954 68.5513 145.031L67.3074 145.727C65.4214 146.783 63.9302 148.427 63.0599 150.408C62.1895 152.39 61.9872 154.602 62.4838 156.709V156.709Z" fill="#9665FF"/>
<path d="M104.12 179.557C103.039 179.56 101.959 179.499 100.885 179.374C98.5292 179.092 94.1059 178.229 89.4014 176.719C87.9979 176.267 86.5944 175.767 85.2314 175.234L85.1959 175.218L70.6492 167.714C68.525 166.619 66.6625 165.077 65.1897 163.193C63.7168 161.308 62.6685 159.127 62.1167 156.798V156.798C61.6006 154.607 61.8098 152.308 62.7129 150.247C63.616 148.186 65.1639 146.475 67.1227 145.374L68.3666 144.678C72.1652 142.543 76.6533 142.003 80.8486 143.175L93.2622 146.615C95.8293 147.611 98.344 148.737 100.797 149.989C104.683 151.977 109.516 154.447 113.527 158.176C117.327 161.7 120.23 166.231 122.181 171.644C122.348 172.109 122.421 172.603 122.396 173.097C122.372 173.591 122.25 174.075 122.038 174.522C121.826 174.968 121.528 175.369 121.161 175.699C120.795 176.03 120.366 176.285 119.901 176.45C115.726 177.947 109.864 179.557 104.12 179.557ZM85.5253 174.53C86.868 175.058 88.2512 175.546 89.6344 175.993C94.2857 177.488 98.6508 178.341 100.976 178.618C107.533 179.397 114.756 177.483 119.663 175.739C120.033 175.608 120.374 175.404 120.666 175.141C120.958 174.877 121.196 174.558 121.364 174.203C121.533 173.847 121.629 173.461 121.649 173.068C121.668 172.674 121.61 172.281 121.477 171.91C119.566 166.61 116.721 162.182 113.02 158.74C109.088 155.084 104.305 152.647 100.462 150.675C98.0385 149.437 95.5534 148.323 93.0165 147.339L80.646 143.914C76.6437 142.798 72.3633 143.314 68.739 145.349L67.4977 146.044C65.6827 147.065 64.2483 148.649 63.4111 150.558C62.5738 152.468 62.3792 154.598 62.8565 156.628V156.628C63.3847 158.848 64.3858 160.928 65.7912 162.725C67.1966 164.521 68.9731 165.992 70.9988 167.036L85.5253 174.53Z" fill="black"/>
<path d="M155.118 136.877C154.741 136.871 154.367 136.947 154.023 137.101C153.68 137.256 153.374 137.484 153.128 137.771C152.882 138.057 152.703 138.394 152.602 138.758C152.501 139.122 152.481 139.503 152.544 139.876C153.557 145.887 156.136 159.149 159.724 162.5C164.403 166.872 171.922 192.042 192.835 186.734C207.194 183.089 202.781 168.07 198.601 159.007C196.286 153.97 192.61 149.683 187.989 146.631C183.398 143.628 178.405 141.294 173.158 139.7C167.305 137.925 161.233 136.975 155.118 136.877V136.877Z" fill="#9665FF"/>
<path d="M187.265 187.844C174.545 187.844 167.573 175.886 163.198 168.372C161.751 165.889 160.503 163.744 159.469 162.787C155.899 159.454 153.366 147.047 152.173 139.939C152.1 139.511 152.122 139.073 152.238 138.655C152.354 138.237 152.56 137.85 152.843 137.521C153.125 137.192 153.477 136.93 153.872 136.753C154.267 136.576 154.696 136.488 155.129 136.497V136.497C161.282 136.593 167.392 137.55 173.281 139.34C178.559 140.944 183.582 143.293 188.2 146.314C192.882 149.402 196.607 153.744 198.949 158.847C201.906 165.255 204.799 174.219 201.797 180.527C200.244 183.792 197.262 186.006 192.93 187.102C191.08 187.585 189.177 187.834 187.265 187.844V187.844ZM155.068 137.256C154.751 137.256 154.437 137.326 154.149 137.461C153.862 137.595 153.606 137.791 153.402 138.034C153.197 138.278 153.048 138.563 152.964 138.87C152.88 139.177 152.865 139.498 152.918 139.812C153.865 145.45 156.449 158.923 159.981 162.221C161.095 163.262 162.311 165.348 163.852 167.989C168.734 176.366 176.906 190.385 192.732 186.366C196.829 185.325 199.643 183.251 201.092 180.2C203.968 174.158 201.128 165.427 198.242 159.167C195.959 154.193 192.329 149.96 187.764 146.951C183.206 143.969 178.249 141.651 173.04 140.066C167.218 138.298 161.179 137.352 155.096 137.256H155.068Z" fill="black"/>
<path d="M239.186 214.844C239.913 214.464 232.313 140.589 211.032 112.156C189.752 83.7229 184.685 79.1533 184.685 79.1533C184.685 79.1533 184.178 100.732 193.298 115.964C202.419 131.196 213.059 156.582 216.099 162.167C219.139 167.752 230.286 218.779 230.286 218.779L239.186 214.844Z" fill="#8BB174"/>
<path d="M230.014 219.315L229.916 218.86C229.802 218.353 218.743 167.833 215.764 162.35C214.781 160.545 213.013 156.689 210.773 151.807C206.145 141.721 199.153 126.481 192.971 116.159C183.899 101.008 184.304 79.3614 184.304 79.143L184.325 78.3154L184.938 78.8714C185.146 79.0567 190.276 83.7888 211.336 111.927C222.364 126.651 229.508 153.307 233.556 173.073C238.055 195.03 239.847 213.692 239.583 214.882C239.572 214.947 239.546 215.007 239.508 215.06C239.471 215.114 239.422 215.158 239.365 215.19H239.34L230.014 219.315ZM185.065 80.0747C185.1 84.3371 185.726 102.57 193.627 115.768C199.827 126.123 206.831 141.388 211.465 151.487C213.699 156.356 215.465 160.202 216.435 161.984C219.346 167.336 229.376 212.846 230.559 218.244L238.856 214.59C238.978 212.529 237.065 193.982 232.806 173.21C228.771 153.536 221.659 127.007 210.728 112.399C193.643 89.5566 186.975 82.0853 185.065 80.0747Z" fill="black"/>
</svg>
