<svg fill="none" height="49" viewBox="0 0 178 49" width="178" xmlns="http://www.w3.org/2000/svg" xmlns:xlink="http://www.w3.org/1999/xlink"><mask id="a" height="33" maskUnits="userSpaceOnUse" width="37" x="4" y="4"><path d="m4 36.8964v-32.8964h36.1818v32.8964z" fill="#fff"/></mask><path clip-rule="evenodd" d="m37.2177 21.0722c-.068.0815-.0313.1593.0859.1513 1.7446-.0938 3.3136-.1393 4.9424-.2709.2841-.024.2948-.0957.2697-.3062-.0252-.2131-.0292-.432-.0227-.6524-.2567-1.3829-.6518-2.716-1.1786-3.9803-1.5896 1.488-2.9932 3.1192-4.0967 5.0585z" fill="#002f6d" fill-rule="evenodd"/><path clip-rule="evenodd" d="m35.6382 23.4427c-2.9681 4.951-6.1379 10.2895-9.6172 13.8633-3.3525 3.4426-6.1972 4.6033-9.1283 4.824 2.0394.7353 4.2341 1.1389 6.523 1.1389 10.7228 0 19.4157-8.7912 19.4157-19.6349 0-.3713-.0122-.7393-.0324-1.1054-.0517.0011-.1085.0036-.1779.0076-1.7626.1025-4.5106.3716-6.3727.6069-.4505.0567-.517.1418-.6102.2996z" fill="#002f6d" fill-rule="evenodd"/><g mask="url(#a)"><path clip-rule="evenodd" d="m9.53947 28.6251c1.23183-1.6229 3.31613-2.9716 5.08043-3.3015.5742-.1065 1.3458-.0381 1.6644.3459.5005.5887.3563 1.2352-.1435 1.4934-1.3458.6956-2.9659 1.8855-3.767 3.5098-.6504 1.3262-.7817 2.9251.2111 4.4473 1.6622 2.5378 6.2943 2.6073 10.6013-1.4396 1.0661-.9899 2.021-1.9415 2.9911-3.0688 1.897-2.1938 2.528-2.9934 5.0499-6.5309.0302-.0403.0385-.0945.0252-.1207-.0209-.0451-.0561-.0575-.1295-.0622-1.6834.0466-3.1511.5546-4.5774 1.6327-.4106.3026-1.0017.26-1.2606-.1385-.2876-.4505-.0816-1.0385.3926-1.3695 2.2943-1.6141 4.8015-1.9069 7.3611-2.344-.0018 0 .1784.0088.3247-.188 1.0506-1.364 1.8445-2.5945 2.9641-3.9738 1.1287-1.3996 2.5877-2.6847 3.7016-3.6498.0521-.0454.1021-.0873.1528-.1305-.7597-1.3124-1.6651-2.5269-2.6945-3.6222-3.7447-.54111-7.5117-.65456-11.168.7145-3.8914 1.4691-5.5967 4.5906-4.7762 6.676.5828 1.4789 2.5075 1.7197 4.3085.8284 1.4961-.7415 2.8796-1.9356 3.8612-3.4742.5497-.8538 1.7064-.2378 1.0819 1.2451-1.6446 3.9095-4.7864 7.0102-8.6131 7.1404-3.2564.1072-5.358-2.316-5.3512-5.3051.0123-5.8964 6.504-9.78003 13.3243-10.36039 1.4371-.12036 2.8598-.14764 4.2747-.11236-3.1299-2.18437-6.9232-3.46655-11.0138-3.46655-10.7229 0-19.41572 8.7905-19.41572 19.6338 0 4.3018 1.37168 8.2775 3.6915 11.5124 0-.0022-.00072-.0047-.00072-.0069-.23262-2.4811.46095-4.6928 1.84881-6.5142z" fill="#002f6d" fill-rule="evenodd"/></g><g clip-rule="evenodd" fill-rule="evenodd"><path d="m30.1547 7.57875c-6.8203.58037-13.312 4.46435-13.3242 10.36035-.0069 2.9895 2.0947 5.4124 5.3512 5.3055 3.8267-.1306 6.9688-3.2313 8.613-7.1404.6245-1.4829-.5321-2.0993-1.0819-1.2451-.9812 1.5382-2.3651 2.7324-3.8612 3.4742-1.801.8913-3.7257.6505-4.3085-.8287-.8205-2.0855.8849-5.2069 4.7763-6.6757 3.6562-1.36942 7.4233-1.2556 11.168-.7149-.9255-.9847-1.9491-1.87307-3.058-2.64725-1.4148-.03527-2.8376-.00836-4.2747.112z" fill="#fefefe"/><path d="m40.029 13.8668c-1.1139.9654-2.573 2.2501-3.7012 3.6501-1.12 1.3793-1.9139 2.6099-2.9645 3.9735-.1464.1971-.3265.188-.3243.188-2.56.4374-5.0672.7298-7.3615 2.344-.4742.3313-.6802.9189-.3926 1.3694.2589.399.85.4415 1.2609.139 1.426-1.0786 2.8937-1.5862 4.5771-1.6331.0734.0047.1086.0171.1295.0625.0133.0258.005.08-.0252.1204-2.5219 3.5378-3.1529 4.3371-5.0495 6.5309-.9705 1.1273-1.9251 2.0789-2.9915 3.0691-4.3071 4.0469-8.9391 3.9771-10.6013 1.4396-.9928-1.5225-.8615-3.1211-.2111-4.4476.8011-1.6244 2.4212-2.8142 3.7674-3.5095.4994-.2585.6439-.9047.1431-1.4934-.3186-.3844-1.0902-.4524-1.6644-.3459-1.7643.3295-3.8486 1.6782-5.08044 3.3011-1.38786 1.8219-2.08144 4.0331-1.84881 6.5146.00036.0018.00072.0043.00108.0065 2.27991 3.1793 5.47707 5.6404 9.20127 6.984 2.9307-.2203 5.7755-1.3814 9.1283-4.824 3.4793-3.5738 6.6488-8.912 9.6169-13.8632.0931-.1579.1596-.243.6101-.2997 1.8621-.2353 4.6105-.504 6.3727-.6069.0694-.0036.1262-.0062.1783-.0076-.0474-.8611-.1528-1.7066-.3063-2.5346-.0065.2204-.0025.4393.0226.6524.0252.2105.0144.2822-.2696.3062-1.6288.1316-3.1979.1771-4.9424.2705-.1172.0084-.1539-.0694-.0859-.1509 1.1034-1.9393 2.5071-3.5705 4.0967-5.0585-.3283-.7873-.7098-1.5462-1.1326-2.2771-.0507.0432-.1007.0847-.1528.1302z" fill="#fefefe"/><path d="m53.1024 17.156h9.1329v2.1095h-6.9577v3.6181h6.7779v2.0913h-6.7779v5.6549h-2.1752z" fill="#002f6d"/><path d="m71.1861 25.5749c0-2.1094-.7371-3.3276-2.9483-3.3276-2.2292 0-2.9483 1.2182-2.9483 3.3276 0 2.1091.7191 3.3455 2.9483 3.3455 2.2112 0 2.9483-1.2364 2.9483-3.3455zm-8.0004-.0545c0-3.4549 1.4203-5.3095 5.0521-5.3095 3.6314 0 5.052 1.8546 5.052 5.3095s-1.4206 5.3091-5.052 5.3091c-3.6318 0-5.0521-1.8542-5.0521-5.3091z" fill="#002f6d"/><path d="m74.8406 20.5747 1.6359-.1276.2158 1.164c.4134-.6909 1.6359-1.2367 3.3438-1.2727v2.1273c-2.409.0181-3.0918 1.1636-3.0918 2.9276v5.2364h-2.1037z" fill="#002f6d"/><path d="m88.5937 25.4841c0-2.3821-.7374-3.2549-3.0382-3.2549-2.1576 0-2.679 1.2728-2.679 3.2549 0 2.0182.5214 3.4 2.679 3.4 2.2293 0 3.0382-.9818 3.0382-3.4zm-7.8389 0c0-3.0185.9532-5.2549 4.4049-5.2549 2.0138 0 2.9663.3997 3.434 1.1091v-4.8185h2.1034v14.0189l-1.6003.164-.2334-1.0909c-.6112.8-1.6899 1.1996-3.7756 1.1996-3.3978 0-4.333-2.2727-4.333-5.3273z" fill="#002f6d"/><path d="m98.7381 24.1201c1.9779 0 3.0749-.7636 3.0749-2.8909 0-2.1094-1.061-2.7458-3.1289-2.7458h-4.4228v5.6367zm-5.8611-6.964h5.8431c3.0929 0 4.4939 1.2549 4.4939 4.0182 0 2.8007-1.383 4.2731-4.5123 4.2731h-4.4404v5.1822h-1.3843z" fill="#002f6d"/><path d="m111.198 26.102v-.7273h-.521c-4.315 0-5.376.4731-5.376 2.364 0 1.2.54 1.891 2.373 1.891 2.499 0 3.524-1.091 3.524-3.5277zm-7.209 1.7277c0-2.855 1.582-3.7095 6.616-3.7095h.593c-.036-1.7091-.396-2.4727-2.679-2.4727-1.258 0-2.337.4545-2.966.8723l-.719-1.0727c.647-.4545 2.139-1.0909 3.793-1.0909 3.344 0 3.883 1.1818 3.883 4.0553v3.7818c0 1.0727.073 1.2182 1.025 1.2182v1.2c-.089.0363-.269.0363-.539.0363-1.15 0-1.456-.3636-1.618-1.2545-.611.9454-1.672 1.4182-3.902 1.4182-2.786 0-3.487-1.2909-3.487-2.9818z" fill="#002f6d"/><path d="m114.696 29.6841.719-1.0727c1.169.7636 2.446 1.0003 3.488 1.0003 1.798 0 2.625-.3454 2.625-1.764 0-1.1273-.719-1.3454-2.625-1.7273-2.301-.4545-3.739-.8545-3.739-3.0185 0-1.7273 1.007-2.7455 3.739-2.7455 1.493 0 2.715.3273 3.632.8728l-.647 1.1276c-.755-.4185-1.762-.7276-2.967-.7276-1.869 0-2.409.5636-2.409 1.4727 0 1.1091.719 1.3818 2.463 1.7273 2.41.4912 3.865.8182 3.865 2.964 0 2.2912-1.258 3.0185-4.009 3.0185-1.312 0-2.786-.2367-4.135-1.1276z" fill="#002f6d"/><path d="m123.778 29.6841.719-1.0727c1.169.7636 2.445 1.0003 3.488 1.0003 1.798 0 2.625-.3454 2.625-1.764 0-1.1273-.719-1.3454-2.625-1.7273-2.301-.4545-3.74-.8545-3.74-3.0185 0-1.7273 1.008-2.7455 3.74-2.7455 1.492 0 2.715.3273 3.632.8728l-.648 1.1276c-.755-.4185-1.761-.7276-2.966-.7276-1.87 0-2.409.5636-2.409 1.4727 0 1.1091.719 1.3818 2.463 1.7273 2.409.4912 3.865.8182 3.865 2.964 0 2.2912-1.258 3.0185-4.009 3.0185-1.312 0-2.787-.2367-4.135-1.1276z" fill="#002f6d"/></g></svg>