<svg width="170" height="40" viewBox="0 0 170 40" fill="none" xmlns="http://www.w3.org/2000/svg">
<path fill-rule="evenodd" clip-rule="evenodd" d="M33.2177 17.4361C33.1497 17.5176 33.1864 17.5954 33.3036 17.5874C35.0482 17.4936 36.6172 17.4481 38.246 17.3165C38.5301 17.2925 38.5408 17.2208 38.5157 17.0103C38.4905 16.7972 38.4865 16.5783 38.493 16.3579C38.2363 14.975 37.8412 13.6419 37.3144 12.3776C35.7248 13.8656 34.3212 15.4968 33.2177 17.4361Z" fill="#0F0F0F"/>
<path fill-rule="evenodd" clip-rule="evenodd" d="M31.6382 19.8068C28.6701 24.7577 25.5003 30.0962 22.021 33.67C18.6685 37.1126 15.8238 38.2733 12.8927 38.494C14.9321 39.2293 17.1268 39.6329 19.4157 39.6329C30.1385 39.6329 38.8314 30.8417 38.8314 19.998C38.8314 19.6268 38.8192 19.2588 38.799 18.8926C38.7473 18.8937 38.6905 18.8962 38.6211 18.9002C36.8585 19.0028 34.1105 19.2718 32.2484 19.5071C31.7979 19.5638 31.7314 19.6489 31.6382 19.8068Z" fill="#0F0F0F"/>
<mask id="mask0" mask-type="alpha" maskUnits="userSpaceOnUse" x="0" y="0" width="37" height="34">
<path d="M0 33.2603V0.363922H36.1818V33.2603H0Z" fill="white"/>
</mask>
<g mask="url(#mask0)">
<path fill-rule="evenodd" clip-rule="evenodd" d="M5.53947 24.989C6.77129 23.3661 8.85561 22.0174 10.6199 21.6876C11.1941 21.581 11.9657 21.6494 12.2843 22.0334C12.7848 22.6221 12.6406 23.2686 12.1408 23.5268C10.795 24.2225 9.17489 25.4123 8.37381 27.0366C7.72338 28.3628 7.59215 29.9617 8.58487 31.4839C10.2471 34.0217 14.8792 34.0912 19.1862 30.0443C20.2523 29.0545 21.2072 28.1028 22.1773 26.9756C24.0743 24.7817 24.7053 23.9821 27.2272 20.4446C27.2574 20.4043 27.2657 20.3501 27.2524 20.3239C27.2315 20.2788 27.1963 20.2665 27.1229 20.2617C25.4395 20.3083 23.9718 20.8163 22.5455 21.8945C22.1349 22.197 21.5438 22.1545 21.2849 21.7559C20.9973 21.3054 21.2033 20.7174 21.6775 20.3865C23.9718 18.7723 26.479 18.4796 29.0386 18.0425C29.0368 18.0425 29.217 18.0512 29.3633 17.8545C30.4139 16.4905 31.2078 15.2599 32.3274 13.8806C33.4561 12.481 34.9151 11.1959 36.029 10.2308C36.0811 10.1854 36.1311 10.1436 36.1818 10.1003C35.4221 8.78792 34.5167 7.57338 33.4873 6.4781C29.7426 5.93701 25.9756 5.82356 22.3193 7.19265C18.4279 8.66174 16.7226 11.7832 17.5431 13.8686C18.1259 15.3476 20.0506 15.5883 21.8516 14.697C23.3477 13.9556 24.7312 12.7614 25.7128 11.2228C26.2625 10.369 27.4192 10.985 26.7947 12.4679C25.1501 16.3774 22.0083 19.4781 18.1816 19.6083C14.9252 19.7156 12.8236 17.2923 12.8304 14.3032C12.8427 8.40683 19.3344 4.52319 26.1547 3.94283C27.5918 3.82247 29.0145 3.79519 30.4294 3.83047C27.2995 1.6461 23.5062 0.363922 19.4156 0.363922C8.69273 0.363922 -0.00012207 9.15447 -0.00012207 19.9977C-0.00012207 24.2996 1.37156 28.2752 3.69138 31.5101C3.69138 31.5079 3.69066 31.5054 3.69066 31.5032C3.45804 29.0221 4.15161 26.8105 5.53947 24.989Z" fill="#0F0F0F"/>
</g>
<path fill-rule="evenodd" clip-rule="evenodd" d="M26.1547 3.94269C19.3344 4.52305 12.8427 8.40705 12.8305 14.3031C12.8236 17.2925 14.9252 19.7154 18.1817 19.6085C22.0084 19.478 25.1505 16.3772 26.7947 12.4681C27.4192 10.9852 26.2626 10.3689 25.7128 11.223C24.7316 12.7612 23.3477 13.9554 21.8516 14.6972C20.0506 15.5885 18.1259 15.3478 17.5431 13.8685C16.7226 11.783 18.428 8.6616 22.3194 7.19287C25.9756 5.82341 29.7427 5.93723 33.4874 6.47796C32.5619 5.49323 31.5383 4.60487 30.4294 3.83069C29.0146 3.79541 27.5918 3.82232 26.1547 3.94269Z" fill="#FEFEFE"/>
<path fill-rule="evenodd" clip-rule="evenodd" d="M36.029 10.2306C34.9151 11.1961 33.456 12.4808 32.3278 13.8808C31.2078 15.2601 30.4139 16.4907 29.3633 17.8543C29.2169 18.0514 29.0368 18.0423 29.039 18.0423C26.479 18.4797 23.9718 18.7721 21.6775 20.3863C21.2033 20.7176 20.9973 21.3052 21.2849 21.7557C21.5438 22.1546 22.1349 22.1972 22.5458 21.8947C23.9718 20.8161 25.4395 20.3085 27.1229 20.2616C27.1963 20.2663 27.2315 20.2787 27.2524 20.3241C27.2657 20.3499 27.2574 20.4041 27.2272 20.4445C24.7053 23.9823 24.0743 24.7816 22.1777 26.9754C21.2072 28.1026 20.2526 29.0543 19.1862 30.0445C14.8791 34.0914 10.2471 34.0216 8.58486 31.4841C7.59214 29.9616 7.72337 28.363 8.3738 27.0365C9.17488 25.4121 10.795 24.2223 12.1412 23.527C12.6406 23.2685 12.7851 22.6223 12.2843 22.0336C11.9657 21.6492 11.1941 21.5812 10.6199 21.6877C8.8556 22.0172 6.77128 23.3659 5.53946 24.9888C4.1516 26.8106 3.45802 29.0219 3.69065 31.5034C3.69101 31.5052 3.69137 31.5077 3.69173 31.5099C5.97164 34.6892 9.16877 37.1503 12.893 38.4939C15.8237 38.2736 18.6685 37.1125 22.0213 33.6699C25.5006 30.0961 28.6701 24.7579 31.6382 19.8066C31.7313 19.6488 31.7978 19.5637 32.2483 19.507C34.1104 19.2717 36.8588 19.003 38.621 18.9001C38.6904 18.8965 38.7472 18.8939 38.7993 18.8925C38.7519 18.0314 38.6465 17.1859 38.493 16.3579C38.4865 16.5783 38.4905 16.7972 38.5156 17.0103C38.5408 17.2208 38.53 17.2925 38.246 17.3165C36.6172 17.4481 35.0481 17.4936 33.3036 17.587C33.1864 17.5954 33.1497 17.5176 33.2177 17.4361C34.3211 15.4968 35.7248 13.8656 37.3144 12.3776C36.9861 11.5903 36.6046 10.8314 36.1818 10.1005C36.1311 10.1437 36.0811 10.1852 36.029 10.2306Z" fill="#FEFEFE"/>
<path fill-rule="evenodd" clip-rule="evenodd" d="M49.1024 13.5199H58.2353V15.6294H51.2776V19.2476H58.0555V21.3388H51.2776V26.9937H49.1024V13.5199Z" fill="#0F0F0F"/>
<path fill-rule="evenodd" clip-rule="evenodd" d="M67.1861 21.9389C67.1861 19.8295 66.449 18.6113 64.2378 18.6113C62.0086 18.6113 61.2895 19.8295 61.2895 21.9389C61.2895 24.048 62.0086 25.2844 64.2378 25.2844C66.449 25.2844 67.1861 24.048 67.1861 21.9389ZM59.1857 21.8844C59.1857 18.4295 60.606 16.5749 64.2378 16.5749C67.8692 16.5749 69.2898 18.4295 69.2898 21.8844C69.2898 25.3393 67.8692 27.1935 64.2378 27.1935C60.606 27.1935 59.1857 25.3393 59.1857 21.8844Z" fill="#0F0F0F"/>
<path fill-rule="evenodd" clip-rule="evenodd" d="M70.8406 16.9386L72.4765 16.8109L72.6923 17.9749C73.1057 17.284 74.3282 16.7382 76.0361 16.7022V18.8295C73.6271 18.8477 72.9443 19.9931 72.9443 21.7571V26.9935H70.8406V16.9386Z" fill="#0F0F0F"/>
<path fill-rule="evenodd" clip-rule="evenodd" d="M84.5937 21.848C84.5937 19.4658 83.8563 18.5931 81.5555 18.5931C79.3979 18.5931 78.8765 19.8658 78.8765 21.848C78.8765 23.8662 79.3979 25.248 81.5555 25.248C83.7848 25.248 84.5937 24.2662 84.5937 21.848ZM76.7548 21.848C76.7548 18.8295 77.708 16.5931 81.1597 16.5931C83.1735 16.5931 84.126 16.9928 84.5937 17.7022V12.8837H86.6971V26.9026L85.0968 27.0666L84.8634 25.9757C84.2522 26.7757 83.1735 27.1753 81.0878 27.1753C77.69 27.1753 76.7548 24.9026 76.7548 21.848Z" fill="#0F0F0F"/>
<path fill-rule="evenodd" clip-rule="evenodd" d="M94.7381 20.484C96.7156 20.484 97.8126 19.7204 97.8126 17.5931C97.8126 15.4837 96.7519 14.8473 94.6841 14.8473H90.2613V20.484H94.7381ZM88.877 13.52H94.7201C97.8126 13.52 99.2145 14.7749 99.2145 17.5382C99.2145 20.3389 97.8305 21.8113 94.7017 21.8113H90.2613V26.9935H88.877V13.52Z" fill="#0F0F0F"/>
<path fill-rule="evenodd" clip-rule="evenodd" d="M107.198 22.4659V21.7386H106.677C102.362 21.7386 101.301 22.2117 101.301 24.1026C101.301 25.3026 101.841 25.9936 103.674 25.9936C106.173 25.9936 107.198 24.9027 107.198 22.4659ZM99.9886 24.1936C99.9886 21.3386 101.571 20.4841 106.605 20.4841H107.198C107.162 18.775 106.802 18.0114 104.519 18.0114C103.261 18.0114 102.182 18.4659 101.553 18.8837L100.834 17.811C101.481 17.3565 102.973 16.7201 104.627 16.7201C107.971 16.7201 108.51 17.9019 108.51 20.7754V24.5572C108.51 25.6299 108.583 25.7754 109.535 25.7754V26.9754C109.446 27.0117 109.266 27.0117 108.996 27.0117C107.846 27.0117 107.54 26.6481 107.378 25.7572C106.767 26.7026 105.706 27.1754 103.476 27.1754C100.69 27.1754 99.9886 25.8845 99.9886 24.1936Z" fill="#0F0F0F"/>
<path fill-rule="evenodd" clip-rule="evenodd" d="M110.696 26.048L111.415 24.9752C112.584 25.7389 113.861 25.9756 114.903 25.9756C116.701 25.9756 117.528 25.6301 117.528 24.2116C117.528 23.0843 116.809 22.8661 114.903 22.4843C112.602 22.0298 111.164 21.6298 111.164 19.4658C111.164 17.7385 112.171 16.7203 114.903 16.7203C116.396 16.7203 117.618 17.0476 118.535 17.593L117.888 18.7207C117.133 18.3021 116.126 17.993 114.921 17.993C113.052 17.993 112.512 18.5567 112.512 19.4658C112.512 20.5749 113.231 20.8476 114.975 21.193C117.385 21.6843 118.84 22.0112 118.84 24.157C118.84 26.4483 117.582 27.1756 114.831 27.1756C113.519 27.1756 112.045 26.9389 110.696 26.048Z" fill="#0F0F0F"/>
<path fill-rule="evenodd" clip-rule="evenodd" d="M119.778 26.048L120.497 24.9752C121.666 25.7389 122.942 25.9756 123.985 25.9756C125.783 25.9756 126.61 25.6301 126.61 24.2116C126.61 23.0843 125.891 22.8661 123.985 22.4843C121.684 22.0298 120.245 21.6298 120.245 19.4658C120.245 17.7385 121.253 16.7203 123.985 16.7203C125.477 16.7203 126.7 17.0476 127.617 17.593L126.969 18.7207C126.214 18.3021 125.208 17.993 124.003 17.993C122.133 17.993 121.594 18.5567 121.594 19.4658C121.594 20.5749 122.313 20.8476 124.057 21.193C126.466 21.6843 127.922 22.0112 127.922 24.157C127.922 26.4483 126.664 27.1756 123.913 27.1756C122.601 27.1756 121.126 26.9389 119.778 26.048Z" fill="#0F0F0F"/>
<path d="M133.564 13.6582H139.418C140.977 13.6582 142.116 13.9775 142.837 14.6162C143.558 15.2549 143.918 16.2627 143.918 17.6396C143.918 19.0342 143.558 20.0889 142.837 20.8037C142.116 21.5127 140.971 21.8672 139.4 21.8672H134.953V27H133.564V13.6582ZM139.436 20.5576C140.432 20.5576 141.193 20.3438 141.721 19.916C142.248 19.4883 142.512 18.7471 142.512 17.6924C142.512 17.1768 142.444 16.7432 142.31 16.3916C142.181 16.0342 141.984 15.7559 141.721 15.5566C141.457 15.3516 141.129 15.2051 140.736 15.1172C140.35 15.0234 139.898 14.9766 139.383 14.9766H134.953V20.5576H139.436ZM146.08 17.1387L147.161 17.0684L147.302 18.3955C147.495 18.0146 147.885 17.6807 148.471 17.3936C149.057 17.1006 149.812 16.9482 150.738 16.9365V18.3076C150.129 18.3076 149.616 18.3896 149.2 18.5537C148.784 18.7119 148.444 18.9434 148.181 19.248C147.917 19.5469 147.727 19.9014 147.609 20.3115C147.498 20.7158 147.442 21.1582 147.442 21.6387V27H146.08V17.1387ZM156.847 27.2021C155.13 27.2021 153.902 26.7686 153.164 25.9014C152.426 25.0283 152.057 23.7334 152.057 22.0166C152.057 21.1611 152.145 20.4111 152.32 19.7666C152.496 19.1162 152.774 18.5771 153.155 18.1494C153.542 17.7158 154.037 17.3877 154.641 17.165C155.25 16.9424 155.985 16.8311 156.847 16.8311C158.563 16.8311 159.794 17.2705 160.538 18.1494C161.282 19.0225 161.654 20.3115 161.654 22.0166C161.654 23.7334 161.282 25.0283 160.538 25.9014C159.794 26.7686 158.563 27.2021 156.847 27.2021ZM156.847 25.9541C158.095 25.9541 158.977 25.623 159.492 24.9609C160.008 24.293 160.266 23.3232 160.266 22.0518C160.266 20.7803 160.008 19.8076 159.492 19.1338C158.977 18.46 158.095 18.123 156.847 18.123C155.599 18.123 154.717 18.46 154.201 19.1338C153.686 19.8076 153.428 20.7803 153.428 22.0518C153.428 23.3232 153.686 24.293 154.201 24.9609C154.717 25.623 155.599 25.9541 156.847 25.9541Z" fill="black"/>
</svg>
