<svg xmlns="http://www.w3.org/2000/svg" fill="none" viewBox="0 0 128 40"><path fill="#0F0F0F" fill-rule="evenodd" d="M33.218 17.436c-.068.081-.032.16.086.151 1.744-.094 3.313-.139 4.942-.27.284-.025.295-.096.27-.307a4.454 4.454 0 0 1-.023-.652 19.684 19.684 0 0 0-1.179-3.98c-1.59 1.487-2.993 3.119-4.096 5.058zM31.638 19.807c-2.968 4.95-6.138 10.29-9.617 13.863-3.352 3.443-6.197 4.603-9.128 4.824a19.19 19.19 0 0 0 6.523 1.139c10.723 0 19.415-8.791 19.415-19.635 0-.371-.012-.74-.032-1.105a4.907 4.907 0 0 0-.178.007c-1.763.103-4.51.372-6.373.607-.45.057-.517.142-.61.3z" clip-rule="evenodd"/><mask id="a" width="37" height="34" x="0" y="0" maskUnits="userSpaceOnUse"><path fill="#fff" d="M0 33.26V.364h36.182V33.26H0z"/></mask><g mask="url(#a)"><path fill="#0F0F0F" fill-rule="evenodd" d="M5.54 24.989c1.231-1.623 3.316-2.972 5.08-3.302.574-.106 1.346-.038 1.664.346.5.589.357 1.235-.143 1.494-1.346.695-2.966 1.885-3.767 3.51-.65 1.326-.782 2.925.21 4.447 1.663 2.538 6.295 2.607 10.602-1.44 1.066-.99 2.021-1.941 2.991-3.069 1.897-2.193 2.528-2.993 5.05-6.53.03-.04.039-.095.025-.121-.02-.045-.056-.058-.13-.062-1.683.046-3.15.554-4.576 1.632-.411.303-1.002.26-1.261-.138-.288-.45-.082-1.039.392-1.37 2.295-1.614 4.802-1.907 7.362-2.344-.002 0 .178.009.324-.188 1.05-1.364 1.845-2.594 2.964-3.973 1.13-1.4 2.588-2.685 3.702-3.65.052-.046.102-.088.153-.13a19.702 19.702 0 0 0-2.695-3.623c-3.744-.541-7.511-.655-11.168.715-3.891 1.469-5.596 4.59-4.776 6.675.583 1.48 2.508 1.72 4.309.829a9.773 9.773 0 0 0 3.86-3.474c.55-.854 1.707-.238 1.083 1.245-1.645 3.91-4.787 7.01-8.613 7.14-3.257.107-5.358-2.316-5.352-5.305.013-5.896 6.504-9.78 13.325-10.36 1.437-.12 2.86-.148 4.274-.113A19.175 19.175 0 0 0 19.416.364C8.693.364 0 9.154 0 19.998A19.69 19.69 0 0 0 3.69 31.51v-.007c-.233-2.481.46-4.693 1.848-6.514z" clip-rule="evenodd"/></g><path fill="#FEFEFE" fill-rule="evenodd" d="M26.155 3.943c-6.82.58-13.312 4.464-13.325 10.36-.006 2.99 2.095 5.412 5.352 5.306 3.826-.131 6.969-3.232 8.613-7.14.624-1.484-.532-2.1-1.082-1.246a9.775 9.775 0 0 1-3.861 3.474c-1.801.892-3.726.65-4.309-.828-.82-2.086.885-5.207 4.776-6.676 3.657-1.37 7.424-1.256 11.168-.715a19.582 19.582 0 0 0-3.058-2.647 39.349 39.349 0 0 0-4.274.112z" clip-rule="evenodd"/><path fill="#FEFEFE" fill-rule="evenodd" d="M36.029 10.23c-1.114.966-2.573 2.25-3.701 3.65-1.12 1.38-1.914 2.61-2.965 3.974-.146.197-.326.188-.324.188-2.56.437-5.067.73-7.362 2.344-.474.331-.68.919-.392 1.37.259.398.85.44 1.26.138 1.427-1.078 2.894-1.586 4.578-1.633.073.005.108.017.13.063.013.026.004.08-.026.12-2.522 3.538-3.153 4.337-5.05 6.531-.97 1.127-1.924 2.079-2.99 3.07-4.308 4.046-8.94 3.976-10.602 1.439-.993-1.523-.862-3.121-.211-4.448.8-1.624 2.421-2.814 3.767-3.51.5-.258.644-.904.143-1.493-.318-.384-1.09-.452-1.664-.346-1.764.33-3.849 1.679-5.08 3.301-1.388 1.822-2.082 4.034-1.85 6.515l.002.007a19.485 19.485 0 0 0 9.201 6.984c2.93-.22 5.776-1.382 9.128-4.824 3.48-3.574 6.65-8.912 9.617-13.864.093-.158.16-.243.61-.3 1.862-.235 4.61-.503 6.373-.606l.178-.008a19.895 19.895 0 0 0-.306-2.534c-.007.22-.003.439.023.652.025.21.014.282-.27.306-1.629.132-3.198.177-4.942.27-.118.009-.154-.069-.086-.15 1.103-1.94 2.507-3.57 4.096-5.059a19.669 19.669 0 0 0-1.132-2.277l-.153.13z" clip-rule="evenodd"/><path fill="#0F0F0F" fill-rule="evenodd" d="M49.102 13.52h9.133v2.109h-6.957v3.618h6.778v2.091h-6.778v5.655h-2.176V13.52zM67.186 21.939c0-2.11-.737-3.328-2.948-3.328-2.23 0-2.949 1.218-2.949 3.328 0 2.109.72 3.345 2.949 3.345 2.21 0 2.948-1.236 2.948-3.345zm-8-.055c0-3.455 1.42-5.31 5.052-5.31 3.631 0 5.052 1.855 5.052 5.31 0 3.455-1.42 5.31-5.052 5.31-3.632 0-5.052-1.855-5.052-5.31zM70.84 16.938l1.636-.128.216 1.164c.414-.69 1.636-1.236 3.344-1.272v2.127c-2.409.018-3.092 1.164-3.092 2.928v5.236h-2.103V16.938zM84.594 21.848c0-2.383-.738-3.255-3.038-3.255-2.158 0-2.68 1.273-2.68 3.255 0 2.018.522 3.4 2.68 3.4 2.229 0 3.038-.982 3.038-3.4zm-7.84 0c0-3.019.954-5.255 4.406-5.255 2.014 0 2.966.4 3.434 1.109v-4.819h2.103v14.02l-1.6.163-.234-1.09c-.61.8-1.69 1.199-3.775 1.199-3.398 0-4.333-2.273-4.333-5.327zM94.738 20.483c1.978 0 3.075-.763 3.075-2.89 0-2.11-1.061-2.746-3.129-2.746h-4.423v5.636h4.477zm-5.861-6.963h5.843c3.093 0 4.494 1.254 4.494 4.018 0 2.8-1.383 4.273-4.512 4.273h-4.44v5.182h-1.385V13.52zM107.198 22.465v-.727h-.521c-4.315 0-5.376.473-5.376 2.364 0 1.2.54 1.891 2.373 1.891 2.499 0 3.524-1.09 3.524-3.527zm-7.21 1.728c0-2.855 1.583-3.71 6.617-3.71h.593c-.036-1.708-.396-2.472-2.679-2.472-1.258 0-2.337.454-2.966.872l-.719-1.072c.647-.455 2.139-1.091 3.793-1.091 3.344 0 3.883 1.181 3.883 4.055v3.782c0 1.073.073 1.218 1.025 1.218v1.2c-.089.036-.269.036-.539.036-1.15 0-1.456-.363-1.618-1.254-.611.945-1.672 1.418-3.902 1.418-2.786 0-3.487-1.29-3.487-2.982zM110.696 26.047l.719-1.072c1.169.763 2.446 1 3.488 1 1.798 0 2.625-.346 2.625-1.764 0-1.127-.719-1.345-2.625-1.727-2.301-.455-3.739-.855-3.739-3.019 0-1.727 1.007-2.745 3.739-2.745 1.492 0 2.715.327 3.632.873l-.647 1.127c-.755-.418-1.762-.727-2.967-.727-1.869 0-2.409.563-2.409 1.472 0 1.11.719 1.382 2.463 1.727 2.41.492 3.865.819 3.865 2.965 0 2.29-1.258 3.018-4.009 3.018-1.312 0-2.786-.237-4.135-1.128zM119.778 26.047l.719-1.072c1.169.763 2.445 1 3.488 1 1.798 0 2.625-.346 2.625-1.764 0-1.127-.719-1.345-2.625-1.727-2.301-.455-3.74-.855-3.74-3.019 0-1.727 1.008-2.745 3.74-2.745 1.492 0 2.715.327 3.632.873l-.648 1.127c-.755-.418-1.761-.727-2.966-.727-1.87 0-2.409.563-2.409 1.472 0 1.11.719 1.382 2.463 1.727 2.409.492 3.865.819 3.865 2.965 0 2.29-1.258 3.018-4.009 3.018-1.312 0-2.787-.237-4.135-1.128z" clip-rule="evenodd"/></svg>