<svg fill="none" height="49" viewBox="0 0 178 49" width="178" xmlns="http://www.w3.org/2000/svg" xmlns:xlink="http://www.w3.org/1999/xlink"><mask id="a" height="34" maskUnits="userSpaceOnUse" width="37" x="4" y="4"><path d="m4 37.5088v-33.5088h36.1818v33.5088z" fill="#fff"/></mask><path clip-rule="evenodd" d="m37.2177 21.39c-.068.083-.0313.1623.0859.1541 1.7446-.0956 3.3136-.1419 4.9424-.2759.2841-.0245.2948-.0975.2697-.3119-.0252-.2171-.0292-.4401-.0227-.6645-.2567-1.4087-.6518-2.7666-1.1786-4.0545-1.5896 1.5157-2.9932 3.1773-4.0967 5.1527z" fill="#0f0f0f" fill-rule="evenodd"/><path clip-rule="evenodd" d="m35.6382 23.8047c-2.9681 5.0431-6.1379 10.481-9.6172 14.1214-3.3525 3.5066-6.1972 4.6889-9.1283 4.9138 2.0394.7489 4.2341 1.1601 6.523 1.1601 10.7228 0 19.4157-8.9549 19.4157-20.0004 0-.3782-.0122-.7531-.0324-1.1261-.0517.0011-.1085.0037-.1779.0078-1.7626.1045-4.5106.3786-6.3727.6182-.4505.0578-.517.1445-.6102.3052z" fill="#0f0f0f" fill-rule="evenodd"/><g mask="url(#a)"><path clip-rule="evenodd" d="m9.53947 29.0835c1.23183-1.6531 3.31613-3.027 5.08043-3.3629.5742-.1086 1.3458-.0389 1.6644.3522.5005.5997.3563 1.2583-.1435 1.5213-1.3458.7086-2.9659 1.9205-3.767 3.5751-.6504 1.3509-.7817 2.9796.2111 4.5301 1.6622 2.585 6.2943 2.6558 10.6013-1.4664 1.0661-1.0083 2.021-1.9776 2.9911-3.1259 1.897-2.2347 2.528-3.0492 5.0499-6.6525.0302-.0411.0385-.0963.0252-.123-.0209-.0459-.0561-.0585-.1295-.0633-1.6834.0474-3.1511.5649-4.5774 1.6631-.4106.3082-1.0017.2649-1.2606-.1411-.2876-.4589-.0816-1.0579.3926-1.3949 2.2943-1.6443 4.8015-1.9424 7.3611-2.3877-.0018 0 .1784.0089.3247-.1915 1.0506-1.3894 1.8445-2.6428 2.9641-4.0478 1.1287-1.4257 2.5877-2.7347 3.7016-3.7177.0521-.0463.1021-.0889.1528-.133-.7597-1.3368-1.6651-2.5739-2.6945-3.6896-3.7447-.55117-7.5117-.66673-11.168.7278-3.8914 1.4965-5.5967 4.676-4.7762 6.8003.5828 1.5065 2.5075 1.7517 4.3085.8438 1.4961-.7553 2.8796-1.9717 3.8612-3.5389.5497-.8697 1.7064-.2422 1.0819 1.2683-1.6446 3.9822-4.7864 7.1407-8.6131 7.2733-3.2564.1093-5.358-2.3591-5.3512-5.4039.0123-6.0061 6.504-9.962 13.3243-10.55317 1.4371-.1226 2.8598-.15039 4.2747-.11446-3.1299-2.22502-6.9232-3.53107-11.0138-3.53107-10.7229 0-19.41572 8.9542-19.41572 19.9993 0 4.3819 1.37168 8.4315 3.6915 11.7267 0-.0023-.00072-.0049-.00072-.0071-.23263-2.5273.46095-4.7801 1.84881-6.6354z" fill="#0f0f0f" fill-rule="evenodd"/></g><g clip-rule="evenodd" fill-rule="evenodd"><path d="m30.1547 7.64544c-6.8203.59116-13.312 4.54746-13.3242 10.55326-.0069 3.0451 2.0947 5.5131 5.3512 5.4042 3.8267-.133 6.9688-3.2915 8.613-7.2733.6245-1.5105-.5321-2.1384-1.0819-1.2683-.9812 1.5668-2.3651 2.7832-3.8612 3.5389-1.801.9078-3.7257.6626-4.3085-.8442-.8205-2.1243.8849-5.3038 4.7763-6.7999 3.6562-1.39493 7.4233-1.27899 11.168-.7282-.9255-1.00306-1.9491-1.90796-3.058-2.69655-1.4148-.03593-2.8376-.00852-4.2747.11409z" fill="#fefefe"/><path d="m40.029 14.0505c-1.1139.9834-2.573 2.292-3.7012 3.7181-1.12 1.4049-1.9139 2.6584-2.9645 4.0474-.1464.2008-.3265.1915-.3243.1915-2.56.4456-5.0672.7434-7.3615 2.3876-.4742.3375-.6802.936-.3926 1.395.2589.4063.85.4497 1.2609.1415 1.426-1.0986 2.8937-1.6157 4.5771-1.6635.0734.0048.1086.0174.1295.0637.0133.0263.005.0815-.0252.1226-2.5219 3.6037-3.1529 4.4178-5.0495 6.6525-.9705 1.1482-1.9251 2.1176-2.9915 3.1262-4.3071 4.1222-8.9391 4.0511-10.6013 1.4664-.9928-1.5509-.8615-3.1792-.2111-4.5304.8011-1.6546 2.4212-2.8666 3.7674-3.5748.4994-.2633.6439-.9215.1431-1.5212-.3186-.3915-1.0902-.4608-1.6644-.3523-1.7643.3356-3.8486 1.7094-5.08044 3.3626-1.38786 1.8557-2.08144 4.1081-1.84881 6.6358.00036.0018.00072.0044.00108.0066 2.27991 3.2385 5.47707 5.7454 9.20127 7.114 2.9307-.2244 5.7755-1.4071 9.1283-4.9138 3.4793-3.6403 6.6488-9.0779 9.6169-14.1213.0931-.1608.1596-.2474.6101-.3052 1.8621-.2397 4.6105-.5134 6.3727-.6182.0694-.0037.1262-.0063.1783-.0078-.0474-.8771-.1528-1.7383-.3063-2.5817-.0065.2244-.0025.4474.0226.6645.0252.2145.0144.2874-.2696.3119-1.6288.1341-3.1979.1804-4.9424.2756-.1172.0085-.1539-.0708-.0859-.1538 1.1034-1.9753 2.5071-3.637 4.0967-5.1527-.3283-.8019-.7098-1.5749-1.1326-2.3195-.0507.0441-.1007.0864-.1528.1327z" fill="#fefefe"/><path d="m71.1861 25.9767c0-2.1488-.7371-3.3896-2.9483-3.3896-2.2292 0-2.9483 1.2408-2.9483 3.3896 0 2.1483.7191 3.4077 2.9483 3.4077 2.2112 0 2.9483-1.2594 2.9483-3.4077zm-8.0004-.0556c0-3.5192 1.4203-5.4083 5.0521-5.4083 3.6314 0 5.052 1.8891 5.052 5.4083s-1.4206 5.4079-5.052 5.4079c-3.6318 0-5.0521-1.8887-5.0521-5.4079z" fill="#0f0f0f"/><path d="m74.8406 20.8832 1.6359-.13.2158 1.1857c.4134-.7038 1.6359-1.2598 3.3438-1.2964v2.1668c-2.409.0185-3.0918 1.1853-3.0918 2.9822v5.3338h-2.1037z" fill="#0f0f0f"/><path d="m88.5937 25.884c0-2.4265-.7374-3.3155-3.0382-3.3155-2.1576 0-2.679 1.2965-2.679 3.3155 0 2.0558.5214 3.4633 2.679 3.4633 2.2293 0 3.0382-1.0001 3.0382-3.4633zm-7.8389 0c0-3.0747.9532-5.3527 4.4049-5.3527 2.0138 0 2.9663.4071 3.434 1.1297v-4.9082h2.1034v14.2799l-1.6003.167-.2334-1.1112c-.6112.8149-1.6899 1.222-3.7756 1.222-3.3978 0-4.333-2.3151-4.333-5.4265z" fill="#0f0f0f"/><path d="m98.7381 24.4946c1.9779 0 3.0749-.7778 3.0749-2.9447 0-2.1487-1.061-2.7969-3.1289-2.7969h-4.4228v5.7416zm-5.8611-7.0936h5.8431c3.0929 0 4.4939 1.2783 4.4939 4.093 0 2.8528-1.383 4.3526-4.5123 4.3526h-4.4404v5.2787h-1.3843z" fill="#0f0f0f"/><path d="m111.198 26.5134v-.7408h-.521c-4.315 0-5.376.4819-5.376 2.408 0 1.2224.54 1.9261 2.373 1.9261 2.499 0 3.524-1.1112 3.524-3.5933zm-7.209 1.7598c0-2.908 1.582-3.7785 6.616-3.7785h.593c-.036-1.7409-.396-2.5187-2.679-2.5187-1.258 0-2.337.463-2.966.8886l-.719-1.0927c.647-.463 2.139-1.1113 3.793-1.1113 3.344 0 3.883 1.2039 3.883 4.1308v3.8522c0 1.0927.073 1.2409 1.025 1.2409v1.2223c-.089.0371-.269.0371-.539.0371-1.15 0-1.456-.3704-1.618-1.2779-.611.963-1.672 1.4445-3.902 1.4445-2.786 0-3.487-1.3149-3.487-3.0373z" fill="#0f0f0f"/><path d="m114.696 30.1622.719-1.0927c1.169.7778 2.446 1.0189 3.488 1.0189 1.798 0 2.625-.3518 2.625-1.7968 0-1.1482-.719-1.3705-2.625-1.7594-2.301-.463-3.739-.8705-3.739-3.0748 0-1.7594 1.007-2.7965 3.739-2.7965 1.493 0 2.715.3334 3.632.889l-.647 1.1486c-.755-.4263-1.762-.7412-2.967-.7412-1.869 0-2.409.5741-2.409 1.5001 0 1.1298.719 1.4076 2.463 1.7595 2.41.5004 3.865.8334 3.865 3.0192 0 2.3339-1.258 3.0747-4.009 3.0747-1.312 0-2.786-.2411-4.135-1.1486z" fill="#0f0f0f"/><path d="m123.778 30.1622.719-1.0927c1.169.7778 2.445 1.0189 3.488 1.0189 1.798 0 2.625-.3518 2.625-1.7968 0-1.1482-.719-1.3705-2.625-1.7594-2.301-.463-3.74-.8705-3.74-3.0748 0-1.7594 1.008-2.7965 3.74-2.7965 1.492 0 2.715.3334 3.632.889l-.648 1.1486c-.755-.4263-1.761-.7412-2.966-.7412-1.87 0-2.409.5741-2.409 1.5001 0 1.1298.719 1.4076 2.463 1.7595 2.409.5004 3.865.8334 3.865 3.0192 0 2.3339-1.258 3.0747-4.009 3.0747-1.312 0-2.787-.2411-4.135-1.1486z" fill="#0f0f0f"/></g><path d="m137.564 17.4736h5.854c1.559 0 2.698.3194 3.419.958.721.6387 1.081 1.6465 1.081 3.0235 0 1.3945-.36 2.4492-1.081 3.164-.721.709-1.866 1.0635-3.437 1.0635h-4.447v5.1328h-1.389zm5.872 6.8994c.996 0 1.757-.2138 2.285-.6416.527-.4277.791-1.1689.791-2.2236 0-.5156-.068-.9492-.202-1.3008-.129-.3574-.326-.6357-.589-.8349-.264-.2051-.592-.3516-.985-.4395-.386-.0937-.838-.1406-1.353-.1406h-4.43v5.581zm6.644-3.4189 1.081-.0703.141 1.3271c.193-.3808.583-.7148 1.169-1.0019.586-.293 1.341-.4453 2.267-.457v1.371c-.609 0-1.122.0821-1.538.2461-.416.1582-.756.3897-1.019.6944-.264.2988-.454.6533-.572 1.0635-.111.4042-.167.8466-.167 1.3271v5.3613h-1.362zm10.767 10.0635c-1.717 0-2.945-.4336-3.683-1.3008-.738-.873-1.107-2.168-1.107-3.8848 0-.8554.088-1.6054.263-2.25.176-.6504.454-1.1894.835-1.6172.387-.4336.882-.7617 1.486-.9843.609-.2227 1.344-.334 2.206-.334 1.716 0 2.947.4394 3.691 1.3183.744.8731 1.116 2.1622 1.116 3.8672 0 1.7168-.372 3.0118-1.116 3.8848-.744.8672-1.975 1.3008-3.691 1.3008zm0-1.2481c1.248 0 2.13-.331 2.645-.9931.516-.668.774-1.6377.774-2.9092s-.258-2.2442-.774-2.918c-.515-.6738-1.397-1.0107-2.645-1.0107s-2.13.3369-2.646 1.0107c-.515.6738-.773 1.6465-.773 2.918s.258 2.2412.773 2.9092c.516.6621 1.398.9931 2.646.9931z" fill="#000"/><path clip-rule="evenodd" d="m53.1024 17.4009h9.1329v2.1487h-6.9577v3.6855h6.7779v2.1302h-6.7779v5.7602h-2.1752z" fill="#0f0f0f" fill-rule="evenodd"/></svg>