<svg xmlns="http://www.w3.org/2000/svg" fill="none" viewBox="0 0 178 49"><path fill="#0F0F0F" fill-rule="evenodd" d="M37.218 21.39c-.068.083-.032.162.086.154 1.744-.096 3.313-.142 4.942-.276.284-.024.295-.097.27-.312a4.62 4.62 0 0 1-.023-.664 20.33 20.33 0 0 0-1.179-4.055c-1.59 1.516-2.993 3.178-4.096 5.153zM35.638 23.805c-2.968 5.043-6.138 10.48-9.617 14.121-3.352 3.507-6.197 4.689-9.128 4.914 2.04.749 4.234 1.16 6.523 1.16 10.723 0 19.415-8.955 19.415-20 0-.379-.012-.753-.032-1.127a4.73 4.73 0 0 0-.178.008c-1.763.105-4.51.379-6.373.619-.45.057-.517.144-.61.305z" clip-rule="evenodd"/><mask id="a" width="37" height="34" x="4" y="4" maskUnits="userSpaceOnUse"><path fill="#fff" d="M4 37.509V4h36.182v33.509H4z"/></mask><g mask="url(#a)"><path fill="#0F0F0F" fill-rule="evenodd" d="M9.54 29.084c1.231-1.654 3.316-3.027 5.08-3.363.574-.109 1.346-.04 1.664.352.5.6.357 1.258-.143 1.521-1.346.709-2.966 1.92-3.767 3.575-.65 1.351-.782 2.98.21 4.53 1.663 2.585 6.295 2.656 10.602-1.466 1.066-1.008 2.021-1.978 2.991-3.126 1.897-2.235 2.528-3.05 5.05-6.652.03-.042.039-.097.025-.123-.02-.046-.056-.059-.13-.064-1.683.048-3.15.565-4.576 1.663-.411.308-1.002.265-1.261-.14-.288-.46-.082-1.059.392-1.396 2.295-1.644 4.802-1.942 7.362-2.387-.002 0 .178.009.324-.192 1.05-1.39 1.845-2.643 2.964-4.048 1.13-1.425 2.588-2.734 3.702-3.717.052-.047.102-.09.153-.133a20.047 20.047 0 0 0-2.695-3.69c-3.744-.551-7.511-.667-11.168.728-3.891 1.496-5.596 4.676-4.776 6.8.583 1.507 2.508 1.752 4.309.844a9.836 9.836 0 0 0 3.86-3.539c.55-.87 1.707-.242 1.083 1.268-1.645 3.982-4.787 7.141-8.613 7.274-3.257.109-5.358-2.36-5.352-5.404.013-6.006 6.504-9.962 13.325-10.553 1.437-.123 2.86-.15 4.274-.115A18.935 18.935 0 0 0 23.416 4C12.693 4 4 12.954 4 24A20.31 20.31 0 0 0 7.69 35.725v-.007c-.233-2.527.46-4.78 1.848-6.636z" clip-rule="evenodd"/></g><path fill="#FEFEFE" fill-rule="evenodd" d="M30.155 7.645c-6.82.592-13.312 4.548-13.325 10.554-.006 3.045 2.095 5.513 5.352 5.404 3.826-.133 6.969-3.292 8.613-7.273.624-1.51-.532-2.139-1.082-1.269a9.84 9.84 0 0 1-3.861 3.54c-1.801.907-3.726.662-4.309-.845-.82-2.124.885-5.304 4.776-6.8 3.657-1.395 7.424-1.279 11.168-.728A19.69 19.69 0 0 0 34.43 7.53a38.634 38.634 0 0 0-4.274.114z" clip-rule="evenodd"/><path fill="#FEFEFE" fill-rule="evenodd" d="M40.029 14.05c-1.114.984-2.573 2.293-3.701 3.719-1.12 1.405-1.914 2.658-2.965 4.047-.146.2-.326.192-.324.192-2.56.445-5.067.743-7.362 2.387-.474.338-.68.936-.392 1.395.259.406.85.45 1.26.142 1.427-1.099 2.894-1.616 4.578-1.664.073.005.108.017.13.064.013.026.004.081-.026.122-2.522 3.604-3.153 4.418-5.05 6.653-.97 1.148-1.924 2.117-2.99 3.126-4.308 4.122-8.94 4.051-10.602 1.467-.993-1.551-.862-3.18-.211-4.53.8-1.655 2.421-2.868 3.767-3.576.5-.263.644-.921.143-1.52-.318-.393-1.09-.462-1.664-.353-1.764.335-3.849 1.71-5.08 3.362-1.388 1.856-2.082 4.108-1.85 6.636l.002.007c2.28 3.238 5.477 5.745 9.201 7.114 2.93-.225 5.776-1.407 9.128-4.914 3.48-3.64 6.65-9.078 9.617-14.121.093-.161.16-.248.61-.305 1.862-.24 4.61-.514 6.373-.619l.178-.008a20.627 20.627 0 0 0-.306-2.581c-.007.224-.003.447.023.664.025.215.014.288-.27.312-1.629.134-3.198.18-4.942.276-.118.008-.154-.071-.086-.154 1.103-1.975 2.507-3.637 4.096-5.153a20.2 20.2 0 0 0-1.132-2.32c-.05.045-.1.087-.153.133z" clip-rule="evenodd"/><path fill="#0F0F0F" fill-rule="evenodd" d="M71.186 25.977c0-2.15-.737-3.39-2.948-3.39-2.23 0-2.948 1.24-2.948 3.39 0 2.148.719 3.407 2.948 3.407 2.211 0 2.948-1.259 2.948-3.407zm-8-.056c0-3.52 1.42-5.408 5.052-5.408 3.631 0 5.052 1.889 5.052 5.408 0 3.52-1.42 5.408-5.052 5.408-3.632 0-5.052-1.889-5.052-5.408zM74.84 20.883l1.636-.13.216 1.186c.414-.704 1.636-1.26 3.344-1.297v2.167c-2.409.019-3.092 1.186-3.092 2.982v5.334h-2.103V20.883zM88.594 25.884c0-2.427-.738-3.316-3.038-3.316-2.158 0-2.68 1.297-2.68 3.316 0 2.056.522 3.463 2.68 3.463 2.229 0 3.038-1 3.038-3.463zm-7.84 0c0-3.075.954-5.353 4.406-5.353 2.014 0 2.966.407 3.434 1.13v-4.908h2.103v14.28l-1.6.167-.234-1.111c-.61.814-1.69 1.222-3.775 1.222-3.398 0-4.333-2.316-4.333-5.427zM98.738 24.495c1.978 0 3.075-.778 3.075-2.945 0-2.149-1.061-2.797-3.129-2.797h-4.423v5.742h4.477zM92.877 17.4h5.843c3.093 0 4.494 1.278 4.494 4.093 0 2.853-1.383 4.353-4.512 4.353h-4.44v5.278h-1.385V17.401zM111.198 26.513v-.74h-.521c-4.315 0-5.376.482-5.376 2.408 0 1.222.54 1.926 2.373 1.926 2.499 0 3.524-1.111 3.524-3.594zm-7.209 1.76c0-2.908 1.582-3.778 6.616-3.778h.593c-.036-1.741-.396-2.519-2.679-2.519a5.472 5.472 0 0 0-2.966.889l-.719-1.093c.647-.463 2.139-1.111 3.793-1.111 3.344 0 3.883 1.203 3.883 4.13v3.853c0 1.092.073 1.24 1.025 1.24v1.223c-.089.037-.269.037-.539.037-1.15 0-1.456-.37-1.618-1.278-.611.963-1.672 1.445-3.902 1.445-2.786 0-3.487-1.315-3.487-3.038zM114.696 30.162l.719-1.092c1.169.777 2.446 1.018 3.488 1.018 1.798 0 2.625-.351 2.625-1.796 0-1.149-.719-1.37-2.625-1.76-2.301-.463-3.739-.87-3.739-3.075 0-1.759 1.007-2.796 3.739-2.796 1.493 0 2.715.333 3.632.889l-.647 1.148c-.755-.426-1.762-.74-2.967-.74-1.869 0-2.409.573-2.409 1.5 0 1.13.719 1.407 2.463 1.759 2.41.5 3.865.833 3.865 3.02 0 2.333-1.258 3.074-4.009 3.074-1.312 0-2.786-.241-4.135-1.149zM123.778 30.162l.719-1.092c1.169.777 2.445 1.018 3.488 1.018 1.798 0 2.625-.351 2.625-1.796 0-1.149-.719-1.37-2.625-1.76-2.301-.463-3.74-.87-3.74-3.075 0-1.759 1.008-2.796 3.74-2.796 1.492 0 2.715.333 3.632.889l-.648 1.148c-.755-.426-1.761-.74-2.966-.74-1.87 0-2.409.573-2.409 1.5 0 1.13.719 1.407 2.463 1.759 2.409.5 3.865.833 3.865 3.02 0 2.333-1.258 3.074-4.009 3.074-1.312 0-2.787-.241-4.135-1.149z" clip-rule="evenodd"/><path fill="#000" d="M137.564 17.474h5.854c1.559 0 2.698.319 3.419.958.721.638 1.081 1.646 1.081 3.023 0 1.395-.36 2.45-1.081 3.164-.721.71-1.866 1.064-3.437 1.064h-4.447v5.132h-1.389V17.474zm5.872 6.899c.996 0 1.757-.214 2.285-.642.527-.427.791-1.169.791-2.223 0-.516-.068-.95-.202-1.301a1.77 1.77 0 0 0-.589-.835 2.454 2.454 0 0 0-.985-.44 5.785 5.785 0 0 0-1.353-.14h-4.43v5.581h4.483zm6.644-3.419l1.081-.07.141 1.327c.193-.38.583-.715 1.169-1.002.586-.293 1.341-.445 2.267-.457v1.371c-.609 0-1.122.082-1.538.246-.416.158-.756.39-1.019.695a2.713 2.713 0 0 0-.572 1.063 5 5 0 0 0-.167 1.327v5.361h-1.362v-9.86zm10.767 10.064c-1.717 0-2.945-.434-3.683-1.301-.738-.873-1.107-2.168-1.107-3.885 0-.855.088-1.605.263-2.25.176-.65.454-1.19.835-1.617.387-.434.882-.762 1.486-.985.609-.222 1.344-.334 2.206-.334 1.716 0 2.947.44 3.691 1.319.744.873 1.116 2.162 1.116 3.867 0 1.717-.372 3.012-1.116 3.885-.744.867-1.975 1.3-3.691 1.3zm0-1.248c1.248 0 2.13-.331 2.645-.994.516-.668.774-1.637.774-2.909 0-1.271-.258-2.244-.774-2.918-.515-.674-1.397-1.01-2.645-1.01s-2.13.336-2.646 1.01c-.515.674-.773 1.647-.773 2.918 0 1.272.258 2.241.773 2.91.516.662 1.398.992 2.646.992z"/><path fill="#0F0F0F" fill-rule="evenodd" d="M53.102 17.4h9.133v2.15h-6.957v3.685h6.778v2.13h-6.778v5.76h-2.176V17.401z" clip-rule="evenodd"/></svg>