<svg width="164" height="40" viewBox="0 0 164 40" fill="none" xmlns="http://www.w3.org/2000/svg">
<path fill-rule="evenodd" clip-rule="evenodd" d="M33.4775 17.5947C33.4097 17.6769 33.4463 17.7554 33.5632 17.747C35.3028 17.6527 36.8675 17.6064 38.4917 17.474C38.775 17.4497 38.7857 17.3775 38.7606 17.165C38.7355 16.9499 38.7316 16.729 38.738 16.5066C38.4824 15.111 38.0884 13.7657 37.5627 12.4897C35.9776 13.9914 34.5779 15.6376 33.4775 17.5947Z" fill="black"/>
<path fill-rule="evenodd" clip-rule="evenodd" d="M32.5108 19.6846C32.0616 19.7419 31.9952 19.8278 31.9024 19.9874C28.9426 24.9834 25.782 30.3709 22.3121 33.9778C18.969 37.4516 16.1322 38.6234 13.2097 38.8457C15.243 39.5878 17.4319 39.9951 19.7141 39.9951C30.4069 39.9951 39.0754 31.1232 39.0754 20.18C39.0754 19.8054 39.0632 19.434 39.0431 19.0645C38.9915 19.0659 38.9348 19.0681 38.8656 19.0722C37.1081 19.176 34.3677 19.4472 32.5108 19.6846Z" fill="black"/>
<path fill-rule="evenodd" clip-rule="evenodd" d="M5.87686 25.2167C7.10523 23.5789 9.18371 22.2178 10.9431 21.8854C11.5157 21.7778 12.2851 21.8465 12.6028 22.234C13.1019 22.8285 12.9581 23.481 12.4601 23.7415C11.1177 24.4432 9.50209 25.6439 8.70326 27.2832C8.05465 28.6219 7.92379 30.2351 8.91372 31.7712C10.5713 34.3323 15.1904 34.4028 19.4854 30.3184C20.5488 29.3195 21.5007 28.3591 22.4681 27.2215C24.3598 25.0076 24.9894 24.201 27.5038 20.6307C27.534 20.5899 27.5422 20.5353 27.5289 20.5092C27.5081 20.4633 27.473 20.4509 27.3999 20.4461C25.7212 20.4934 24.2576 21.0057 22.8356 22.0942C22.4258 22.3991 21.8363 22.3562 21.5782 21.954C21.2914 21.4993 21.4968 20.9063 21.9697 20.572C24.2576 18.943 26.7577 18.6476 29.3102 18.2065C29.3084 18.2065 29.488 18.2156 29.6339 18.0167C30.6816 16.6406 31.4733 15.3984 32.5898 14.0065C33.7152 12.594 35.1702 11.2975 36.281 10.3232C36.333 10.2773 36.3825 10.2354 36.4334 10.1918C35.6761 8.86701 34.773 7.64132 33.7464 6.536C30.0126 5.99031 26.2561 5.87545 22.6097 7.2571C18.7292 8.73967 17.0286 11.8898 17.8468 13.9943C18.4284 15.4872 20.3473 15.7301 22.1433 14.8307C23.6352 14.0821 25.0152 12.8769 25.994 11.3243C26.5419 10.4626 27.6953 11.0843 27.0725 12.5811C25.4329 16.5261 22.2996 19.6553 18.4836 19.787C15.2363 19.8949 13.1406 17.4498 13.1478 14.4329C13.1596 8.48279 19.6331 4.56315 26.4343 3.97747C27.867 3.85636 29.2862 3.82884 30.697 3.86444C27.5759 1.65967 23.7936 0.365723 19.7141 0.365723C9.02129 0.365723 0.352783 9.23692 0.352783 20.18C0.352783 24.521 1.72063 28.5331 4.03431 31.7976C4.03395 31.7954 4.03323 31.7932 4.03323 31.7907C3.80125 29.2868 4.49288 27.0553 5.87686 25.2167Z" fill="black"/>
<path fill-rule="evenodd" clip-rule="evenodd" d="M26.4343 3.97756C19.6331 4.56325 13.1596 8.48288 13.1477 14.433C13.1406 17.4499 15.2363 19.895 18.4836 19.7871C22.2996 19.6554 25.4329 16.5262 27.0725 12.5812C27.6953 11.0843 26.5418 10.4627 25.994 11.3243C25.0152 12.877 23.6351 14.0821 22.1432 14.8308C20.3473 15.7302 18.4284 15.4873 17.8468 13.9944C17.0286 11.8899 18.7292 8.73976 22.6097 7.25719C26.2561 5.87554 30.0125 5.9904 33.7464 6.53609C32.8235 5.54233 31.8028 4.64545 30.697 3.86453C29.2861 3.82894 27.867 3.85646 26.4343 3.97756Z" fill="#FFFFFE"/>
<path fill-rule="evenodd" clip-rule="evenodd" d="M36.2809 10.3233C35.1702 11.2976 33.7152 12.5941 32.5897 14.0066C31.4732 15.3985 30.6816 16.6407 29.6339 18.0168C29.488 18.2157 29.3083 18.2066 29.3101 18.2066C26.7577 18.6477 24.2575 18.9431 21.9697 20.5721C21.4968 20.9064 21.2913 21.4994 21.5781 21.9541C21.8363 22.3563 22.4257 22.3992 22.8356 22.0943C24.2575 21.0058 25.7211 20.4935 27.3998 20.4462C27.473 20.451 27.5081 20.4635 27.5289 20.5093C27.5422 20.5354 27.5339 20.5901 27.5038 20.6308C24.9893 24.2011 24.3597 25.0077 22.4681 27.2216C21.5007 28.3592 20.5488 29.3196 19.4853 30.3185C15.1903 34.4029 10.5712 34.3324 8.91367 31.7713C7.92374 30.2352 8.0546 28.622 8.70321 27.2833C9.50204 25.644 11.1176 24.4433 12.46 23.7416C12.958 23.4811 13.1018 22.8286 12.6027 22.2341C12.2851 21.8466 11.5156 21.7779 10.943 21.8855C9.18366 22.2179 7.10518 23.5791 5.87681 25.2168C4.49283 27.0554 3.8012 29.2869 4.03318 31.7908C4.03318 31.7934 4.0339 31.7956 4.03426 31.7978C6.30778 35.0062 9.49595 37.4899 13.2097 38.8458C16.1322 38.6235 18.969 37.4517 22.3121 33.9779C25.7821 30.371 28.9426 24.9835 31.9024 19.9875C31.9953 19.8279 32.0616 19.742 32.5109 19.6847C34.3677 19.4473 37.1081 19.1761 38.8657 19.0723C38.9349 19.0682 38.9915 19.066 39.0432 19.0646C38.9962 18.1956 38.8911 17.3424 38.738 16.5068C38.7316 16.7291 38.7355 16.9501 38.7606 17.1651C38.7857 17.3776 38.775 17.4499 38.4917 17.4741C36.8675 17.6066 35.3028 17.6528 33.5632 17.7471C33.4463 17.7556 33.4097 17.677 33.4775 17.5948C34.5779 15.6378 35.9776 13.9915 37.5627 12.4899C37.2354 11.6954 36.855 10.9295 36.4333 10.1919C36.3824 10.2356 36.3329 10.2774 36.2809 10.3233Z" fill="#FFFFFE"/>
<path fill-rule="evenodd" clip-rule="evenodd" d="M49.3176 13.6426H58.425V15.7714H51.4872V19.4228H58.2457V21.5332H51.4872V27.24H49.3176V13.6426Z" fill="black"/>
<path fill-rule="evenodd" clip-rule="evenodd" d="M67.351 22.1393C67.351 20.0105 66.616 18.7808 64.4109 18.7808C62.1876 18.7808 61.4705 20.0105 61.4705 22.1393C61.4705 24.2674 62.1876 25.5154 64.4109 25.5154C66.616 25.5154 67.351 24.2674 67.351 22.1393ZM59.373 22.0839C59.373 18.5973 60.7893 16.7261 64.4109 16.7261C68.0322 16.7261 69.4485 18.5973 69.4485 22.0839C69.4485 25.5705 68.0322 27.442 64.4109 27.442C60.7893 27.442 59.373 25.5705 59.373 22.0839Z" fill="black"/>
<path fill-rule="evenodd" clip-rule="evenodd" d="M70.9951 17.0929L72.6265 16.9641L72.8416 18.1384C73.2539 17.4415 74.473 16.8907 76.1761 16.854V19.0012C73.7738 19.0195 73.0926 20.1755 73.0926 21.9557V27.2401H70.9951V17.0929Z" fill="black"/>
<path fill-rule="evenodd" clip-rule="evenodd" d="M84.7098 22.0475C84.7098 19.6434 83.9744 18.7623 81.6801 18.7623C79.5285 18.7623 79.0082 20.0467 79.0082 22.0475C79.0082 24.0838 79.5285 25.4783 81.6801 25.4783C83.9031 25.4783 84.7098 24.4878 84.7098 22.0475ZM76.8928 22.0475C76.8928 19.0012 77.843 16.744 81.2853 16.744C83.2935 16.744 84.2433 17.1476 84.7098 17.8632V13.0005H86.8069V27.1484L85.2114 27.3135L84.9787 26.2126C84.3692 27.0199 83.2935 27.4236 81.2136 27.4236C77.8254 27.4236 76.8928 25.13 76.8928 22.0475Z" fill="black"/>
<path fill-rule="evenodd" clip-rule="evenodd" d="M94.8258 20.6708C96.7978 20.6708 97.8914 19.9002 97.8914 17.753C97.8914 15.6246 96.8337 14.9824 94.7717 14.9824H90.3612V20.6708H94.8258ZM88.9812 13.6426H94.8079C97.8914 13.6426 99.2897 14.909 99.2897 17.698C99.2897 20.524 97.9093 22.0103 94.7896 22.0103H90.3612V27.24H88.9812V13.6426Z" fill="black"/>
<path fill-rule="evenodd" clip-rule="evenodd" d="M107.251 22.6706V21.9367H106.731C102.428 21.9367 101.371 22.4141 101.371 24.3223C101.371 25.5334 101.908 26.2306 103.737 26.2306C106.229 26.2306 107.251 25.1297 107.251 22.6706ZM100.062 24.4141C100.062 21.533 101.639 20.6706 106.659 20.6706H107.251C107.215 18.9455 106.856 18.1752 104.58 18.1752C103.325 18.1752 102.249 18.6339 101.622 19.0556L100.904 17.973C101.55 17.5143 103.038 16.8721 104.687 16.8721C108.022 16.8721 108.559 18.0647 108.559 20.9642V24.7811C108.559 25.8636 108.631 26.0101 109.582 26.0101V27.2214C109.492 27.2581 109.313 27.2581 109.044 27.2581C107.896 27.2581 107.591 26.8912 107.43 25.9921C106.821 26.9462 105.763 27.4233 103.539 27.4233C100.761 27.4233 100.062 26.1205 100.062 24.4141Z" fill="black"/>
<path fill-rule="evenodd" clip-rule="evenodd" d="M110.739 26.2853L111.456 25.2027C112.621 25.9737 113.895 26.2123 114.935 26.2123C116.727 26.2123 117.552 25.8636 117.552 24.4324C117.552 23.2945 116.835 23.0743 114.935 22.6893C112.64 22.2306 111.205 21.8266 111.205 19.6431C111.205 17.9 112.209 16.8721 114.935 16.8721C116.422 16.8721 117.641 17.2023 118.556 17.7528L117.91 18.8908C117.158 18.4688 116.153 18.1565 114.952 18.1565C113.088 18.1565 112.55 18.7256 112.55 19.6431C112.55 20.7623 113.267 21.0376 115.006 21.3862C117.409 21.8816 118.861 22.2119 118.861 24.377C118.861 26.6893 117.606 27.4233 114.863 27.4233C113.554 27.4233 112.084 27.1847 110.739 26.2853Z" fill="black"/>
<path fill-rule="evenodd" clip-rule="evenodd" d="M119.795 26.2853L120.512 25.2027C121.678 25.9737 122.951 26.2123 123.991 26.2123C125.783 26.2123 126.608 25.8636 126.608 24.4324C126.608 23.2945 125.891 23.0743 123.991 22.6893C121.696 22.2306 120.262 21.8266 120.262 19.6431C120.262 17.9 121.266 16.8721 123.991 16.8721C125.479 16.8721 126.698 17.2023 127.612 17.7528L126.967 18.8908C126.214 18.4688 125.21 18.1565 124.009 18.1565C122.144 18.1565 121.606 18.7256 121.606 19.6431C121.606 20.7623 122.324 21.0376 124.062 21.3862C126.465 21.8816 127.917 22.2119 127.917 24.377C127.917 26.6893 126.662 27.4233 123.919 27.4233C122.61 27.4233 121.14 27.1847 119.795 26.2853Z" fill="black"/>
<path d="M131.738 13.1758H138.242C139.974 13.1758 141.24 13.5306 142.041 14.2402C142.842 14.9499 143.242 16.0697 143.242 17.5996C143.242 19.1491 142.842 20.321 142.041 21.1152C141.24 21.903 139.967 22.2969 138.223 22.2969H133.281V28H131.738V13.1758ZM138.262 20.8418C139.368 20.8418 140.215 20.6042 140.801 20.1289C141.387 19.6536 141.68 18.8301 141.68 17.6582C141.68 17.0853 141.605 16.6035 141.455 16.2129C141.312 15.8158 141.094 15.5065 140.801 15.2852C140.508 15.0573 140.143 14.8945 139.707 14.7969C139.277 14.6927 138.776 14.6406 138.203 14.6406H133.281V20.8418H138.262ZM145.645 17.043L146.846 16.9648L147.002 18.4395C147.217 18.0163 147.65 17.6452 148.301 17.3262C148.952 17.0007 149.792 16.8314 150.82 16.8184V18.3418C150.143 18.3418 149.574 18.4329 149.111 18.6152C148.649 18.791 148.271 19.0482 147.979 19.3867C147.686 19.7188 147.474 20.1126 147.344 20.5684C147.22 21.0176 147.158 21.5091 147.158 22.043V28H145.645V17.043ZM157.607 28.2246C155.7 28.2246 154.336 27.7428 153.516 26.7793C152.695 25.8092 152.285 24.3704 152.285 22.4629C152.285 21.5124 152.383 20.679 152.578 19.9629C152.773 19.2402 153.083 18.6413 153.506 18.166C153.936 17.6842 154.486 17.3197 155.156 17.0723C155.833 16.8249 156.65 16.7012 157.607 16.7012C159.515 16.7012 160.882 17.1895 161.709 18.166C162.536 19.1361 162.949 20.5684 162.949 22.4629C162.949 24.3704 162.536 25.8092 161.709 26.7793C160.882 27.7428 159.515 28.2246 157.607 28.2246ZM157.607 26.8379C158.994 26.8379 159.974 26.4701 160.547 25.7344C161.12 24.9922 161.406 23.9147 161.406 22.502C161.406 21.0892 161.12 20.0085 160.547 19.2598C159.974 18.5111 158.994 18.1367 157.607 18.1367C156.221 18.1367 155.241 18.5111 154.668 19.2598C154.095 20.0085 153.809 21.0892 153.809 22.502C153.809 23.9147 154.095 24.9922 154.668 25.7344C155.241 26.4701 156.221 26.8379 157.607 26.8379Z" fill="black"/>
</svg>
