<svg fill="none" height="49" viewBox="0 0 178 49" width="178" xmlns="http://www.w3.org/2000/svg"><path d="m7.888 30.036c.54 0 1.044-.036 1.242-.072v-2.07h-.36c-.882 0-1.044-.27-1.044-1.116v-10.746h-2.43v11.034c0 2.25.828 2.97 2.592 2.97zm6.0737.144c1.998 0 3.114-.45 3.672-1.188.324.828.81 1.044 1.854 1.044.54 0 .864-.018 1.026-.072v-2.052c-.846 0-.918-.144-.918-1.008v-3.24c0-2.862-.702-4.032-4.284-4.032-2.016 0-3.744.72-4.446 1.206l1.242 1.854c.63-.378 1.692-.846 2.934-.846 1.89 0 2.16.522 2.196 1.584h-.468c-4.734 0-6.552.756-6.552 3.618 0 1.746.684 3.132 3.744 3.132zm.468-2.052c-1.458 0-1.872-.432-1.872-1.278 0-1.224.594-1.584 4.374-1.584h.306v.45c0 1.692-.846 2.412-2.808 2.412zm11.3777 2.052c3.33 0 4.59-.918 4.59-3.24 0-2.448-1.818-2.754-4.356-3.15-1.422-.216-1.872-.378-1.872-1.062 0-.576.342-.9 1.89-.9 1.08 0 2.16.288 2.898.684l1.17-1.962c-1.044-.594-2.538-.918-4.14-.918-3.096 0-4.266 1.098-4.266 3.078 0 2.556 1.8 2.916 4.266 3.276 1.53.234 2.016.378 2.016 1.08 0 .864-.522 1.044-2.034 1.044-1.134 0-2.484-.342-3.582-1.044l-1.26 1.854c1.368.918 3.042 1.26 4.68 1.26zm5.5028-8.154h1.692v4.932c0 2.142.702 3.078 3.33 3.078.414 0 1.26 0 1.62-.036v-2.106h-1.134c-1.26 0-1.368-.468-1.368-1.296v-4.572h2.502v-2.16h-2.502v-2.988l-1.908.396-.432 2.592h-1.8zm8.6473 7.974h2.466v-5.508c0-1.476.252-2.484 2.376-2.484 1.908 0 1.944.972 1.944 2.322v5.67h2.466v-5.508c0-1.476.252-2.484 2.394-2.484 1.89 0 1.926.972 1.926 2.322v5.67h2.466v-6.156c0-2.52-.432-4.212-3.546-4.212-2.178 0-3.294.486-3.798 1.17-.306-.666-.864-1.17-2.988-1.17-2.106 0-3.15.504-3.582 1.116l-.216-.882-1.908.144zm18.442 0h2.43v-10.134h-2.43zm-.018-11.16h2.466v-2.43h-2.466zm7.6374 11.196c.54 0 1.044-.036 1.242-.072v-2.07h-.36c-.882 0-1.044-.27-1.044-1.116v-10.746h-2.43v11.034c0 2.25.828 2.97 2.592 2.97zm7.4116.162c1.98 0 3.222-.414 4.464-1.35l-1.278-1.656c-.756.558-1.602.954-3.186.954-2.034 0-2.628-.846-2.79-2.25h7.2c.072-3.294-.072-6.264-4.428-6.264-4.23 0-5.148 2.43-5.148 5.274 0 2.898.864 5.292 5.166 5.292zm-.09-8.46c1.944 0 2.142.936 2.214 2.232h-4.914c.162-1.368.774-2.232 2.7-2.232zm14.2921 8.46c2.034 0 3.096-.414 3.708-1.17l.27 1.062 1.872-.198v-13.86h-2.466v4.626c-.45-.612-1.368-1.026-3.294-1.026-3.51 0-4.464 2.286-4.464 5.238 0 2.988.918 5.328 4.374 5.328zm.576-2.178c-2.016 0-2.466-1.332-2.466-3.15 0-1.782.45-2.97 2.466-2.97 2.178 0 2.808.828 2.808 2.97 0 2.178-.72 3.15-2.808 3.15zm12.3274 2.178c1.98 0 3.222-.414 4.464-1.35l-1.278-1.656c-.756.558-1.602.954-3.186.954-2.034 0-2.628-.846-2.79-2.25h7.2c.072-3.294-.072-6.264-4.428-6.264-4.23 0-5.148 2.43-5.148 5.274 0 2.898.864 5.292 5.166 5.292zm-.09-8.46c1.944 0 2.142.936 2.214 2.232h-4.914c.162-1.368.774-2.232 2.7-2.232zm9.149 8.298c.54 0 1.044-.036 1.242-.072v-2.07h-.36c-.882 0-1.044-.27-1.044-1.116v-10.746h-2.43v11.034c0 2.25.828 2.97 2.592 2.97zm3.332-.036h2.43v-10.134h-2.43zm-.018-11.16h2.466v-2.43h-2.466zm7.799 11.268h2.61l4.032-10.242h-2.52l-2.754 7.29-2.754-7.29h-2.628zm12.189.09c1.98 0 3.222-.414 4.464-1.35l-1.278-1.656c-.756.558-1.602.954-3.186.954-2.034 0-2.628-.846-2.79-2.25h7.2c.072-3.294-.072-6.264-4.428-6.264-4.23 0-5.148 2.43-5.148 5.274 0 2.898.864 5.292 5.166 5.292zm-.09-8.46c1.944 0 2.142.936 2.214 2.232h-4.914c.162-1.368.774-2.232 2.7-2.232zm6.449 8.262h2.466v-5.112c0-1.674.594-2.718 3.006-2.736v-2.394c-1.656.036-2.88.576-3.312 1.242l-.252-1.134-1.908.144zm8.255 3.042c2.232 0 3.078-.684 3.744-2.448l4.14-10.728h-2.538l-2.502 6.948-2.556-6.948h-2.628l3.87 9.954-.18.504c-.198.63-.486.792-1.566.792h-.756v1.908c.27.018.756.018.972.018z" fill="#000"/></svg>