<svg xmlns="http://www.w3.org/2000/svg" fill="none" viewBox="0 0 650 464"><path fill="#fff" d="M0 0h650v463.183H0z"/><path fill="#D6B49A" d="M293.823 268.647c-11.084-18.391-30.307-24.493-36.623-26.199a30.802 30.802 0 0 1-1.52-14.895c1.432-9.852 3.767-25.866 3.995-27.036l-47.757 18.616-48.572 16.354c.922.761 12.95 11.553 20.345 18.199a30.73 30.73 0 0 1 8.361 12.412c-3.76 5.364-14.623 22.388-11.38 43.624 3.062 20.055 17.014 32.749 26.304 41.225a100.406 100.406 0 0 0 22.294 15.344 30.752 30.752 0 0 0 24.936 4.976 113.489 113.489 0 0 0 6.896-1.874c1.16-.36 2.634-.82 4.322-1.414l.278-.104.279-.099a114.188 114.188 0 0 0 10.716-4.676 30.806 30.806 0 0 0 10.117-8.185 30.872 30.872 0 0 0 5.843-11.64 100.73 100.73 0 0 0 7.309-26.089c1.728-12.458 4.322-31.17-6.143-48.539z"/><path fill="#000" d="M247.211 372.454a31.158 31.158 0 0 1-18.146-5.839 100.837 100.837 0 0 1-22.347-15.389c-9.295-8.466-23.341-21.259-26.424-41.449-2.987-19.563 5.759-35.739 11.33-43.738a30.452 30.452 0 0 0-8.186-12.071c-7.197-6.471-19.411-17.438-20.333-18.187a.395.395 0 0 1-.134-.363.38.38 0 0 1 .253-.295l48.576-16.356 47.746-18.604a.385.385 0 0 1 .38.063.385.385 0 0 1 .127.364c-.225 1.168-2.597 17.428-3.99 27.019a30.516 30.516 0 0 0 1.429 14.523c9.391 2.567 26.446 9.376 36.655 26.319 10.537 17.483 7.925 36.323 6.197 48.79a101.234 101.234 0 0 1-7.324 26.161 31.277 31.277 0 0 1-5.923 11.766 31.2 31.2 0 0 1-10.237 8.274c-1.457.734-4.039 1.96-6.521 2.998-1.168.49-2.549 1.061-4.178 1.673l-.058.028-.558.201-.058.017c-1.649.577-3.073 1.016-4.281 1.397-2.572.797-5.336 1.523-6.921 1.883a31.085 31.085 0 0 1-7.074.815zm-83.11-136.821c2.579 2.26 13.29 11.879 19.846 17.771a31.23 31.23 0 0 1 8.465 12.564.38.38 0 0 1-.046.348c-5.5 7.849-14.283 23.916-11.317 43.347 3.04 19.926 16.974 32.609 26.185 41.002a100.159 100.159 0 0 0 22.203 15.285l.051.031a30.379 30.379 0 0 0 24.627 4.914 109.43 109.43 0 0 0 6.873-1.868c1.213-.373 2.647-.825 4.307-1.406l.05-.016.451-.162.048-.023c1.642-.614 3.04-1.191 4.208-1.683a112.047 112.047 0 0 0 6.471-2.975 30.45 30.45 0 0 0 9.997-8.083 30.515 30.515 0 0 0 5.776-11.498.373.373 0 0 1 .02-.056 100.38 100.38 0 0 0 7.281-25.988c1.712-12.361 4.307-31.04-6.096-48.293-10.141-16.829-27.16-23.536-36.399-26.029a.394.394 0 0 1-.254-.238 31.288 31.288 0 0 1-1.532-15.08c1.266-8.73 3.346-22.993 3.886-26.382l-47.141 18.37-47.96 16.148z"/><path fill="#020202" d="M214.129 225.27c26.602-9.655 46.971-20.793 45.495-24.877-1.476-4.084-24.238.432-50.841 10.087-26.602 9.656-46.971 20.794-45.495 24.878 1.476 4.084 24.238-.433 50.841-10.088z"/><path fill="#000" d="M168.177 237.226c-2.741 0-4.776-.47-5.239-1.75-1.013-2.792 6.184-7.415 12.393-10.812 8.614-4.706 20.447-9.875 33.33-14.554 12.882-4.679 25.278-8.304 34.897-10.213 6.941-1.376 15.423-2.434 16.429.351 1.006 2.784-6.184 7.417-12.393 10.814-8.614 4.707-20.445 9.876-33.33 14.552-12.884 4.676-25.275 8.304-34.897 10.215-3.755.744-7.96 1.397-11.19 1.397zm86.591-37.976c-2.313 0-5.801.35-11.061 1.394-9.586 1.904-21.939 5.519-34.788 10.182-12.849 4.664-24.647 9.817-33.228 14.506-12.099 6.616-12.277 9.241-12.044 9.886.233.644 2.047 2.538 15.568-.138 9.584-1.901 21.939-5.519 34.786-10.182 12.847-4.664 24.647-9.815 33.225-14.506 12.097-6.616 12.275-9.238 12.042-9.886-.137-.385-.869-1.256-4.5-1.256z"/><path fill="#818181" d="M264.867 377.826l-.023 21.025c0 1.572 1.687 2.849 3.769 2.851h.076c2.083 0 3.775-1.269 3.775-2.843l.023-20.792c0-.134-1.761-.254-3.899-.254h-3.721"/><path fill="#191818" d="M268.688 402.083h-.081c-2.28 0-4.15-1.452-4.15-3.232l.023-21.406h4.101c1.039 0 2.027.026 2.787.071 1.044.066 1.505.115 1.505.554l-.023 20.791a2.908 2.908 0 0 1-1.267 2.318 4.821 4.821 0 0 1-2.895.904zm-3.448-23.863l-.023 20.644c0 1.361 1.52 2.467 3.39 2.47h.081a4.045 4.045 0 0 0 2.434-.762 2.157 2.157 0 0 0 .955-1.708l.023-20.512a31.881 31.881 0 0 0-3.496-.143h-3.364v.011z"/><path fill="#818181" d="M465.004 377.826l-.023 21.025c0 1.572 1.688 2.849 3.77 2.851h.076c2.082 0 3.775-1.269 3.775-2.843l.023-20.792c0-.134-1.774-.254-3.899-.254h-3.722"/><path fill="#191818" d="M468.824 402.083h-.081c-2.28 0-4.149-1.452-4.149-3.232l.023-21.406h4.101c1.049 0 2.027.026 2.774.071 1.044.066 1.505.115 1.505.554l-.023 20.791a2.908 2.908 0 0 1-1.267 2.318 4.82 4.82 0 0 1-2.883.904zm-3.447-23.863l-.023 20.644c0 1.361 1.52 2.468 3.389 2.47h.081a4.048 4.048 0 0 0 2.435-.762 2.157 2.157 0 0 0 .955-1.708l.023-20.512a31.881 31.881 0 0 0-3.496-.143h-3.364v.011z"/><path fill="#DCDBDA" d="M484.385 372.622H213.249a2.723 2.723 0 0 0-2.724 2.729c0 .724.287 1.418.798 1.93a2.72 2.72 0 0 0 1.926.799h268.476a2.715 2.715 0 0 0 1.947-.822 2.74 2.74 0 0 0 .774-1.97l-.061-2.666z"/><path fill="#000" d="M481.725 378.461H213.249a3.103 3.103 0 0 1-3.103-3.11 3.103 3.103 0 0 1 3.103-3.11h271.516l.068 3.047a3.115 3.115 0 0 1-.887 2.242 3.092 3.092 0 0 1-2.221.931zm-268.476-5.458a2.346 2.346 0 0 0-2.343 2.348 2.34 2.34 0 0 0 2.343 2.348h268.476a2.339 2.339 0 0 0 2.178-1.487c.114-.291.17-.602.163-.914l-.053-2.285-270.764-.01z"/><path fill="#4EA7F1" d="M199.693 230.711s-9.784 37.445-8.153 53.131c.973 9.363.669 24.879.254 35.897a13.315 13.315 0 0 1-4.115 9.143 13.258 13.258 0 0 1-18.539-.231 13.312 13.312 0 0 1-3.886-9.242c-.069-5.585-.704-9.835-.127-12.998 3.463-18.992-1.842-19.294 1.287-36.623a383.08 383.08 0 0 1 1.662-5.658c2.994-9.901 6.275-19.104 9.754-28.08 3.734-.353 7.904-1.465 12.395-2.47 3.453-.772 6.613-1.925 9.468-2.869z"/><path fill="#000" d="M178.538 332.925a13.692 13.692 0 0 1-9.581-3.961 13.747 13.747 0 0 1-4.074-9.55c-.023-1.975-.121-3.808-.208-5.442-.157-2.976-.293-5.547.087-7.616 1.773-9.675 1.238-14.501.729-19.167-.507-4.603-.978-8.949.557-17.456v-.036a413.754 413.754 0 0 1 1.665-5.666c2.723-9.01 5.827-17.941 9.764-28.108l.086-.218.233-.023c2.903-.272 6.098-1.016 9.48-1.803.94-.218 1.895-.441 2.868-.657a76.483 76.483 0 0 0 7.815-2.32c.546-.187 1.082-.366 1.609-.539l.661-.22-.175.677c-.099.374-9.751 37.555-8.145 52.997.968 9.32.679 24.694.266 35.948a13.643 13.643 0 0 1-4.159 9.347 13.588 13.588 0 0 1-9.478 3.813zm-11.745-63.05c-1.52 8.378-1.043 12.676-.547 17.22.507 4.719 1.049 9.601-.737 19.385-.362 1.993-.228 4.524-.074 7.451.087 1.632.185 3.483.208 5.473a12.935 12.935 0 0 0 3.778 8.974 12.877 12.877 0 0 0 18.004.223 12.93 12.93 0 0 0 3.998-8.877c.413-11.231.702-26.564-.253-35.841-1.498-14.414 6.683-47.439 7.992-52.59l-.955.307a76.872 76.872 0 0 1-7.891 2.34c-.968.219-1.922.438-2.863.658-3.316.762-6.455 1.503-9.346 1.797-3.891 10.056-6.961 18.908-9.657 27.834a409.08 409.08 0 0 0-1.657 5.646z"/><path fill="#4EA7F1" d="M204.26 310.645c-2.26 0-3.914-3.282-4.56-4.569-4.456-8.842 2.28-24.267 4.895-29.743 2.498 5.636 8.694 20.934 4.241 29.743-.674 1.307-2.324 4.569-4.576 4.569z"/><path fill="#000" d="M204.26 311.026c-2.495 0-4.185-3.353-4.904-4.785-4.211-8.352 1.266-22.432 4.887-30.078l.354-.762.337.762c3.392 7.649 8.452 21.723 4.231 30.07-.722 1.44-2.417 4.793-4.905 4.793zm.312-33.782c-3.547 7.665-8.472 20.855-4.542 28.654.603 1.193 2.201 4.367 4.228 4.367 2.027 0 3.623-3.174 4.228-4.367 3.939-7.801-.59-20.987-3.914-28.654z"/><path fill="#F8F3ED" d="M507.256 271.203c-28.058-24.328-62.829-18.921-67.842-18.058-48.266 7.72-87.306 25.387-93.282 47.8a139.874 139.874 0 0 0-2.964 14.047c-11.945-2.031-31.994-3.026-43.671 9.703l-.058.066c-3.316 3.635-.991 9.509 3.899 10.02 2.928.304 6.447.599 10.415.792 8.236.401 25.863 13.201 36.901 21.708a39.535 39.535 0 0 0 27.034 13.437h.167c3.063 2.059 11.147 6.882 22.337 6.71a38.691 38.691 0 0 0 16.961-4.248l40.631-.558c18.807 5.471 33.909 4.899 43.113 3.744 13.227-1.657 18.192-4.968 20.414-6.798 7.676-6.347 10.47-16.232 12.446-26.13 4.059-20.338-2.477-51.403-26.501-72.235z"/><path fill="#000" d="M399.617 377.826c-10.232 0-18.035-4.153-21.87-6.712h-.084a39.903 39.903 0 0 1-27.269-13.541c-18.241-14.041-30.578-21.325-36.659-21.606-3.521-.173-7.032-.44-10.437-.795a6.424 6.424 0 0 1-5.366-4.143 6.227 6.227 0 0 1 1.226-6.514l.059-.064c5.226-5.697 12.613-9.23 21.964-10.51 8.077-1.104 16.176-.287 21.673.625a138.94 138.94 0 0 1 2.911-13.709c2.878-10.794 13.592-21.048 30.981-29.652 16.437-8.123 38.084-14.503 62.608-18.428 3.605-.619 13.3-1.906 25.382-.419 16.52 2.031 30.907 8.284 42.768 18.566a80.694 80.694 0 0 1 23.895 36.472c3.947 12.341 4.918 25.171 2.731 36.123-1.847 9.253-4.494 19.682-12.578 26.349-4.137 3.412-10.878 5.663-20.609 6.885-14.053 1.761-28.592.507-43.21-3.742l-40.486.556a39.2 39.2 0 0 1-17.047 4.249c-.195.01-.39.01-.583.01zm-21.66-7.478l.109.066c3.8 2.538 11.724 6.811 22.121 6.646a38.478 38.478 0 0 0 16.794-4.207l.079-.04 40.787-.559.056.015c14.537 4.227 28.992 5.484 42.959 3.732 9.584-1.201 16.198-3.397 20.219-6.715 7.894-6.509 10.496-16.788 12.317-25.912 4.016-20.119-2.533-51.189-26.378-71.869-27.107-23.513-61.011-19.096-67.527-17.971-24.455 3.912-46.029 10.261-62.397 18.359-17.187 8.505-27.764 18.588-30.586 29.164a137.985 137.985 0 0 0-2.952 14.011l-.06.381-.38-.066c-11.147-1.901-31.614-3.183-43.321 9.584l-.059.063a5.474 5.474 0 0 0-1.076 5.732 5.665 5.665 0 0 0 4.712 3.653c3.392.353 6.888.62 10.387.79 6.242.305 18.729 7.634 37.114 21.787l.056.05a39.157 39.157 0 0 0 26.755 13.311l.271-.005z"/><path fill="#F8F3ED" d="M342.895 314.613c-2.376-6.994-5.994-20.253-6.303-32.786-.229-9.31.841-18.606 3.18-27.618a85.094 85.094 0 0 1-8.264-44.107 4.328 4.328 0 0 1 4.505-3.947 4.318 4.318 0 0 1 2.081.647l33.467 20.845a80.954 80.954 0 0 1 38.16-1.062l30.353-24.878a3.463 3.463 0 0 1 3.459-.557 3.472 3.472 0 0 1 1.463 1.075c.385.482.635 1.057.724 1.667a116.091 116.091 0 0 1-4.197 51.38 48.044 48.044 0 0 1 1.808 22.153"/><path fill="#000" d="M342.536 314.736c-1.394-4.1-5.969-18.591-6.334-32.899-.23-9.298.832-18.583 3.157-27.587a85.477 85.477 0 0 1-8.239-44.173 4.655 4.655 0 0 1 2.556-3.808 4.694 4.694 0 0 1 4.621.206l33.327 20.758a81.357 81.357 0 0 1 38.001-1.061l30.211-24.77a3.855 3.855 0 0 1 6.262 2.427 116.418 116.418 0 0 1-4.175 51.434 48.364 48.364 0 0 1 1.774 22.21l-.76-.117a47.672 47.672 0 0 0-1.797-21.974l-.038-.117.038-.117a115.681 115.681 0 0 0 4.183-51.212 3.11 3.11 0 0 0-1.949-2.44 3.09 3.09 0 0 0-3.08.495L409.8 226.995l-.178-.038a80.55 80.55 0 0 0-37.983 1.056l-.159.043-33.606-20.934a3.95 3.95 0 0 0-1.916-.598 3.947 3.947 0 0 0-1.962.425 3.89 3.89 0 0 0-2.141 3.176 84.69 84.69 0 0 0 8.226 43.919l.061.127-.036.137a99.72 99.72 0 0 0-3.167 27.511c.353 14.202 4.898 28.601 6.283 32.675l-.686.242z"/><path fill="#4EA7F1" d="M169.684 359.674h-.073s-2.154-.027-4.165-1.962c-1.583-1.523-.215-8.233 4.56-16.014 4.079 7.906 5.087 14.504 3.587 16.014-1.925 1.952-3.909 1.962-3.909 1.962z"/><path fill="#000" d="M169.687 360.056h-.076c-.097 0-2.329-.054-4.424-2.067-1.953-1.876.069-9.274 4.505-16.501l.352-.574.309.599c3.8 7.38 5.353 14.608 3.521 16.458-2.014 2.031-4.084 2.074-4.182 2.074l-.005.011zm.293-17.578c-4.661 7.806-5.507 13.772-4.273 14.96 1.882 1.81 3.886 1.856 3.906 1.856h.068c.038 0 1.873-.056 3.649-1.848 1.175-1.198.633-7.012-3.35-14.968z"/><path fill="#333" d="M534.799 330.48c3.752 1.732 9.688 5.182 13.68 11.678 9.227 15.016 2.351 37.004-10.48 48.572-9.313 8.398-20.037 9.718-28.473 10.807-4.945.638-27.867 3.499-43.61-10.807-3.184-2.894-10.64-9.675-9.541-18.057.57-4.316 3.494-10.076 8.48-11.678 9.553-3.082 15.271 12.737 33.21 14.681 2.584.279 13.65 1.163 22.294-5.839 1.416-1.147 3.752-3.3 6.586-8.123 2.914-4.958 7.836-15.235 7.854-31.234z"/><path fill="#191818" d="M499.605 402.571c-13.776 0-25.602-3.978-33.947-11.559-3.23-2.934-10.795-9.809-9.663-18.39.631-4.762 3.836-10.408 8.741-11.997 4.813-1.551 8.56 1.399 13.313 5.128 4.851 3.808 10.893 8.542 20.054 9.538 3.954.429 14.015.726 22.015-5.758 1.459-1.183 3.722-3.3 6.498-8.02 5.09-8.654 7.788-19.385 7.8-31.032v-.594l.54.254c6.08 2.812 10.752 6.79 13.845 11.822 4.347 7.075 5.439 16.263 3.076 25.869-2.189 8.903-7.157 17.352-13.628 23.188-9.325 8.408-19.942 9.774-28.472 10.873l-.205.026c-3.305.43-6.634.648-9.967.652zm-32.306-41.596a7.489 7.489 0 0 0-2.328.376c-4.606 1.485-7.62 6.854-8.218 11.37-1.082 8.185 6.275 14.872 9.416 17.728 10.134 9.2 25.507 13.003 43.321 10.711l.206-.028c8.426-1.084 18.911-2.435 28.059-10.686 12.414-11.195 19.568-33.19 10.413-48.087-2.921-4.755-7.286-8.548-12.979-11.279-.104 11.553-2.832 22.198-7.904 30.819-2.837 4.824-5.168 7.007-6.676 8.228-8.22 6.661-18.524 6.347-22.572 5.92-9.374-1.015-15.515-5.839-20.439-9.692-3.763-2.945-6.868-5.38-10.299-5.38zM417.249 373.511a.38.38 0 0 1-.339-.55.37.37 0 0 1 .18-.176c.172-.082 17.364-8.236 21.326-23.61a.377.377 0 0 1 .171-.248.385.385 0 0 1 .434.022.375.375 0 0 1 .146.264.398.398 0 0 1-.016.153c-2.118 8.227-7.92 14.348-12.414 18.024a49.444 49.444 0 0 1-9.328 6.08.355.355 0 0 1-.16.041z"/><path fill="#333" d="M409.733 226.591l30.353-24.879a3.479 3.479 0 0 1 3.459-.556 3.481 3.481 0 0 1 2.188 2.742c.821 5.733 1.046 11.541 1.102 20.563.056 9.023-3.111 17.294-5.264 30.875a72.213 72.213 0 0 0-31.838-28.745z"/><path fill="#191818" d="M441.781 256.433l-.538-.901a71.827 71.827 0 0 0-31.667-28.596l-.55-.253 30.822-25.273a3.856 3.856 0 0 1 3.838-.618 3.857 3.857 0 0 1 2.424 3.045c.856 5.979 1.054 12.089 1.107 20.627.036 5.526-1.15 10.86-2.533 17.032-.892 4.016-1.903 8.568-2.749 13.901l-.154 1.036zm-31.338-29.931a72.558 72.558 0 0 1 30.907 27.753c.813-4.917 1.756-9.154 2.592-12.924 1.416-6.38 2.533-11.424 2.503-16.862-.054-8.505-.254-14.59-1.1-20.525a3.11 3.11 0 0 0-1.949-2.44 3.09 3.09 0 0 0-3.08.495l-29.873 24.503zM378.742 371.479a.379.379 0 0 1-.253-.093c-.709-.62-2.366-2.326-2.402-4.768-.03-2.15 1.196-3.646 1.599-4.138 2.052-2.506 5.085-2.734 8.598-3.001 1.981-.15 4.229-.32 6.547-.934 4.081-1.081 7.944-3.44 11.481-7.009a.379.379 0 0 1 .639.272.38.38 0 0 1-.102.266c-3.63 3.666-7.6 6.093-11.826 7.207-2.384.632-4.666.805-6.68.957-3.479.254-6.225.472-8.069 2.724-.36.439-1.452 1.777-1.427 3.646.031 2.132 1.521 3.65 2.144 4.204a.382.382 0 0 1-.093.633.365.365 0 0 1-.156.034z"/><path fill="#333" d="M389.889 293.67c21.407 0 38.761-13.298 38.761-29.702 0-16.404-17.354-29.702-38.761-29.702-21.407 0-38.761 13.298-38.761 29.702 0 16.404 17.354 29.702 38.761 29.702z"/><path fill="#191818" d="M389.889 294.051c-21.582 0-39.141-13.496-39.141-30.083 0-16.588 17.559-30.083 39.141-30.083 21.582 0 39.141 13.495 39.141 30.083 0 16.587-17.559 30.083-39.141 30.083zm0-59.405c-21.154 0-38.381 13.153-38.381 29.322 0 16.168 17.227 29.321 38.381 29.321s38.381-13.153 38.381-29.321c0-16.169-17.227-29.322-38.381-29.322z"/><path fill="#F8F59C" d="M365.188 270.06c4.408 0 7.98-3.58 7.98-7.997 0-4.416-3.572-7.997-7.98-7.997-4.407 0-7.98 3.581-7.98 7.997 0 4.417 3.573 7.997 7.98 7.997z"/><path fill="#191818" d="M365.188 270.441a8.35 8.35 0 0 1-4.644-1.412 8.387 8.387 0 0 1-1.267-12.89 8.357 8.357 0 0 1 9.111-1.816 8.368 8.368 0 0 1 3.752 3.086 8.392 8.392 0 0 1-1.04 10.578 8.352 8.352 0 0 1-5.912 2.454zm0-15.994a7.588 7.588 0 0 0-4.222 1.284 7.625 7.625 0 0 0-1.152 11.717 7.59 7.59 0 0 0 11.694-1.154 7.627 7.627 0 0 0-.946-9.616 7.592 7.592 0 0 0-5.374-2.231z"/><path fill="#F3D2C9" d="M445.624 204.056s-17.733 24.117-19.507 29.702c-1.327 4.176 4.717 2.107 7.854.797a.724.724 0 0 1 .804.171.732.732 0 0 1 .131.814l-2.103 4.45a1.621 1.621 0 0 0 .25 1.76 1.603 1.603 0 0 0 1.713.459l2.511-.838a.725.725 0 0 1 .764.195.73.73 0 0 1 .138.778l-.91 4.361 4.307 8.632a116.395 116.395 0 0 0 4.054-51.281h-.006z"/><path fill="#000" d="M441.651 256.352l-4.788-9.596.96-4.57a.346.346 0 0 0 .021-.196.338.338 0 0 0-.088-.177.348.348 0 0 0-.366-.094l-2.511.84a1.985 1.985 0 0 1-2.599-1.61 1.996 1.996 0 0 1 .175-1.134l2.102-4.45a.34.34 0 0 0-.063-.391.343.343 0 0 0-.385-.082c-4.254 1.777-6.962 2.179-8.046 1.183-.557-.507-.661-1.335-.309-2.444 1.773-5.585 18.838-28.827 19.563-29.814l.55-.747.131.917a116.694 116.694 0 0 1-4.053 51.451l-.294.914zm-3.988-9.698l3.823 7.662a116.043 116.043 0 0 0 3.892-49.281c-3.01 4.128-17.341 23.927-18.9 28.837-.253.805-.222 1.361.097 1.655.8.734 3.506.239 7.243-1.325a1.11 1.11 0 0 1 1.426 1.503l-2.103 4.447a1.235 1.235 0 0 0 .791 1.717c.232.062.478.055.707-.021l2.51-.837a1.1 1.1 0 0 1 1.149.281 1.108 1.108 0 0 1 .239 1.16l-.874 4.202z"/><path fill="#333" d="M371.395 227.665c-11.111-6.903-22.636-14.242-33.747-21.144-2.298-1.427-5.994.411-6.027 3.12-.068 5.79-1.013 12.211.76 21.07.955 4.783 1.381 7.256 2.346 10.536a80.013 80.013 0 0 0 5.001 12.82 50.558 50.558 0 0 1 4.56-7.362c1.457-1.957 6.729-8.738 16.214-14.217a56.211 56.211 0 0 1 10.893-4.823z"/><path fill="#191818" d="M339.724 254.917l-.335-.682a80.854 80.854 0 0 1-5.026-12.879c-.813-2.765-1.267-5.009-1.925-8.403l-.429-2.168c-1.37-6.854-1.124-12.269-.909-17.037.066-1.432.127-2.792.142-4.113.015-1.32.849-2.609 2.229-3.368 1.47-.81 3.147-.836 4.378-.069 5.556 3.448 11.306 7.068 16.87 10.568 5.563 3.501 11.319 7.124 16.877 10.577l.699.434-.782.254a55.789 55.789 0 0 0-10.821 4.79c-8.529 4.927-13.748 10.957-16.099 14.115a50.382 50.382 0 0 0-4.525 7.306l-.344.675zm-3.904-48.508a4.126 4.126 0 0 0-1.981.525c-1.138.625-1.825 1.638-1.837 2.712-.015 1.34-.079 2.698-.142 4.135-.215 4.727-.459 10.081.894 16.857l.431 2.168c.686 3.493 1.102 5.605 1.908 8.334a80 80 0 0 0 4.646 12.079 51.381 51.381 0 0 1 4.246-6.743c2.386-3.203 7.678-9.322 16.327-14.318a56.687 56.687 0 0 1 10.197-4.6 3148.54 3148.54 0 0 1-16.191-10.154c-5.573-3.501-11.311-7.109-16.864-10.569a3.087 3.087 0 0 0-1.634-.426z"/><path fill="#F3D2C9" d="M331.621 209.133s19.097 16.74 21.46 21.124c.14.254.733 1.427.294 1.957-.836 1.016-4.41-1.543-6.047-.233a1.7 1.7 0 0 0-.41.487 2.027 2.027 0 0 0 .19 2.204c.547.728 1.266 1.896 1.198 3.005 0 .33-.102.652-.291.922-.489.599-1.399.604-1.65.604-1.659 0-2.556-1.602-2.596-1.675a1.174 1.174 0 0 0-1.52.033.885.885 0 0 0-.238.507c-.059.44.013.887.207 1.285.55 1.114-.093 4.709-.468 6.329a23.84 23.84 0 0 1-2.787 6.854c-2.28-4.991-5.358-12.947-6.84-22.594a83.054 83.054 0 0 1-.884-15.927c.096-1.988.255-3.664.382-4.882z"/><path fill="#000" d="M338.968 252.924h-.02a.364.364 0 0 1-.193-.066.37.37 0 0 1-.131-.157 86.447 86.447 0 0 1-6.876-22.693 83.345 83.345 0 0 1-.889-15.994c.076-1.637.203-3.3.38-4.914a.381.381 0 0 1 .442-.343.384.384 0 0 1 .186.089c.78.685 19.175 16.836 21.534 21.23.253.488.816 1.701.253 2.382-.562.68-1.588.34-2.802-.018-1.213-.358-2.563-.762-3.293-.163a1.301 1.301 0 0 0-.317.379 1.647 1.647 0 0 0 .162 1.777c.616.82 1.336 2.054 1.267 3.254a1.98 1.98 0 0 1-.377 1.143c-.401.49-1.054.741-1.941.744-1.705 0-2.678-1.458-2.885-1.805a.802.802 0 0 0-.956.055.565.565 0 0 0-.129.303c-.045.361.015.728.175 1.056.717 1.452-.319 6.062-.441 6.582a24.143 24.143 0 0 1-2.83 6.964.38.38 0 0 1-.319.195zm-7.045-43.02a77.675 77.675 0 0 0-.299 4.136c-.217 5.3.077 10.608.879 15.851a85.52 85.52 0 0 0 6.508 21.833 23.243 23.243 0 0 0 2.374-6.108c.449-1.937.953-5.156.507-6.075a2.607 2.607 0 0 1-.254-1.524c.035-.274.157-.53.35-.728a1.558 1.558 0 0 1 2.027-.043.29.29 0 0 1 .083.104c0 .015.814 1.475 2.258 1.475.648 0 1.104-.158 1.355-.465.137-.208.208-.452.205-.701.051-.972-.582-2.03-1.122-2.757a2.4 2.4 0 0 1-.215-2.619 2.09 2.09 0 0 1 .506-.597c1.047-.838 2.61-.378 3.988.028.795.233 1.773.523 2.006.254.17-.206.026-.863-.337-1.523-2.075-3.867-17.67-17.756-20.819-20.541zM365.189 267.775c3.148 0 5.7-2.557 5.7-5.711a5.706 5.706 0 0 0-5.7-5.712 5.706 5.706 0 0 0-5.7 5.712 5.706 5.706 0 0 0 5.7 5.711z"/><path fill="#191818" d="M365.189 268.156a6.088 6.088 0 0 1-5.618-3.761 6.11 6.11 0 0 1 1.318-6.64 6.08 6.08 0 0 1 6.626-1.321 6.09 6.09 0 0 1 3.754 5.629 6.103 6.103 0 0 1-1.781 4.309 6.076 6.076 0 0 1-4.299 1.784zm0-11.424a5.31 5.31 0 0 0-2.956.899 5.332 5.332 0 0 0-2.262 5.473 5.33 5.33 0 0 0 4.18 4.188 5.309 5.309 0 0 0 5.461-2.267 5.333 5.333 0 0 0-4.423-8.293z"/><path fill="#F8F59C" d="M416.363 270.06c4.407 0 7.98-3.58 7.98-7.997 0-4.416-3.573-7.997-7.98-7.997s-7.98 3.581-7.98 7.997c0 4.417 3.573 7.997 7.98 7.997z"/><path fill="#191818" d="M416.363 270.441a8.355 8.355 0 0 1-7.724-5.172 8.395 8.395 0 0 1 1.813-9.13 8.353 8.353 0 0 1 9.11-1.816 8.384 8.384 0 0 1 5.161 7.74 8.39 8.39 0 0 1-2.448 5.924 8.354 8.354 0 0 1-5.912 2.454zm0-15.994a7.588 7.588 0 0 0-4.222 1.284 7.617 7.617 0 0 0-3.232 7.818 7.618 7.618 0 0 0 5.971 5.984 7.598 7.598 0 0 0 7.802-3.239 7.62 7.62 0 0 0 1.281-4.231c0-2.02-.8-3.957-2.226-5.385a7.592 7.592 0 0 0-5.374-2.231z"/><path fill="#000" d="M416.363 267.775c3.148 0 5.7-2.557 5.7-5.711a5.706 5.706 0 0 0-5.7-5.712 5.706 5.706 0 0 0-5.7 5.712 5.706 5.706 0 0 0 5.7 5.711z"/><path fill="#191818" d="M416.363 268.156a6.069 6.069 0 0 1-3.378-1.027 6.092 6.092 0 0 1-2.585-6.254 6.102 6.102 0 0 1 1.664-3.12 6.076 6.076 0 0 1 9.355.924 6.102 6.102 0 0 1-.756 7.693 6.078 6.078 0 0 1-4.3 1.784zm0-11.424a5.31 5.31 0 0 0-2.955.899 5.332 5.332 0 0 0-2.263 5.473 5.337 5.337 0 0 0 1.456 2.729 5.308 5.308 0 0 0 5.798 1.156 5.329 5.329 0 0 0 3.284-4.926c0-1.413-.56-2.769-1.558-3.769a5.313 5.313 0 0 0-3.762-1.562z"/><path fill="#F3D2C9" d="M388.055 263.62l2.594.347 2.379-.34a.542.542 0 0 1 .534.83l-2.303 3.626a.762.762 0 0 1-.975.258.764.764 0 0 1-.276-.238l-2.475-3.638a.545.545 0 0 1 .522-.845z"/><path fill="#000" d="M390.626 268.812a1.12 1.12 0 0 1-.932-.508l-2.475-3.635a.93.93 0 0 1-.023-1.006.917.917 0 0 1 .907-.431l2.534.34 2.328-.335a.93.93 0 0 1 .904.415.931.931 0 0 1 .005.996l-2.303 3.626a1.127 1.127 0 0 1-.934.525l-.011.013zm-2.647-4.824a.155.155 0 0 0-.078.021.156.156 0 0 0-.056.058.157.157 0 0 0 0 .178l2.475 3.635a.38.38 0 0 0 .312.163.36.36 0 0 0 .306-.173l2.3-3.625a.147.147 0 0 0 0-.175.157.157 0 0 0-.068-.062.158.158 0 0 0-.091-.012l-2.43.348-2.647-.353-.023-.003z"/><path fill="#000" d="M386.864 272.767a8.39 8.39 0 0 1-.813-.043.383.383 0 1 1 .076-.761c1.485.147 2.574-.132 3.233-.833.965-1.016.724-2.628.722-2.645a.383.383 0 0 1 .321-.44.384.384 0 0 1 .439.323c0 .079.299 1.993-.92 3.285-.704.744-1.728 1.114-3.058 1.114z"/><path fill="#000" d="M394.272 273.02c-1.33 0-2.351-.371-3.04-1.109-1.219-1.292-.932-3.207-.92-3.285a.387.387 0 0 1 .439-.323.388.388 0 0 1 .321.439c0 .028-.233 1.638.725 2.651.661.698 1.745.975 3.23.827a.384.384 0 0 1 .334.624.385.385 0 0 1-.258.138c-.299.023-.57.038-.831.038z"/><path fill="#F8F3ED" d="M443.597 264.729l17.86-5.458z"/><path fill="#000" d="M443.597 265.11a.381.381 0 0 1-.112-.744l17.86-5.458a.38.38 0 0 1 .428.537.38.38 0 0 1-.205.189l-17.86 5.458a.353.353 0 0 1-.111.018z"/><path fill="#F8F3ED" d="M444.23 268.664l16.847 2.666z"/><path fill="#000" d="M461.077 271.711h-.058l-16.847-2.666a.385.385 0 1 1 .116-.761l16.848 2.665a.384.384 0 0 1 .35.41.382.382 0 0 1-.409.352z"/><path fill="#F8F3ED" d="M337.068 268.664l-15.327 3.427z"/><path fill="#000" d="M321.741 272.472a.384.384 0 0 1-.341-.621.385.385 0 0 1 .257-.141l15.327-3.427a.383.383 0 0 1 .43.292.383.383 0 0 1-.263.449l-15.327 3.428a.346.346 0 0 1-.083.02z"/><path fill="#F8F3ED" d="M337.702 264.475l-16.848-2.665z"/><path fill="#000" d="M337.701 264.856h-.058l-16.847-2.665a.392.392 0 0 1-.252-.153.384.384 0 0 1-.07-.286.383.383 0 0 1 .289-.316.394.394 0 0 1 .149-.007l16.848 2.666a.383.383 0 0 1 .219.67.381.381 0 0 1-.278.091z"/><path fill="#8BB174" d="M148.024 113.045c11.291 5.171 24.143 16.783 39.447 31.601 23.508 22.762 38.204 59.514 42.815 73.367-1.462.681-7.659-10.835-9.121-10.154-4.881-13.389-14.508-35.25-35.214-56.612-16.923-17.461-31.667-30.38-43.574-36.049l5.647-2.153z"/><path fill="#000" d="M230.141 218.431c-.902 0-2.174-1.66-4.725-5.27-1.393-1.97-3.496-4.945-4.109-4.945l-.375.172-.119-.396c-7.955-21.832-19.446-40.293-35.13-56.477-18.748-19.353-32.57-30.782-43.463-35.971l-.806-.38 6.627-2.539.147.066c10.815 4.955 23.153 15.796 39.552 31.675 10.219 9.901 19.828 23.394 28.566 40.123 8.026 15.392 12.703 28.489 14.339 33.401l.109.323-.309.142a.697.697 0 0 1-.304.076zm-8.72-10.975c.897.132 2.166 1.8 4.613 5.263 1.14 1.617 2.754 3.902 3.638 4.664-2.533-7.428-17.189-47.981-42.464-72.469-16.27-15.745-28.514-26.514-39.197-31.454l-4.677 1.777c10.853 5.395 24.516 16.786 42.891 35.742 15.694 16.199 27.213 34.67 35.196 56.477z"/><path fill="#8BB174" d="M210.791 226.31c-18.919-15.994-45.414-35.412-54.25-38.814-22.745-8.758-42.936-12.579-56.011-12.708 1.405-1.446 2.813-2.889 4.223-4.331 12.414-.056 30.302 3.399 50.415 10.408 8.066 2.816 38.943 22.97 61.055 43.322l-5.432 2.123z"/><path fill="#000" d="M210.72 226.746l-.175-.145c-18.375-15.544-45.13-35.287-54.141-38.75-20.234-7.786-41.135-12.538-55.879-12.683h-.89l4.956-5.077h.451c12.92 0 31.211 3.793 50.237 10.431 7.937 2.77 38.508 22.528 61.184 43.411l.448.414-6.191 2.399zm-109.301-52.327c14.77.315 35.331 5.05 55.271 12.721 9.055 3.486 35.769 23.173 54.187 38.733l4.636-1.818c-22.19-20.309-52.836-40.167-60.472-42.83-18.945-6.6-37.14-10.388-49.986-10.388h-.13l-3.506 3.582z"/><path fill="#8BB174" d="M230.549 218.475c-4.499-6.068-15.089-24.661-21.26-30.66a151.248 151.248 0 0 0-42.181-28.884l-5.652 2.142a160.94 160.94 0 0 1 46.303 33.34c4.484 4.644 13.792 21.774 17.333 26.402l5.457-2.34z"/><path fill="#000" d="M224.971 221.288l-.18-.234c-1.421-1.861-3.693-5.603-6.333-9.934-3.897-6.41-8.31-13.675-10.98-16.44a159.921 159.921 0 0 0-46.191-33.256l-.796-.399 6.63-2.513.147.066a151.116 151.116 0 0 1 42.287 28.966c4.087 3.97 10.119 13.455 14.965 21.071 2.577 4.061 4.814 7.552 6.334 9.621l.288.386-6.171 2.666zm-62.549-60.167a160.682 160.682 0 0 1 45.601 33.033c2.728 2.826 7.167 10.13 11.081 16.575 2.409 3.963 4.689 7.715 6.105 9.629l4.74-2.031c-1.532-2.122-3.65-5.455-6.08-9.278-4.826-7.591-10.83-17.037-14.853-20.947a150.433 150.433 0 0 0-41.923-28.758l-4.671 1.777z"/><path fill="#333" d="M396.73 357.644l8.613 19.293a48.736 48.736 0 0 1-12.92-.254s-7.395-.86-12.31-4.569c-3.415-2.569-3.577-4.379-3.62-4.92-.198-2.473 1.429-4.222 2.06-4.823l.19-.173c2.28-1.995 6.333-2.267 6.587-2.285 2.594-.16 6.178-.833 11.4-2.269z"/><path fill="#191818" d="M399.802 377.631c-2.49.001-4.977-.19-7.438-.571-.291-.033-7.539-.912-12.479-4.628-2.369-1.777-3.638-3.529-3.77-5.195-.2-2.482 1.267-4.277 2.176-5.128l.201-.182c2.249-1.975 6.08-2.328 6.809-2.379 2.741-.185 6.445-.929 11.327-2.285l.314-.086 8.961 20.055-.507.059c-1.857.217-3.724.33-5.594.34zm-3.293-19.533c-4.778 1.3-8.431 2.031-11.162 2.211-.431.028-4.254.338-6.361 2.191a4.56 4.56 0 0 0-.173.158c-.805.761-2.123 2.353-1.948 4.519.114 1.436 1.282 3 3.468 4.645 4.773 3.59 12.052 4.476 12.125 4.484 4.076.626 8.215.73 12.317.309l-8.266-18.517z"/><path fill="#333" d="M319.152 336.758l7.656-22.779a39.602 39.602 0 0 0-15.201 2.792 38.007 38.007 0 0 0-9.627 5.839c-.253.216-3.8 3.27-3.926 6.212v.32c.058 2.481 1.857 4.062 2.548 4.57l.208.152c2.121 1.503 4.707 1.336 8.52 1.429 2.151.054 3.225.082 4.56.254a28.68 28.68 0 0 1 5.262 1.211z"/><path fill="#191818" d="M319.151 337.142a.376.376 0 0 1-.119-.02 28.073 28.073 0 0 0-5.193-1.186c-1.317-.172-2.389-.198-4.522-.253-.479 0-.94-.021-1.383-.028-3.134-.051-5.399-.089-7.347-1.47l-.218-.163c-.98-.761-2.637-2.381-2.698-4.871v-.348c.137-3.082 3.661-6.146 4.053-6.486a38.801 38.801 0 0 1 9.756-5.9 40.083 40.083 0 0 1 15.343-2.818c.06 0 .12.015.173.044a.391.391 0 0 1 .2.285.385.385 0 0 1-.019.178l-7.656 22.78a.378.378 0 0 1-.37.256zm7.094-22.787c-4.965 0-9.886.94-14.504 2.77a37.874 37.874 0 0 0-9.52 5.778c-.15.127-3.671 3.13-3.8 5.935v.29c.053 2.178 1.52 3.625 2.399 4.293l.195.144c1.758 1.244 3.924 1.27 6.921 1.331.446 0 .907.015 1.391.027 2.158.054 3.243.082 4.598.254a29 29 0 0 1 4.976 1.102l7.369-21.926-.025.002z"/><path fill="#9665FF" d="M95.965 97.936l-7.106-3.884a10.23 10.23 0 0 1-4.156-4.232 10.259 10.259 0 0 1-1.114-5.831l.596-5.638c.238-2.26.963-4.442 2.126-6.393a15.676 15.676 0 0 1 4.605-4.91 7.469 7.469 0 0 1 7.469-.563c.683.319 1.383.6 2.097.843a59.432 59.432 0 0 1 21.985 13.802l-11.013 20.013-15.489-3.207z"/><path fill="#000" d="M111.649 101.572l-15.816-3.274-.05-.028-7.107-3.882a10.583 10.583 0 0 1-4.309-4.39 10.613 10.613 0 0 1-1.145-6.049l.595-5.638c.243-2.315.985-4.55 2.175-6.549a16.036 16.036 0 0 1 4.719-5.028 7.866 7.866 0 0 1 7.853-.591 20.86 20.86 0 0 0 2.06.828 59.69 59.69 0 0 1 22.119 13.891l.205.2-11.299 20.51zm-15.552-3.998l15.16 3.14L121.996 81.2a58.947 58.947 0 0 0-21.641-13.51 21.241 21.241 0 0 1-2.135-.849 7.093 7.093 0 0 0-7.094.536 15.272 15.272 0 0 0-4.496 4.789 15.308 15.308 0 0 0-2.073 6.239l-.595 5.638a9.853 9.853 0 0 0 1.065 5.616 9.825 9.825 0 0 0 4.002 4.074l7.068 3.841z"/><path fill="#9665FF" d="M102.662 91.212l-.175.013a10.36 10.36 0 0 0-6.03 2.505 10.398 10.398 0 0 0-3.344 5.619l-.679 3.077a13.625 13.625 0 0 0 1.308 9.393 13.58 13.58 0 0 0 7.116 6.252l20.898 7.972 3.217-22.899-14.44-9.822a12.372 12.372 0 0 0-7.871-2.11z"/><path fill="#000" d="M122.067 126.568l-21.343-8.139a13.96 13.96 0 0 1-7.317-6.428 14.009 14.009 0 0 1-1.345-9.657l.679-3.074a10.72 10.72 0 0 1 3.456-5.837 10.682 10.682 0 0 1 6.262-2.586l.175-.013a12.83 12.83 0 0 1 8.107 2.176l14.638 9.956-3.312 23.602zM102.69 91.593l-.175.013a9.925 9.925 0 0 0-5.82 2.403 9.96 9.96 0 0 0-3.212 5.426l-.679 3.074a13.318 13.318 0 0 0 1.292 9.119 13.273 13.273 0 0 0 6.896 6.088l20.455 7.801 3.116-22.185-14.233-9.69a12.067 12.067 0 0 0-7.628-2.049h-.012z"/><path fill="#9665FF" d="M139.717 77.204l-8.14-10.813a13.6 13.6 0 0 0-6.079-4.556 13.569 13.569 0 0 0-7.569-.58l-2.667.562a8.01 8.01 0 0 0-5.792 4.861 8.03 8.03 0 0 0 .831 7.525l6.841 9.723 21.435 7.77 1.14-14.492z"/><path fill="#000" d="M138.916 92.228l-22.015-7.982-6.911-9.822a8.406 8.406 0 0 1 1.53-11.18 8.37 8.37 0 0 1 3.666-1.782l2.67-.559a13.992 13.992 0 0 1 7.762.602 14.02 14.02 0 0 1 6.245 4.658l8.226 10.916-.013.145-1.16 15.004zm-21.534-8.617l20.853 7.56 1.079-13.84-8.051-10.698c-1.515-2-3.563-3.53-5.909-4.412a13.245 13.245 0 0 0-7.346-.574l-2.67.56a7.612 7.612 0 0 0-3.332 1.621 7.637 7.637 0 0 0-2.681 6.681 7.639 7.639 0 0 0 1.286 3.48l6.771 9.622z"/><path fill="#F8F59C" d="M122.103 112.108c9.112 0 16.5-7.403 16.5-16.535 0-9.131-7.388-16.534-16.5-16.534-9.113 0-16.5 7.403-16.5 16.534 0 9.132 7.387 16.535 16.5 16.535z"/><path fill="#191818" d="M122.095 112.481a16.842 16.842 0 0 1-7.878-1.959 16.895 16.895 0 0 1-6.055-5.417 16.935 16.935 0 0 1-1.782-15.69 16.908 16.908 0 0 1 4.685-6.642 16.843 16.843 0 0 1 15.353-3.554 16.87 16.87 0 0 1 7.118 3.91 16.923 16.923 0 0 1 5.013 8.633c.765 3.318.513 6.79-.723 9.962a16.907 16.907 0 0 1-6.206 7.815 16.851 16.851 0 0 1-9.525 2.942zm.013-33.053a16.093 16.093 0 0 0-10.285 3.722 16.153 16.153 0 0 0-5.545 9.444 16.176 16.176 0 0 0 1.748 10.816 16.13 16.13 0 0 0 8.237 7.208 16.085 16.085 0 0 0 10.931.278 16.117 16.117 0 0 0 8.591-6.778 16.17 16.17 0 0 0-2.764-20.428 16.045 16.045 0 0 0-10.913-4.262z"/><path fill="#9665FF" d="M125.872 77.199l-.806 6.202c-.321 2.465.266 4.803 1.647 6.555l11.061 14.033 6.485 16.956a47.752 47.752 0 0 0 3.428-7.177s2.447-6.9 2.166-14.625c-.506-14.338-10.602-25.745-12.289-27.605a5.369 5.369 0 0 0-2.787-1.778c-2.108-.507-3.858.612-4.768 1.191-3.035 1.932-3.911 5.245-4.137 6.248z"/><path fill="#000" d="M144.181 121.803l-6.744-17.623-11.023-13.983c-1.449-1.838-2.059-4.267-1.725-6.854l.813-6.235c.365-1.633 1.411-4.644 4.307-6.487.907-.576 2.787-1.777 5.067-1.239 1.172.3 2.218.967 2.987 1.902 2.774 3.06 11.886 14.133 12.38 27.836.279 7.713-2.163 14.697-2.186 14.768a48.926 48.926 0 0 1-3.463 7.25l-.413.665zm-17.934-44.538l-.806 6.184c-.306 2.369.254 4.595 1.569 6.27l11.098 14.08.021.053 6.201 16.212a49.931 49.931 0 0 0 3.002-6.433c.023-.061 2.415-6.915 2.141-14.47-.486-13.455-9.454-24.343-12.191-27.362a4.963 4.963 0 0 0-2.594-1.657c-1.95-.468-3.595.578-4.476 1.14-2.655 1.678-3.623 4.462-3.965 5.983z"/><path fill="#9665FF" d="M121.476 126.075l-12.515-5.795a10.789 10.789 0 0 1-5.552-5.993 10.815 10.815 0 0 1 .232-8.173l2.602-5.885a14.2 14.2 0 0 1 7.392-7.31 14.16 14.16 0 0 1 10.382-.306l14.993 5.42a13.841 13.841 0 0 1 7.157 5.904 13.885 13.885 0 0 1 1.831 9.107 18.42 18.42 0 0 1-4.436 8.652c-5.761 6.182-13.961 5.839-15.421 5.768a21.213 21.213 0 0 1-6.665-1.389z"/><path fill="#000" d="M129.078 127.87c-.35 0-.667 0-.943-.018a21.575 21.575 0 0 1-6.792-1.421h-.025l-12.508-5.806a11.216 11.216 0 0 1-5.734-6.209 11.248 11.248 0 0 1 .219-8.457l2.599-5.885a14.623 14.623 0 0 1 7.599-7.492 14.58 14.58 0 0 1 10.655-.324l14.992 5.42a14.277 14.277 0 0 1 7.348 6.073 14.321 14.321 0 0 1 1.896 9.354v.028a18.783 18.783 0 0 1-4.532 8.832c-4.823 5.161-11.392 5.905-14.774 5.905zm-7.461-2.133a20.876 20.876 0 0 0 6.543 1.366c2.85.122 10.033-.182 15.125-5.646a18.015 18.015 0 0 0 4.339-8.461 13.55 13.55 0 0 0-1.798-8.846 13.506 13.506 0 0 0-6.952-5.741l-14.992-5.423a13.816 13.816 0 0 0-10.098.307 13.853 13.853 0 0 0-7.2 7.101l-2.602 5.887a10.477 10.477 0 0 0-.203 7.879 10.446 10.446 0 0 0 5.343 5.784l12.495 5.793z"/><path fill="#9665FF" d="M77.77 147.176l-1.038-3.592a10.14 10.14 0 0 1 .437-6.847 10.112 10.112 0 0 1 4.695-4.993 11.31 11.31 0 0 1 11.874 1.015c3.19 1.072 17.62 6.301 25.033 21.45a41.137 41.137 0 0 1 4.117 16.965 2.098 2.098 0 0 1-2.124 2.134 2.094 2.094 0 0 1-1.061-.308L77.77 147.176z"/><path fill="#000" d="M120.795 173.698a2.478 2.478 0 0 1-1.297-.373l-42.054-25.894-1.08-3.735a10.532 10.532 0 0 1 .455-7.102 10.504 10.504 0 0 1 4.865-5.185 11.634 11.634 0 0 1 12.224 1.003c5.32 1.792 18.266 7.458 25.195 21.624a41.204 41.204 0 0 1 4.157 17.123 2.437 2.437 0 0 1-1.231 2.204 2.468 2.468 0 0 1-1.234.335zm-42.7-26.768l41.801 25.745a1.708 1.708 0 0 0 2.392-.613c.152-.269.229-.573.222-.882a40.525 40.525 0 0 0-4.074-16.814c-6.84-13.957-19.633-19.514-24.827-21.266l-.058-.02-.048-.036a10.878 10.878 0 0 0-11.466-.96 9.742 9.742 0 0 0-4.517 4.806 9.765 9.765 0 0 0-.423 6.588l.998 3.452z"/><path fill="#9665FF" d="M65.965 182.414l4.337 3.236a22.02 22.02 0 0 0 4.16 2.438 44.573 44.573 0 0 0 5.429 1.987c4.005 1.178 13.885 4.077 24.873.026 8.426-3.108 13.662-8.886 16.393-12.658a1.773 1.773 0 0 0 .204-1.779 1.767 1.767 0 0 0-1.445-1.054l-47.704-5.42a8.31 8.31 0 0 0-4.885.944 8.333 8.333 0 0 0-3.475 3.567 6.972 6.972 0 0 0 2.113 8.713z"/><path fill="#000" d="M92.888 192.568c-5.827 0-10.522-1.381-13.098-2.137a44.378 44.378 0 0 1-5.475-2.006 22.279 22.279 0 0 1-4.233-2.48l-4.34-3.227a7.325 7.325 0 0 1-2.222-9.19 8.753 8.753 0 0 1 3.638-3.721 8.727 8.727 0 0 1 5.103-.996l47.696 5.415a2.174 2.174 0 0 1 1.748 1.278 2.177 2.177 0 0 1-.228 2.157c-3.01 4.158-8.327 9.751-16.571 12.792a34.538 34.538 0 0 1-12.019 2.115zM66.19 182.096l4.344 3.227c1.27.947 2.64 1.75 4.087 2.394a43.681 43.681 0 0 0 5.38 1.995c4.12 1.211 13.767 4.042 24.638.033 8.061-2.973 13.267-8.451 16.214-12.523a1.406 1.406 0 0 0 .149-1.404 1.378 1.378 0 0 0-1.127-.828l-47.707-5.422a7.977 7.977 0 0 0-7.975 4.316 6.561 6.561 0 0 0 1.997 8.212z"/><path fill="#9665FF" d="M62.484 156.709a16.244 16.244 0 0 0 3.006 6.245 16.202 16.202 0 0 0 5.334 4.417l14.547 7.502c.975.383 2.401.916 4.147 1.478a67.21 67.21 0 0 0 11.4 2.64c6.908.822 14.531-1.361 18.858-2.897a3.364 3.364 0 0 0 2.237-3.011 3.386 3.386 0 0 0-.192-1.305c-2.589-7.181-6.405-11.317-8.555-13.317-3.973-3.694-8.794-6.159-12.647-8.124a79.648 79.648 0 0 0-7.496-3.359l-12.389-3.429a16.157 16.157 0 0 0-12.183 1.482l-1.244.696a9.952 9.952 0 0 0-4.247 4.681 9.979 9.979 0 0 0-.576 6.301z"/><path fill="#000" d="M104.12 179.557a27.324 27.324 0 0 1-3.235-.183c-2.356-.282-6.78-1.145-11.484-2.655a72.674 72.674 0 0 1-4.17-1.485l-.035-.016-14.547-7.504a16.561 16.561 0 0 1-8.532-10.916 10.388 10.388 0 0 1 .596-6.551 10.357 10.357 0 0 1 4.41-4.873l1.244-.696a16.443 16.443 0 0 1 12.482-1.503l12.413 3.44a81.112 81.112 0 0 1 7.535 3.374c3.886 1.988 8.719 4.458 12.73 8.187 3.8 3.524 6.703 8.055 8.654 13.468a3.75 3.75 0 0 1-2.28 4.806c-4.175 1.497-10.037 3.107-15.781 3.107zm-18.595-5.027a70.564 70.564 0 0 0 4.11 1.463c4.65 1.495 9.016 2.348 11.341 2.625 6.557.779 13.78-1.135 18.687-2.879a2.993 2.993 0 0 0 1.814-3.829c-1.911-5.3-4.756-9.728-8.457-13.17-3.932-3.656-8.715-6.093-12.558-8.065a79.818 79.818 0 0 0-7.446-3.336l-12.37-3.425a15.703 15.703 0 0 0-11.907 1.435l-1.241.695a9.604 9.604 0 0 0-4.087 4.514 9.629 9.629 0 0 0-.555 6.07c.529 2.22 1.53 4.3 2.935 6.097A15.81 15.81 0 0 0 71 167.036l14.526 7.494z"/><path fill="#9665FF" d="M155.118 136.877a2.58 2.58 0 0 0-1.095.224 2.574 2.574 0 0 0-1.479 2.775c1.013 6.011 3.592 19.273 7.18 22.624 4.679 4.372 12.198 29.542 33.111 24.234 14.359-3.645 9.946-18.664 5.766-27.727a29.687 29.687 0 0 0-10.612-12.376 57.769 57.769 0 0 0-14.831-6.931 65.795 65.795 0 0 0-18.04-2.823z"/><path fill="#000" d="M187.265 187.844c-12.72 0-19.692-11.958-24.067-19.472-1.447-2.483-2.695-4.628-3.729-5.585-3.57-3.333-6.103-15.74-7.296-22.848a2.947 2.947 0 0 1 2.956-3.442 65.955 65.955 0 0 1 18.152 2.843 58.127 58.127 0 0 1 14.919 6.974 30.007 30.007 0 0 1 10.749 12.533c2.957 6.408 5.85 15.372 2.848 21.68-1.553 3.265-4.535 5.479-8.867 6.575-1.85.483-3.753.732-5.665.742zm-32.197-50.588a2.182 2.182 0 0 0-2.104 1.614 2.187 2.187 0 0 0-.046.942c.947 5.638 3.531 19.111 7.063 22.409 1.114 1.041 2.33 3.127 3.871 5.768 4.882 8.377 13.054 22.396 28.88 18.377 4.097-1.041 6.911-3.115 8.36-6.166 2.876-6.042.036-14.773-2.85-21.033a29.235 29.235 0 0 0-10.478-12.216 57.43 57.43 0 0 0-14.724-6.885 65.297 65.297 0 0 0-17.944-2.81h-.028z"/><path fill="#8BB174" d="M239.186 214.844c.727-.38-6.873-74.255-28.154-102.688-21.28-28.433-26.347-33.003-26.347-33.003s-.507 21.579 8.613 36.811c9.121 15.232 19.761 40.618 22.801 46.203 3.04 5.585 14.187 56.612 14.187 56.612l8.9-3.935z"/><path fill="#000" d="M230.014 219.315l-.098-.455c-.114-.507-11.173-51.027-14.152-56.51-.983-1.805-2.751-5.661-4.991-10.543-4.628-10.086-11.62-25.326-17.802-35.648-9.072-15.151-8.667-36.798-8.667-37.016l.021-.828.613.556c.208.186 5.338 4.918 26.398 33.056 11.028 14.724 18.172 41.38 22.22 61.146 4.499 21.957 6.291 40.619 6.027 41.809a.427.427 0 0 1-.075.178.424.424 0 0 1-.143.13h-.025l-9.326 4.125zm-44.949-139.24c.035 4.262.661 22.495 8.562 35.693 6.2 10.355 13.204 25.62 17.838 35.719 2.234 4.869 4 8.715 4.97 10.497 2.911 5.352 12.941 50.862 14.124 56.26l8.297-3.654c.122-2.061-1.791-20.608-6.05-41.38-4.035-19.674-11.147-46.203-22.078-60.811-17.085-22.842-23.753-30.314-25.663-32.324z"/></svg>